%TF.GenerationSoftware,KiCad,Pcbnew,8.0.4*%
%TF.CreationDate,2024-09-07T09:02:32+02:00*%
%TF.ProjectId,chairAdjust-relayBoard,63686169-7241-4646-9a75-73742d72656c,rev?*%
%TF.SameCoordinates,Original*%
%TF.FileFunction,Copper,L1,Top*%
%TF.FilePolarity,Positive*%
%FSLAX46Y46*%
G04 Gerber Fmt 4.6, Leading zero omitted, Abs format (unit mm)*
G04 Created by KiCad (PCBNEW 8.0.4) date 2024-09-07 09:02:32*
%MOMM*%
%LPD*%
G01*
G04 APERTURE LIST*
%TA.AperFunction,ComponentPad*%
%ADD10R,3.000000X3.000000*%
%TD*%
%TA.AperFunction,ComponentPad*%
%ADD11C,3.000000*%
%TD*%
%TA.AperFunction,ComponentPad*%
%ADD12R,0.850000X0.850000*%
%TD*%
%TA.AperFunction,ComponentPad*%
%ADD13R,2.800000X2.800000*%
%TD*%
%TA.AperFunction,ComponentPad*%
%ADD14O,2.800000X2.800000*%
%TD*%
%TA.AperFunction,ComponentPad*%
%ADD15R,2.400000X2.400000*%
%TD*%
%TA.AperFunction,ComponentPad*%
%ADD16O,2.400000X2.400000*%
%TD*%
%TA.AperFunction,ComponentPad*%
%ADD17C,1.600000*%
%TD*%
%TA.AperFunction,ComponentPad*%
%ADD18O,1.600000X1.600000*%
%TD*%
%TA.AperFunction,ComponentPad*%
%ADD19R,1.500000X1.500000*%
%TD*%
%TA.AperFunction,ComponentPad*%
%ADD20C,1.500000*%
%TD*%
%TA.AperFunction,ComponentPad*%
%ADD21O,2.000000X3.000000*%
%TD*%
%TA.AperFunction,ComponentPad*%
%ADD22R,3.000000X2.000000*%
%TD*%
%TA.AperFunction,ComponentPad*%
%ADD23O,3.000000X2.000000*%
%TD*%
%TA.AperFunction,ComponentPad*%
%ADD24R,1.700000X1.700000*%
%TD*%
%TA.AperFunction,ComponentPad*%
%ADD25O,1.700000X1.700000*%
%TD*%
%TA.AperFunction,ComponentPad*%
%ADD26C,2.400000*%
%TD*%
%TA.AperFunction,ViaPad*%
%ADD27C,4.000000*%
%TD*%
%TA.AperFunction,Conductor*%
%ADD28C,4.000000*%
%TD*%
%TA.AperFunction,Conductor*%
%ADD29C,2.500000*%
%TD*%
G04 APERTURE END LIST*
D10*
%TO.P,J4,1,Pin_1*%
%TO.N,+24V*%
X176530000Y-35560000D03*
D11*
%TO.P,J4,2,Pin_2*%
X171450000Y-35560000D03*
%TD*%
D12*
%TO.P,TP7,1,1*%
%TO.N,Net-(D3-K)*%
X130556000Y-68326000D03*
%TD*%
D13*
%TO.P,D8,1,K*%
%TO.N,Net-(D8-K)*%
X139700000Y-86360000D03*
D14*
%TO.P,D8,2,A*%
%TO.N,GND*%
X139700000Y-73660000D03*
%TD*%
D15*
%TO.P,D11,1,K*%
%TO.N,Net-(D10-A)*%
X196850000Y-92075000D03*
D16*
%TO.P,D11,2,A*%
%TO.N,GNDPWR*%
X196850000Y-71755000D03*
%TD*%
D17*
%TO.P,R7,1*%
%TO.N,/Relay_M2.2*%
X120015000Y-92075000D03*
D18*
%TO.P,R7,2*%
%TO.N,+12V*%
X130175000Y-92075000D03*
%TD*%
D15*
%TO.P,D7,1,K*%
%TO.N,Net-(D4-A)*%
X196850000Y-66675000D03*
D16*
%TO.P,D7,2,A*%
%TO.N,GNDPWR*%
X196850000Y-46355000D03*
%TD*%
D12*
%TO.P,TP9,1,1*%
%TO.N,Net-(D8-K)*%
X130429000Y-85090000D03*
%TD*%
D19*
%TO.P,Q2,1,C*%
%TO.N,Net-(D8-K)*%
X134980000Y-81915000D03*
D20*
%TO.P,Q2,2,B*%
%TO.N,Net-(Q2-B)*%
X134980000Y-79375000D03*
%TO.P,Q2,3,E*%
%TO.N,+12V*%
X134980000Y-76835000D03*
%TD*%
D15*
%TO.P,D6,1,K*%
%TO.N,Net-(D5-A)*%
X191135000Y-61595000D03*
D16*
%TO.P,D6,2,A*%
%TO.N,GNDPWR*%
X191135000Y-41275000D03*
%TD*%
D15*
%TO.P,D12,1,K*%
%TO.N,+24V*%
X179705000Y-76835000D03*
D16*
%TO.P,D12,2,A*%
%TO.N,Net-(D12-A)*%
X179705000Y-97155000D03*
%TD*%
D19*
%TO.P,Q3,1,C*%
%TO.N,Net-(D3-K)*%
X134980000Y-65405000D03*
D20*
%TO.P,Q3,2,B*%
%TO.N,Net-(Q3-B)*%
X134980000Y-62865000D03*
%TO.P,Q3,3,E*%
%TO.N,+12V*%
X134980000Y-60325000D03*
%TD*%
D12*
%TO.P,TP8,1,1*%
%TO.N,Net-(D1-K)*%
X130429000Y-51689000D03*
%TD*%
D21*
%TO.P,K1,11*%
%TO.N,Net-(D5-A)*%
X166350000Y-43300000D03*
X166350000Y-50800000D03*
%TO.P,K1,12*%
%TO.N,GNDPWR*%
X161310000Y-43300000D03*
X161310000Y-50800000D03*
%TO.P,K1,14*%
%TO.N,+24V*%
X171390000Y-43300000D03*
X171390000Y-50800000D03*
D22*
%TO.P,K1,A1*%
%TO.N,Net-(D1-K)*%
X146050000Y-50800000D03*
D23*
%TO.P,K1,A2*%
%TO.N,GND*%
X146050000Y-43300000D03*
%TD*%
D12*
%TO.P,TP6,1,1*%
%TO.N,+12V*%
X124079000Y-35306000D03*
%TD*%
D10*
%TO.P,J7,1,Pin_1*%
%TO.N,Net-(D12-A)*%
X203835000Y-88265000D03*
D11*
%TO.P,J7,2,Pin_2*%
%TO.N,Net-(D10-A)*%
X203835000Y-83185000D03*
%TD*%
D12*
%TO.P,TP10,1,1*%
%TO.N,Net-(D9-K)*%
X129794000Y-101473000D03*
%TD*%
D24*
%TO.P,J3,1,Pin_1*%
%TO.N,/Relay_M2.2*%
X117475000Y-73025000D03*
D25*
%TO.P,J3,2,Pin_2*%
%TO.N,/Relay_M2.1*%
X117475000Y-70485000D03*
%TO.P,J3,3,Pin_3*%
%TO.N,/Relay_M1.2*%
X117475000Y-67945000D03*
%TO.P,J3,4,Pin_4*%
%TO.N,/Relay_M1.1*%
X117475000Y-65405000D03*
%TD*%
D21*
%TO.P,K4,11*%
%TO.N,Net-(D12-A)*%
X166348000Y-92830000D03*
X166348000Y-100330000D03*
%TO.P,K4,12*%
%TO.N,GNDPWR*%
X161308000Y-92830000D03*
X161308000Y-100330000D03*
%TO.P,K4,14*%
%TO.N,+24V*%
X171388000Y-92830000D03*
X171388000Y-100330000D03*
D22*
%TO.P,K4,A1*%
%TO.N,Net-(D9-K)*%
X146048000Y-100330000D03*
D23*
%TO.P,K4,A2*%
%TO.N,GND*%
X146048000Y-92830000D03*
%TD*%
D13*
%TO.P,D1,1,K*%
%TO.N,Net-(D1-K)*%
X139700000Y-53340000D03*
D14*
%TO.P,D1,2,A*%
%TO.N,GND*%
X139700000Y-40640000D03*
%TD*%
D10*
%TO.P,J1,1,Pin_1*%
%TO.N,Net-(D4-A)*%
X203835000Y-62230000D03*
D11*
%TO.P,J1,2,Pin_2*%
%TO.N,Net-(D5-A)*%
X203835000Y-57150000D03*
%TD*%
D17*
%TO.P,R2,1*%
%TO.N,/Relay_M1.1*%
X119655000Y-46355000D03*
D18*
%TO.P,R2,2*%
%TO.N,Net-(Q1-B)*%
X129815000Y-46355000D03*
%TD*%
D19*
%TO.P,TP4,1,1*%
%TO.N,GNDPWR*%
X150622000Y-35560000D03*
%TD*%
%TO.P,Q1,1,C*%
%TO.N,Net-(D1-K)*%
X134980000Y-48895000D03*
D20*
%TO.P,Q1,2,B*%
%TO.N,Net-(Q1-B)*%
X134980000Y-46355000D03*
%TO.P,Q1,3,E*%
%TO.N,+12V*%
X134980000Y-43815000D03*
%TD*%
D15*
%TO.P,D5,1,K*%
%TO.N,+24V*%
X179705000Y-41275000D03*
D16*
%TO.P,D5,2,A*%
%TO.N,Net-(D5-A)*%
X179705000Y-61595000D03*
%TD*%
D12*
%TO.P,TP11,1,1*%
%TO.N,Net-(D10-A)*%
X204216000Y-77470000D03*
%TD*%
D15*
%TO.P,J2,1,Pin_1*%
%TO.N,/Relay_M1.1*%
X111225000Y-63965000D03*
D26*
%TO.P,J2,2,Pin_2*%
%TO.N,/Relay_M1.2*%
X111225000Y-67465000D03*
%TO.P,J2,3,Pin_3*%
%TO.N,/Relay_M2.1*%
X111225000Y-70965000D03*
%TO.P,J2,4,Pin_4*%
%TO.N,/Relay_M2.2*%
X111225000Y-74465000D03*
%TD*%
D13*
%TO.P,D3,1,K*%
%TO.N,Net-(D3-K)*%
X139700000Y-69850000D03*
D14*
%TO.P,D3,2,A*%
%TO.N,GND*%
X139700000Y-57150000D03*
%TD*%
D19*
%TO.P,Q4,1,C*%
%TO.N,Net-(D9-K)*%
X134980000Y-98425000D03*
D20*
%TO.P,Q4,2,B*%
%TO.N,Net-(Q4-B)*%
X134980000Y-95885000D03*
%TO.P,Q4,3,E*%
%TO.N,+12V*%
X134980000Y-93345000D03*
%TD*%
D21*
%TO.P,K2,11*%
%TO.N,Net-(D4-A)*%
X166348000Y-59810000D03*
X166348000Y-67310000D03*
%TO.P,K2,12*%
%TO.N,GNDPWR*%
X161308000Y-59810000D03*
X161308000Y-67310000D03*
%TO.P,K2,14*%
%TO.N,+24V*%
X171388000Y-59810000D03*
X171388000Y-67310000D03*
D22*
%TO.P,K2,A1*%
%TO.N,Net-(D3-K)*%
X146048000Y-67310000D03*
D23*
%TO.P,K2,A2*%
%TO.N,GND*%
X146048000Y-59810000D03*
%TD*%
D15*
%TO.P,D13,1,K*%
%TO.N,Net-(D12-A)*%
X191135000Y-97155000D03*
D16*
%TO.P,D13,2,A*%
%TO.N,GNDPWR*%
X191135000Y-76835000D03*
%TD*%
D13*
%TO.P,D9,1,K*%
%TO.N,Net-(D9-K)*%
X139700000Y-102870000D03*
D14*
%TO.P,D9,2,A*%
%TO.N,GND*%
X139700000Y-90170000D03*
%TD*%
D21*
%TO.P,K3,11*%
%TO.N,Net-(D10-A)*%
X166350000Y-76320000D03*
X166350000Y-83820000D03*
%TO.P,K3,12*%
%TO.N,GNDPWR*%
X161310000Y-76320000D03*
X161310000Y-83820000D03*
%TO.P,K3,14*%
%TO.N,+24V*%
X171390000Y-76320000D03*
X171390000Y-83820000D03*
D22*
%TO.P,K3,A1*%
%TO.N,Net-(D8-K)*%
X146050000Y-83820000D03*
D23*
%TO.P,K3,A2*%
%TO.N,GND*%
X146050000Y-76320000D03*
%TD*%
D17*
%TO.P,R5,1*%
%TO.N,/Relay_M1.2*%
X120015000Y-59309000D03*
D18*
%TO.P,R5,2*%
%TO.N,+12V*%
X130175000Y-59309000D03*
%TD*%
D15*
%TO.P,D4,1,K*%
%TO.N,+24V*%
X185420000Y-46355000D03*
D16*
%TO.P,D4,2,A*%
%TO.N,Net-(D4-A)*%
X185420000Y-66675000D03*
%TD*%
D17*
%TO.P,R4,1*%
%TO.N,/Relay_M1.2*%
X120015000Y-62865000D03*
D18*
%TO.P,R4,2*%
%TO.N,Net-(Q3-B)*%
X130175000Y-62865000D03*
%TD*%
D10*
%TO.P,J6,1,Pin_1*%
%TO.N,GND*%
X134874000Y-35560000D03*
D11*
%TO.P,J6,2,Pin_2*%
%TO.N,+12V*%
X129794000Y-35560000D03*
%TD*%
D12*
%TO.P,TP1,1,1*%
%TO.N,Net-(D5-A)*%
X204089000Y-50927000D03*
%TD*%
%TO.P,TP3,1,1*%
%TO.N,+24V*%
X182245000Y-35560000D03*
%TD*%
D17*
%TO.P,R3,1*%
%TO.N,/Relay_M1.1*%
X119655000Y-42545000D03*
D18*
%TO.P,R3,2*%
%TO.N,+12V*%
X129815000Y-42545000D03*
%TD*%
D12*
%TO.P,TP12,1,1*%
%TO.N,Net-(D12-A)*%
X204216000Y-94234000D03*
%TD*%
D15*
%TO.P,D10,1,K*%
%TO.N,+24V*%
X185420000Y-71755000D03*
D16*
%TO.P,D10,2,A*%
%TO.N,Net-(D10-A)*%
X185420000Y-92075000D03*
%TD*%
D17*
%TO.P,R6,1*%
%TO.N,/Relay_M2.1*%
X120015000Y-75565000D03*
D18*
%TO.P,R6,2*%
%TO.N,+12V*%
X130175000Y-75565000D03*
%TD*%
D10*
%TO.P,J5,1,Pin_1*%
%TO.N,GNDPWR*%
X161290000Y-35560000D03*
D11*
%TO.P,J5,2,Pin_2*%
X156210000Y-35560000D03*
%TD*%
D17*
%TO.P,R9,1*%
%TO.N,/Relay_M2.2*%
X120015000Y-95885000D03*
D18*
%TO.P,R9,2*%
%TO.N,Net-(Q4-B)*%
X130175000Y-95885000D03*
%TD*%
D17*
%TO.P,R8,1*%
%TO.N,/Relay_M2.1*%
X120015000Y-79375000D03*
D18*
%TO.P,R8,2*%
%TO.N,Net-(Q2-B)*%
X130175000Y-79375000D03*
%TD*%
D12*
%TO.P,TP2,1,1*%
%TO.N,Net-(D4-A)*%
X204089000Y-68199000D03*
%TD*%
D19*
%TO.P,TP5,1,1*%
%TO.N,GND*%
X140208000Y-35560000D03*
%TD*%
D27*
%TO.N,Net-(D4-A)*%
X166370000Y-71755000D03*
X175590000Y-71755000D03*
%TO.N,Net-(D5-A)*%
X166370000Y-55245000D03*
X175590000Y-55245000D03*
%TO.N,Net-(D10-A)*%
X166370000Y-88265000D03*
X175590000Y-88265000D03*
%TD*%
D28*
%TO.N,Net-(D4-A)*%
X166370000Y-71755000D02*
X175590000Y-71755000D01*
%TO.N,Net-(D5-A)*%
X166370000Y-55245000D02*
X175590000Y-55245000D01*
D29*
%TO.N,GNDPWR*%
X186828327Y-63275000D02*
X191135000Y-67581673D01*
X186828327Y-59101673D02*
X186828327Y-63275000D01*
X191135000Y-54795000D02*
X186828327Y-59101673D01*
X191135000Y-41275000D02*
X191135000Y-54795000D01*
D28*
%TO.N,Net-(D10-A)*%
X166370000Y-88265000D02*
X175590000Y-88265000D01*
D29*
%TO.N,GNDPWR*%
X191135000Y-67581673D02*
X191135000Y-76835000D01*
%TD*%
M02*
