M48
; DRILL file {KiCad 8.0.4} date 2024-09-07T08:33:15+0200
; FORMAT={-:-/ absolute / metric / decimal}
; #@! TF.CreationDate,2024-09-07T08:33:15+02:00
; #@! TF.GenerationSoftware,Kicad,Pcbnew,8.0.4
; #@! TF.FileFunction,Plated,1,2,PTH
FMAT,2
METRIC
; #@! TA.AperFunction,Plated,PTH,ComponentDrill
T1C0.500
; #@! TA.AperFunction,Plated,PTH,ComponentDrill
T2C0.800
; #@! TA.AperFunction,Plated,PTH,ViaDrill
T3C1.000
; #@! TA.AperFunction,Plated,PTH,ComponentDrill
T4C1.000
; #@! TA.AperFunction,Plated,PTH,ComponentDrill
T5C1.200
; #@! TA.AperFunction,Plated,PTH,ComponentDrill
T6C1.300
; #@! TA.AperFunction,Plated,PTH,ComponentDrill
T7C1.400
; #@! TA.AperFunction,Plated,PTH,ComponentDrill
T8C1.500
; #@! TA.AperFunction,Plated,PTH,ComponentDrill
T9C1.520
%
G90
G05
T1
X124.079Y-35.306
X129.794Y-101.473
X130.429Y-51.689
X130.429Y-85.09
X130.556Y-68.326
X140.208Y-35.56
X150.622Y-35.56
X182.245Y-35.56
X204.089Y-50.927
X204.089Y-68.199
X204.216Y-77.47
X204.216Y-94.234
T2
X119.655Y-42.545
X119.655Y-46.355
X120.015Y-59.309
X120.015Y-62.865
X120.015Y-75.565
X120.015Y-79.375
X120.015Y-92.075
X120.015Y-95.885
X129.815Y-42.545
X129.815Y-46.355
X130.175Y-59.309
X130.175Y-62.865
X130.175Y-75.565
X130.175Y-79.375
X130.175Y-92.075
X130.175Y-95.885
X134.98Y-43.815
X134.98Y-46.355
X134.98Y-48.895
X134.98Y-60.325
X134.98Y-62.865
X134.98Y-65.405
X134.98Y-76.835
X134.98Y-79.375
X134.98Y-81.915
X134.98Y-93.345
X134.98Y-95.885
X134.98Y-98.425
T3
X166.37Y-55.245
X166.37Y-71.755
X166.37Y-88.265
X175.59Y-55.245
X175.59Y-71.755
X175.59Y-88.265
T4
X117.475Y-65.405
X117.475Y-67.945
X117.475Y-70.485
X117.475Y-73.025
T5
X111.225Y-63.965
X111.225Y-67.465
X111.225Y-70.965
X111.225Y-74.465
T6
X146.048Y-59.81
X146.048Y-67.31
X146.048Y-92.83
X146.048Y-100.33
X146.05Y-43.3
X146.05Y-50.8
X146.05Y-76.32
X146.05Y-83.82
X161.308Y-59.81
X161.308Y-67.31
X161.308Y-92.83
X161.308Y-100.33
X161.31Y-43.3
X161.31Y-50.8
X161.31Y-76.32
X161.31Y-83.82
X166.348Y-59.81
X166.348Y-67.31
X166.348Y-92.83
X166.348Y-100.33
X166.35Y-43.3
X166.35Y-50.8
X166.35Y-76.32
X166.35Y-83.82
X171.388Y-59.81
X171.388Y-67.31
X171.388Y-92.83
X171.388Y-100.33
X171.39Y-43.3
X171.39Y-50.8
X171.39Y-76.32
X171.39Y-83.82
T7
X139.7Y-40.64
X139.7Y-53.34
X139.7Y-57.15
X139.7Y-69.85
X139.7Y-73.66
X139.7Y-86.36
X139.7Y-90.17
X139.7Y-102.87
T8
X179.705Y-41.275
X179.705Y-61.595
X179.705Y-76.835
X179.705Y-97.155
X185.42Y-46.355
X185.42Y-66.675
X185.42Y-71.755
X185.42Y-92.075
X191.135Y-41.275
X191.135Y-61.595
X191.135Y-76.835
X191.135Y-97.155
X196.85Y-46.355
X196.85Y-66.675
X196.85Y-71.755
X196.85Y-92.075
T9
X129.794Y-35.56
X134.874Y-35.56
X156.21Y-35.56
X161.29Y-35.56
X171.45Y-35.56
X176.53Y-35.56
X203.835Y-57.15
X203.835Y-62.23
X203.835Y-83.185
X203.835Y-88.265
M30
