%TF.GenerationSoftware,KiCad,Pcbnew,8.0.4*%
%TF.CreationDate,2024-09-07T09:02:32+02:00*%
%TF.ProjectId,chairAdjust-relayBoard,63686169-7241-4646-9a75-73742d72656c,rev?*%
%TF.SameCoordinates,Original*%
%TF.FileFunction,Copper,L2,Bot*%
%TF.FilePolarity,Positive*%
%FSLAX46Y46*%
G04 Gerber Fmt 4.6, Leading zero omitted, Abs format (unit mm)*
G04 Created by KiCad (PCBNEW 8.0.4) date 2024-09-07 09:02:32*
%MOMM*%
%LPD*%
G01*
G04 APERTURE LIST*
%TA.AperFunction,ComponentPad*%
%ADD10R,3.000000X3.000000*%
%TD*%
%TA.AperFunction,ComponentPad*%
%ADD11C,3.000000*%
%TD*%
%TA.AperFunction,ComponentPad*%
%ADD12R,0.850000X0.850000*%
%TD*%
%TA.AperFunction,ComponentPad*%
%ADD13R,2.800000X2.800000*%
%TD*%
%TA.AperFunction,ComponentPad*%
%ADD14O,2.800000X2.800000*%
%TD*%
%TA.AperFunction,ComponentPad*%
%ADD15R,2.400000X2.400000*%
%TD*%
%TA.AperFunction,ComponentPad*%
%ADD16O,2.400000X2.400000*%
%TD*%
%TA.AperFunction,ComponentPad*%
%ADD17C,1.600000*%
%TD*%
%TA.AperFunction,ComponentPad*%
%ADD18O,1.600000X1.600000*%
%TD*%
%TA.AperFunction,ComponentPad*%
%ADD19R,1.500000X1.500000*%
%TD*%
%TA.AperFunction,ComponentPad*%
%ADD20C,1.500000*%
%TD*%
%TA.AperFunction,ComponentPad*%
%ADD21O,2.000000X3.000000*%
%TD*%
%TA.AperFunction,ComponentPad*%
%ADD22R,3.000000X2.000000*%
%TD*%
%TA.AperFunction,ComponentPad*%
%ADD23O,3.000000X2.000000*%
%TD*%
%TA.AperFunction,ComponentPad*%
%ADD24R,1.700000X1.700000*%
%TD*%
%TA.AperFunction,ComponentPad*%
%ADD25O,1.700000X1.700000*%
%TD*%
%TA.AperFunction,ComponentPad*%
%ADD26C,2.400000*%
%TD*%
%TA.AperFunction,ViaPad*%
%ADD27C,4.000000*%
%TD*%
%TA.AperFunction,Conductor*%
%ADD28C,2.500000*%
%TD*%
%TA.AperFunction,Conductor*%
%ADD29C,1.000000*%
%TD*%
%TA.AperFunction,Conductor*%
%ADD30C,4.000000*%
%TD*%
G04 APERTURE END LIST*
D10*
%TO.P,J4,1,Pin_1*%
%TO.N,+24V*%
X176530000Y-35560000D03*
D11*
%TO.P,J4,2,Pin_2*%
X171450000Y-35560000D03*
%TD*%
D12*
%TO.P,TP7,1,1*%
%TO.N,Net-(D3-K)*%
X130556000Y-68326000D03*
%TD*%
D13*
%TO.P,D8,1,K*%
%TO.N,Net-(D8-K)*%
X139700000Y-86360000D03*
D14*
%TO.P,D8,2,A*%
%TO.N,GND*%
X139700000Y-73660000D03*
%TD*%
D15*
%TO.P,D11,1,K*%
%TO.N,Net-(D10-A)*%
X196850000Y-92075000D03*
D16*
%TO.P,D11,2,A*%
%TO.N,GNDPWR*%
X196850000Y-71755000D03*
%TD*%
D17*
%TO.P,R7,1*%
%TO.N,/Relay_M2.2*%
X120015000Y-92075000D03*
D18*
%TO.P,R7,2*%
%TO.N,+12V*%
X130175000Y-92075000D03*
%TD*%
D15*
%TO.P,D7,1,K*%
%TO.N,Net-(D4-A)*%
X196850000Y-66675000D03*
D16*
%TO.P,D7,2,A*%
%TO.N,GNDPWR*%
X196850000Y-46355000D03*
%TD*%
D12*
%TO.P,TP9,1,1*%
%TO.N,Net-(D8-K)*%
X130429000Y-85090000D03*
%TD*%
D19*
%TO.P,Q2,1,C*%
%TO.N,Net-(D8-K)*%
X134980000Y-81915000D03*
D20*
%TO.P,Q2,2,B*%
%TO.N,Net-(Q2-B)*%
X134980000Y-79375000D03*
%TO.P,Q2,3,E*%
%TO.N,+12V*%
X134980000Y-76835000D03*
%TD*%
D15*
%TO.P,D6,1,K*%
%TO.N,Net-(D5-A)*%
X191135000Y-61595000D03*
D16*
%TO.P,D6,2,A*%
%TO.N,GNDPWR*%
X191135000Y-41275000D03*
%TD*%
D15*
%TO.P,D12,1,K*%
%TO.N,+24V*%
X179705000Y-76835000D03*
D16*
%TO.P,D12,2,A*%
%TO.N,Net-(D12-A)*%
X179705000Y-97155000D03*
%TD*%
D19*
%TO.P,Q3,1,C*%
%TO.N,Net-(D3-K)*%
X134980000Y-65405000D03*
D20*
%TO.P,Q3,2,B*%
%TO.N,Net-(Q3-B)*%
X134980000Y-62865000D03*
%TO.P,Q3,3,E*%
%TO.N,+12V*%
X134980000Y-60325000D03*
%TD*%
D12*
%TO.P,TP8,1,1*%
%TO.N,Net-(D1-K)*%
X130429000Y-51689000D03*
%TD*%
D21*
%TO.P,K1,11*%
%TO.N,Net-(D5-A)*%
X166350000Y-43300000D03*
X166350000Y-50800000D03*
%TO.P,K1,12*%
%TO.N,GNDPWR*%
X161310000Y-43300000D03*
X161310000Y-50800000D03*
%TO.P,K1,14*%
%TO.N,+24V*%
X171390000Y-43300000D03*
X171390000Y-50800000D03*
D22*
%TO.P,K1,A1*%
%TO.N,Net-(D1-K)*%
X146050000Y-50800000D03*
D23*
%TO.P,K1,A2*%
%TO.N,GND*%
X146050000Y-43300000D03*
%TD*%
D12*
%TO.P,TP6,1,1*%
%TO.N,+12V*%
X124079000Y-35306000D03*
%TD*%
D10*
%TO.P,J7,1,Pin_1*%
%TO.N,Net-(D12-A)*%
X203835000Y-88265000D03*
D11*
%TO.P,J7,2,Pin_2*%
%TO.N,Net-(D10-A)*%
X203835000Y-83185000D03*
%TD*%
D12*
%TO.P,TP10,1,1*%
%TO.N,Net-(D9-K)*%
X129794000Y-101473000D03*
%TD*%
D24*
%TO.P,J3,1,Pin_1*%
%TO.N,/Relay_M2.2*%
X117475000Y-73025000D03*
D25*
%TO.P,J3,2,Pin_2*%
%TO.N,/Relay_M2.1*%
X117475000Y-70485000D03*
%TO.P,J3,3,Pin_3*%
%TO.N,/Relay_M1.2*%
X117475000Y-67945000D03*
%TO.P,J3,4,Pin_4*%
%TO.N,/Relay_M1.1*%
X117475000Y-65405000D03*
%TD*%
D21*
%TO.P,K4,11*%
%TO.N,Net-(D12-A)*%
X166348000Y-92830000D03*
X166348000Y-100330000D03*
%TO.P,K4,12*%
%TO.N,GNDPWR*%
X161308000Y-92830000D03*
X161308000Y-100330000D03*
%TO.P,K4,14*%
%TO.N,+24V*%
X171388000Y-92830000D03*
X171388000Y-100330000D03*
D22*
%TO.P,K4,A1*%
%TO.N,Net-(D9-K)*%
X146048000Y-100330000D03*
D23*
%TO.P,K4,A2*%
%TO.N,GND*%
X146048000Y-92830000D03*
%TD*%
D13*
%TO.P,D1,1,K*%
%TO.N,Net-(D1-K)*%
X139700000Y-53340000D03*
D14*
%TO.P,D1,2,A*%
%TO.N,GND*%
X139700000Y-40640000D03*
%TD*%
D10*
%TO.P,J1,1,Pin_1*%
%TO.N,Net-(D4-A)*%
X203835000Y-62230000D03*
D11*
%TO.P,J1,2,Pin_2*%
%TO.N,Net-(D5-A)*%
X203835000Y-57150000D03*
%TD*%
D17*
%TO.P,R2,1*%
%TO.N,/Relay_M1.1*%
X119655000Y-46355000D03*
D18*
%TO.P,R2,2*%
%TO.N,Net-(Q1-B)*%
X129815000Y-46355000D03*
%TD*%
D19*
%TO.P,TP4,1,1*%
%TO.N,GNDPWR*%
X150622000Y-35560000D03*
%TD*%
%TO.P,Q1,1,C*%
%TO.N,Net-(D1-K)*%
X134980000Y-48895000D03*
D20*
%TO.P,Q1,2,B*%
%TO.N,Net-(Q1-B)*%
X134980000Y-46355000D03*
%TO.P,Q1,3,E*%
%TO.N,+12V*%
X134980000Y-43815000D03*
%TD*%
D15*
%TO.P,D5,1,K*%
%TO.N,+24V*%
X179705000Y-41275000D03*
D16*
%TO.P,D5,2,A*%
%TO.N,Net-(D5-A)*%
X179705000Y-61595000D03*
%TD*%
D12*
%TO.P,TP11,1,1*%
%TO.N,Net-(D10-A)*%
X204216000Y-77470000D03*
%TD*%
D15*
%TO.P,J2,1,Pin_1*%
%TO.N,/Relay_M1.1*%
X111225000Y-63965000D03*
D26*
%TO.P,J2,2,Pin_2*%
%TO.N,/Relay_M1.2*%
X111225000Y-67465000D03*
%TO.P,J2,3,Pin_3*%
%TO.N,/Relay_M2.1*%
X111225000Y-70965000D03*
%TO.P,J2,4,Pin_4*%
%TO.N,/Relay_M2.2*%
X111225000Y-74465000D03*
%TD*%
D13*
%TO.P,D3,1,K*%
%TO.N,Net-(D3-K)*%
X139700000Y-69850000D03*
D14*
%TO.P,D3,2,A*%
%TO.N,GND*%
X139700000Y-57150000D03*
%TD*%
D19*
%TO.P,Q4,1,C*%
%TO.N,Net-(D9-K)*%
X134980000Y-98425000D03*
D20*
%TO.P,Q4,2,B*%
%TO.N,Net-(Q4-B)*%
X134980000Y-95885000D03*
%TO.P,Q4,3,E*%
%TO.N,+12V*%
X134980000Y-93345000D03*
%TD*%
D21*
%TO.P,K2,11*%
%TO.N,Net-(D4-A)*%
X166348000Y-59810000D03*
X166348000Y-67310000D03*
%TO.P,K2,12*%
%TO.N,GNDPWR*%
X161308000Y-59810000D03*
X161308000Y-67310000D03*
%TO.P,K2,14*%
%TO.N,+24V*%
X171388000Y-59810000D03*
X171388000Y-67310000D03*
D22*
%TO.P,K2,A1*%
%TO.N,Net-(D3-K)*%
X146048000Y-67310000D03*
D23*
%TO.P,K2,A2*%
%TO.N,GND*%
X146048000Y-59810000D03*
%TD*%
D15*
%TO.P,D13,1,K*%
%TO.N,Net-(D12-A)*%
X191135000Y-97155000D03*
D16*
%TO.P,D13,2,A*%
%TO.N,GNDPWR*%
X191135000Y-76835000D03*
%TD*%
D13*
%TO.P,D9,1,K*%
%TO.N,Net-(D9-K)*%
X139700000Y-102870000D03*
D14*
%TO.P,D9,2,A*%
%TO.N,GND*%
X139700000Y-90170000D03*
%TD*%
D21*
%TO.P,K3,11*%
%TO.N,Net-(D10-A)*%
X166350000Y-76320000D03*
X166350000Y-83820000D03*
%TO.P,K3,12*%
%TO.N,GNDPWR*%
X161310000Y-76320000D03*
X161310000Y-83820000D03*
%TO.P,K3,14*%
%TO.N,+24V*%
X171390000Y-76320000D03*
X171390000Y-83820000D03*
D22*
%TO.P,K3,A1*%
%TO.N,Net-(D8-K)*%
X146050000Y-83820000D03*
D23*
%TO.P,K3,A2*%
%TO.N,GND*%
X146050000Y-76320000D03*
%TD*%
D17*
%TO.P,R5,1*%
%TO.N,/Relay_M1.2*%
X120015000Y-59309000D03*
D18*
%TO.P,R5,2*%
%TO.N,+12V*%
X130175000Y-59309000D03*
%TD*%
D15*
%TO.P,D4,1,K*%
%TO.N,+24V*%
X185420000Y-46355000D03*
D16*
%TO.P,D4,2,A*%
%TO.N,Net-(D4-A)*%
X185420000Y-66675000D03*
%TD*%
D17*
%TO.P,R4,1*%
%TO.N,/Relay_M1.2*%
X120015000Y-62865000D03*
D18*
%TO.P,R4,2*%
%TO.N,Net-(Q3-B)*%
X130175000Y-62865000D03*
%TD*%
D10*
%TO.P,J6,1,Pin_1*%
%TO.N,GND*%
X134874000Y-35560000D03*
D11*
%TO.P,J6,2,Pin_2*%
%TO.N,+12V*%
X129794000Y-35560000D03*
%TD*%
D12*
%TO.P,TP1,1,1*%
%TO.N,Net-(D5-A)*%
X204089000Y-50927000D03*
%TD*%
%TO.P,TP3,1,1*%
%TO.N,+24V*%
X182245000Y-35560000D03*
%TD*%
D17*
%TO.P,R3,1*%
%TO.N,/Relay_M1.1*%
X119655000Y-42545000D03*
D18*
%TO.P,R3,2*%
%TO.N,+12V*%
X129815000Y-42545000D03*
%TD*%
D12*
%TO.P,TP12,1,1*%
%TO.N,Net-(D12-A)*%
X204216000Y-94234000D03*
%TD*%
D15*
%TO.P,D10,1,K*%
%TO.N,+24V*%
X185420000Y-71755000D03*
D16*
%TO.P,D10,2,A*%
%TO.N,Net-(D10-A)*%
X185420000Y-92075000D03*
%TD*%
D17*
%TO.P,R6,1*%
%TO.N,/Relay_M2.1*%
X120015000Y-75565000D03*
D18*
%TO.P,R6,2*%
%TO.N,+12V*%
X130175000Y-75565000D03*
%TD*%
D10*
%TO.P,J5,1,Pin_1*%
%TO.N,GNDPWR*%
X161290000Y-35560000D03*
D11*
%TO.P,J5,2,Pin_2*%
X156210000Y-35560000D03*
%TD*%
D17*
%TO.P,R9,1*%
%TO.N,/Relay_M2.2*%
X120015000Y-95885000D03*
D18*
%TO.P,R9,2*%
%TO.N,Net-(Q4-B)*%
X130175000Y-95885000D03*
%TD*%
D17*
%TO.P,R8,1*%
%TO.N,/Relay_M2.1*%
X120015000Y-79375000D03*
D18*
%TO.P,R8,2*%
%TO.N,Net-(Q2-B)*%
X130175000Y-79375000D03*
%TD*%
D12*
%TO.P,TP2,1,1*%
%TO.N,Net-(D4-A)*%
X204089000Y-68199000D03*
%TD*%
D19*
%TO.P,TP5,1,1*%
%TO.N,GND*%
X140208000Y-35560000D03*
%TD*%
D27*
%TO.N,Net-(D4-A)*%
X166370000Y-71755000D03*
X175590000Y-71755000D03*
%TO.N,Net-(D5-A)*%
X166370000Y-55245000D03*
X175590000Y-55245000D03*
%TO.N,Net-(D10-A)*%
X166370000Y-88265000D03*
X175590000Y-88265000D03*
%TD*%
D28*
%TO.N,Net-(D1-K)*%
X146050000Y-50800000D02*
X142240000Y-50800000D01*
X139700000Y-53340000D02*
X136652000Y-53340000D01*
D29*
X134959000Y-51689000D02*
X134980000Y-51668000D01*
D28*
X134980000Y-51668000D02*
X134980000Y-48895000D01*
X136652000Y-53340000D02*
X134980000Y-51668000D01*
X142240000Y-50800000D02*
X139700000Y-53340000D01*
D29*
X130429000Y-51689000D02*
X134959000Y-51689000D01*
D28*
%TO.N,Net-(D3-K)*%
X136525000Y-69850000D02*
X139700000Y-69850000D01*
X134980000Y-68305000D02*
X136525000Y-69850000D01*
D29*
X130556000Y-68326000D02*
X134959000Y-68326000D01*
D28*
X142240000Y-67310000D02*
X146048000Y-67310000D01*
D29*
X134959000Y-68326000D02*
X134980000Y-68305000D01*
D28*
X139700000Y-69850000D02*
X142240000Y-67310000D01*
X134980000Y-65405000D02*
X134980000Y-68305000D01*
D30*
%TO.N,+24V*%
X179705000Y-76835000D02*
X180340000Y-76835000D01*
X179705000Y-41275000D02*
X171450000Y-41275000D01*
X171450000Y-43240000D02*
X171390000Y-43300000D01*
D29*
X176530000Y-35560000D02*
X182245000Y-35560000D01*
D30*
X171450000Y-35560000D02*
X171450000Y-41275000D01*
X171450000Y-41275000D02*
X171450000Y-43240000D01*
X180340000Y-41275000D02*
X185420000Y-46355000D01*
X171390000Y-100328000D02*
X171388000Y-100330000D01*
X171905000Y-76835000D02*
X171390000Y-76320000D01*
X180340000Y-76835000D02*
X185420000Y-71755000D01*
X179705000Y-41275000D02*
X180340000Y-41275000D01*
X171450000Y-35560000D02*
X176530000Y-35560000D01*
X171390000Y-43300000D02*
X171390000Y-100328000D01*
X179705000Y-76835000D02*
X171905000Y-76835000D01*
%TO.N,Net-(D4-A)*%
X166348000Y-59810000D02*
X166348000Y-67310000D01*
X175590000Y-71755000D02*
X180670000Y-66675000D01*
X185420000Y-66675000D02*
X196850000Y-66675000D01*
X196850000Y-66675000D02*
X199390000Y-66675000D01*
D29*
X204089000Y-68199000D02*
X201295000Y-65405000D01*
X201295000Y-65405000D02*
X200660000Y-65405000D01*
D30*
X199390000Y-66675000D02*
X200660000Y-65405000D01*
X200660000Y-65405000D02*
X203835000Y-62230000D01*
X180670000Y-66675000D02*
X185420000Y-66675000D01*
X166348000Y-67310000D02*
X166348000Y-71733000D01*
X166348000Y-71733000D02*
X166370000Y-71755000D01*
%TO.N,Net-(D5-A)*%
X166350000Y-55225000D02*
X166370000Y-55245000D01*
D29*
X204089000Y-56896000D02*
X203835000Y-57150000D01*
D30*
X175590000Y-55245000D02*
X179705000Y-59360000D01*
X195580000Y-61595000D02*
X200025000Y-57150000D01*
X179705000Y-59360000D02*
X179705000Y-61595000D01*
X200025000Y-57150000D02*
X203835000Y-57150000D01*
D29*
X204089000Y-50927000D02*
X204089000Y-56896000D01*
D30*
X179705000Y-61595000D02*
X191135000Y-61595000D01*
X166350000Y-50800000D02*
X166350000Y-55225000D01*
X191135000Y-61595000D02*
X195580000Y-61595000D01*
X166350000Y-43300000D02*
X166350000Y-50800000D01*
D28*
%TO.N,Net-(D8-K)*%
X139700000Y-86360000D02*
X143510000Y-86360000D01*
X143510000Y-86360000D02*
X146050000Y-83820000D01*
X134980000Y-85069000D02*
X136271000Y-86360000D01*
X134980000Y-81915000D02*
X134980000Y-85069000D01*
D29*
X130429000Y-85090000D02*
X134959000Y-85090000D01*
D28*
X136271000Y-86360000D02*
X139700000Y-86360000D01*
D29*
X134959000Y-85090000D02*
X134980000Y-85069000D01*
%TO.N,Net-(D9-K)*%
X134959000Y-101473000D02*
X134980000Y-101452000D01*
D28*
X134980000Y-101452000D02*
X136398000Y-102870000D01*
X134980000Y-98425000D02*
X134980000Y-101452000D01*
X139700000Y-102870000D02*
X143508000Y-102870000D01*
X136398000Y-102870000D02*
X139700000Y-102870000D01*
X143508000Y-102870000D02*
X146048000Y-100330000D01*
D29*
X129794000Y-101473000D02*
X134959000Y-101473000D01*
%TO.N,Net-(D10-A)*%
X204216000Y-82804000D02*
X203835000Y-83185000D01*
D30*
X166350000Y-76320000D02*
X166350000Y-83820000D01*
X175590000Y-88265000D02*
X179400000Y-92075000D01*
X185420000Y-92075000D02*
X196850000Y-92075000D01*
X196850000Y-92075000D02*
X196850000Y-87850000D01*
D29*
X204216000Y-77470000D02*
X204216000Y-82804000D01*
D30*
X166350000Y-88245000D02*
X166370000Y-88265000D01*
X196850000Y-87850000D02*
X201515000Y-83185000D01*
X179400000Y-92075000D02*
X185420000Y-92075000D01*
X166350000Y-83820000D02*
X166350000Y-88245000D01*
X201515000Y-83185000D02*
X203835000Y-83185000D01*
%TO.N,Net-(D12-A)*%
X191135000Y-97155000D02*
X198120000Y-97155000D01*
X179705000Y-99695000D02*
X179705000Y-97155000D01*
X174625000Y-104775000D02*
X179705000Y-99695000D01*
X169893304Y-104775000D02*
X174625000Y-104775000D01*
X179705000Y-97155000D02*
X191135000Y-97155000D01*
X202247500Y-93027500D02*
X203835000Y-91440000D01*
X198120000Y-97155000D02*
X202247500Y-93027500D01*
X166348000Y-101229696D02*
X169893304Y-104775000D01*
D29*
X203009500Y-93027500D02*
X202247500Y-93027500D01*
D30*
X166348000Y-92830000D02*
X166348000Y-100330000D01*
X203835000Y-91440000D02*
X203835000Y-88265000D01*
X166348000Y-100330000D02*
X166348000Y-101229696D01*
D29*
X204216000Y-94234000D02*
X203009500Y-93027500D01*
%TO.N,/Relay_M1.1*%
X119655000Y-46355000D02*
X117475000Y-48535000D01*
X114384000Y-63965000D02*
X111225000Y-63965000D01*
X115824000Y-65405000D02*
X114384000Y-63965000D01*
X117475000Y-48535000D02*
X117475000Y-65405000D01*
X119655000Y-42545000D02*
X119655000Y-46355000D01*
X117475000Y-65405000D02*
X115824000Y-65405000D01*
%TO.N,/Relay_M2.1*%
X114582000Y-70965000D02*
X111225000Y-70965000D01*
X120015000Y-79375000D02*
X120015000Y-75565000D01*
X120015000Y-75565000D02*
X120015000Y-71822919D01*
X120015000Y-71822919D02*
X118677081Y-70485000D01*
X118677081Y-70485000D02*
X117475000Y-70485000D01*
X115062000Y-70485000D02*
X114582000Y-70965000D01*
X117475000Y-70485000D02*
X115062000Y-70485000D01*
%TO.N,/Relay_M1.2*%
X117475000Y-67945000D02*
X114808000Y-67945000D01*
X120015000Y-59309000D02*
X120015000Y-62865000D01*
X120015000Y-67183000D02*
X119253000Y-67945000D01*
X119253000Y-67945000D02*
X117475000Y-67945000D01*
X120015000Y-62865000D02*
X120015000Y-67183000D01*
X114328000Y-67465000D02*
X111225000Y-67465000D01*
X114808000Y-67945000D02*
X114328000Y-67465000D01*
%TO.N,/Relay_M2.2*%
X117475000Y-73025000D02*
X116205000Y-73025000D01*
X120015000Y-92075000D02*
X120015000Y-91694000D01*
X120015000Y-91694000D02*
X117475000Y-89154000D01*
X120015000Y-95885000D02*
X120015000Y-92075000D01*
X116205000Y-73025000D02*
X114765000Y-74465000D01*
X117475000Y-89154000D02*
X117475000Y-73025000D01*
X114765000Y-74465000D02*
X111225000Y-74465000D01*
D28*
%TO.N,+12V*%
X130175000Y-92075000D02*
X127030000Y-88930000D01*
X133710000Y-75565000D02*
X130175000Y-75565000D01*
X127030000Y-88930000D02*
X127030000Y-75565000D01*
D29*
X126238000Y-35306000D02*
X128143000Y-37211000D01*
D28*
X127030000Y-38324000D02*
X127030000Y-42926000D01*
X128143000Y-37211000D02*
X127030000Y-38324000D01*
X127411000Y-42545000D02*
X127030000Y-42926000D01*
D29*
X124079000Y-35306000D02*
X126238000Y-35306000D01*
D28*
X133710000Y-42545000D02*
X129815000Y-42545000D01*
X130175000Y-59309000D02*
X127030000Y-59309000D01*
X129815000Y-42545000D02*
X127411000Y-42545000D01*
X134980000Y-93345000D02*
X133710000Y-92075000D01*
X127030000Y-75565000D02*
X127030000Y-59309000D01*
X133710000Y-92075000D02*
X130175000Y-92075000D01*
X134980000Y-76835000D02*
X133710000Y-75565000D01*
X129794000Y-35560000D02*
X128143000Y-37211000D01*
X127030000Y-59309000D02*
X127030000Y-42926000D01*
X134980000Y-60325000D02*
X133964000Y-59309000D01*
D29*
X129540000Y-35306000D02*
X129794000Y-35560000D01*
D28*
X134980000Y-43815000D02*
X133710000Y-42545000D01*
X133964000Y-59309000D02*
X130175000Y-59309000D01*
X130175000Y-75565000D02*
X127030000Y-75565000D01*
D29*
%TO.N,Net-(Q1-B)*%
X129815000Y-46355000D02*
X134980000Y-46355000D01*
%TO.N,Net-(Q2-B)*%
X130175000Y-79375000D02*
X134980000Y-79375000D01*
%TO.N,Net-(Q3-B)*%
X130175000Y-62865000D02*
X134980000Y-62865000D01*
%TO.N,Net-(Q4-B)*%
X130175000Y-95885000D02*
X134980000Y-95885000D01*
%TD*%
%TA.AperFunction,Conductor*%
%TO.N,GND*%
G36*
X143397343Y-29095207D02*
G01*
X143466584Y-29150426D01*
X143505011Y-29230218D01*
X143510000Y-29274500D01*
X143510000Y-38735000D01*
X154199111Y-44393941D01*
X154266198Y-44451756D01*
X154301557Y-44532955D01*
X154305000Y-44569814D01*
X154305000Y-106615500D01*
X154285293Y-106701843D01*
X154230074Y-106771084D01*
X154150282Y-106809511D01*
X154106000Y-106814500D01*
X108014500Y-106814500D01*
X107928157Y-106794793D01*
X107858916Y-106739574D01*
X107820489Y-106659782D01*
X107815500Y-106615500D01*
X107815500Y-101437111D01*
X110129500Y-101437111D01*
X110129500Y-101762889D01*
X110131150Y-101777534D01*
X110165975Y-102086613D01*
X110238468Y-102404228D01*
X110238469Y-102404231D01*
X110346059Y-102711707D01*
X110346066Y-102711724D01*
X110487418Y-103005243D01*
X110660733Y-103281073D01*
X110660738Y-103281081D01*
X110863856Y-103535782D01*
X111094217Y-103766143D01*
X111348918Y-103969261D01*
X111348926Y-103969266D01*
X111624756Y-104142581D01*
X111624758Y-104142582D01*
X111624763Y-104142585D01*
X111918278Y-104283935D01*
X112225773Y-104391532D01*
X112543383Y-104464024D01*
X112867111Y-104500500D01*
X112867112Y-104500500D01*
X113192888Y-104500500D01*
X113192889Y-104500500D01*
X113516617Y-104464024D01*
X113834227Y-104391532D01*
X114141722Y-104283935D01*
X114435237Y-104142585D01*
X114711081Y-103969261D01*
X114965783Y-103766143D01*
X115196143Y-103535783D01*
X115399261Y-103281081D01*
X115572585Y-103005237D01*
X115713935Y-102711722D01*
X115821532Y-102404227D01*
X115894024Y-102086617D01*
X115930500Y-101762889D01*
X115930500Y-101437111D01*
X115894024Y-101113383D01*
X115821532Y-100795773D01*
X115713935Y-100488278D01*
X115572585Y-100194763D01*
X115572581Y-100194756D01*
X115399266Y-99918926D01*
X115399261Y-99918918D01*
X115196143Y-99664217D01*
X114965782Y-99433856D01*
X114711081Y-99230738D01*
X114711073Y-99230733D01*
X114435243Y-99057418D01*
X114141724Y-98916066D01*
X114141707Y-98916059D01*
X113834231Y-98808469D01*
X113834228Y-98808468D01*
X113516613Y-98735975D01*
X113247989Y-98705708D01*
X113192889Y-98699500D01*
X112867111Y-98699500D01*
X112820025Y-98704805D01*
X112543386Y-98735975D01*
X112225771Y-98808468D01*
X112225768Y-98808469D01*
X111918292Y-98916059D01*
X111918275Y-98916066D01*
X111624756Y-99057418D01*
X111348926Y-99230733D01*
X111348918Y-99230738D01*
X111094217Y-99433856D01*
X110863856Y-99664217D01*
X110660738Y-99918918D01*
X110660733Y-99918926D01*
X110487418Y-100194756D01*
X110346066Y-100488275D01*
X110346059Y-100488292D01*
X110238469Y-100795768D01*
X110238468Y-100795771D01*
X110165975Y-101113386D01*
X110134805Y-101390025D01*
X110129500Y-101437111D01*
X107815500Y-101437111D01*
X107815500Y-67465000D01*
X109219390Y-67465000D01*
X109239803Y-67750427D01*
X109300631Y-68030048D01*
X109400633Y-68298161D01*
X109537771Y-68549311D01*
X109537774Y-68549315D01*
X109709261Y-68778395D01*
X109709265Y-68778399D01*
X109709268Y-68778403D01*
X109911600Y-68980735D01*
X110011731Y-69055693D01*
X110069042Y-69123213D01*
X110091381Y-69208913D01*
X110074324Y-69295818D01*
X110021250Y-69366716D01*
X110011731Y-69374307D01*
X109911600Y-69449264D01*
X109709268Y-69651596D01*
X109709262Y-69651603D01*
X109709261Y-69651605D01*
X109703059Y-69659890D01*
X109537771Y-69880688D01*
X109400633Y-70131838D01*
X109300631Y-70399951D01*
X109239803Y-70679572D01*
X109219390Y-70965000D01*
X109239803Y-71250427D01*
X109300631Y-71530048D01*
X109400633Y-71798161D01*
X109537771Y-72049311D01*
X109537774Y-72049315D01*
X109709261Y-72278395D01*
X109709265Y-72278399D01*
X109709268Y-72278403D01*
X109911600Y-72480735D01*
X110011731Y-72555693D01*
X110069042Y-72623213D01*
X110091381Y-72708913D01*
X110074324Y-72795818D01*
X110021250Y-72866716D01*
X110011731Y-72874307D01*
X109911600Y-72949264D01*
X109709268Y-73151596D01*
X109709262Y-73151603D01*
X109709261Y-73151605D01*
X109699608Y-73164500D01*
X109537771Y-73380688D01*
X109400633Y-73631838D01*
X109300631Y-73899951D01*
X109239803Y-74179572D01*
X109219390Y-74465000D01*
X109239803Y-74750427D01*
X109300631Y-75030048D01*
X109400633Y-75298161D01*
X109537771Y-75549311D01*
X109537774Y-75549315D01*
X109709261Y-75778395D01*
X109709265Y-75778399D01*
X109709268Y-75778403D01*
X109911596Y-75980731D01*
X109911599Y-75980733D01*
X109911605Y-75980739D01*
X110111532Y-76130402D01*
X110140688Y-76152228D01*
X110252088Y-76213057D01*
X110391839Y-76289367D01*
X110659954Y-76389369D01*
X110939572Y-76450196D01*
X110939571Y-76450196D01*
X110958622Y-76451558D01*
X111225000Y-76470610D01*
X111510428Y-76450196D01*
X111790046Y-76389369D01*
X112058161Y-76289367D01*
X112309315Y-76152226D01*
X112538395Y-75980739D01*
X112695349Y-75823784D01*
X112770336Y-75776667D01*
X112836062Y-75765500D01*
X114867351Y-75765500D01*
X114867352Y-75765500D01*
X115069535Y-75733477D01*
X115174421Y-75699397D01*
X115264219Y-75670220D01*
X115355414Y-75623753D01*
X115446611Y-75577287D01*
X115612219Y-75456966D01*
X115834786Y-75234397D01*
X115909774Y-75187280D01*
X115997780Y-75177364D01*
X116081374Y-75206615D01*
X116143998Y-75269238D01*
X116173249Y-75352832D01*
X116174500Y-75375113D01*
X116174500Y-89256352D01*
X116185578Y-89326295D01*
X116206522Y-89458529D01*
X116206523Y-89458536D01*
X116269778Y-89653213D01*
X116269782Y-89653224D01*
X116316246Y-89744414D01*
X116316247Y-89744415D01*
X116362712Y-89835610D01*
X116483036Y-90001222D01*
X118355424Y-91873609D01*
X118402543Y-91948597D01*
X118413097Y-92029932D01*
X118409551Y-92074996D01*
X118409551Y-92075000D01*
X118429317Y-92326148D01*
X118488127Y-92571111D01*
X118488128Y-92571114D01*
X118488129Y-92571117D01*
X118584532Y-92803857D01*
X118685175Y-92968089D01*
X118713486Y-93052005D01*
X118714500Y-93072067D01*
X118714500Y-94887932D01*
X118694793Y-94974275D01*
X118685175Y-94991910D01*
X118584535Y-95156137D01*
X118584535Y-95156138D01*
X118488128Y-95388885D01*
X118488127Y-95388888D01*
X118488127Y-95388889D01*
X118429317Y-95633852D01*
X118409551Y-95885000D01*
X118429317Y-96136148D01*
X118488127Y-96381111D01*
X118575102Y-96591089D01*
X118584535Y-96613861D01*
X118584535Y-96613862D01*
X118716165Y-96828661D01*
X118879775Y-97020224D01*
X119071338Y-97183834D01*
X119071340Y-97183835D01*
X119071341Y-97183836D01*
X119286141Y-97315466D01*
X119518889Y-97411873D01*
X119763852Y-97470683D01*
X120015000Y-97490449D01*
X120266148Y-97470683D01*
X120511111Y-97411873D01*
X120743859Y-97315466D01*
X120958659Y-97183836D01*
X121150224Y-97020224D01*
X121313836Y-96828659D01*
X121445466Y-96613859D01*
X121541873Y-96381111D01*
X121600683Y-96136148D01*
X121620449Y-95885000D01*
X121600683Y-95633852D01*
X121541873Y-95388889D01*
X121445466Y-95156141D01*
X121344824Y-94991909D01*
X121316514Y-94907993D01*
X121315500Y-94887932D01*
X121315500Y-93072067D01*
X121335207Y-92985724D01*
X121344825Y-92968089D01*
X121359521Y-92944108D01*
X121445466Y-92803859D01*
X121541873Y-92571111D01*
X121600683Y-92326148D01*
X121620449Y-92075000D01*
X121600683Y-91823852D01*
X121541873Y-91578889D01*
X121445466Y-91346141D01*
X121313836Y-91131341D01*
X121313835Y-91131340D01*
X121313834Y-91131338D01*
X121150224Y-90939775D01*
X121037030Y-90843099D01*
X120958659Y-90776164D01*
X120958655Y-90776161D01*
X120958653Y-90776160D01*
X120921118Y-90753158D01*
X120884383Y-90724198D01*
X118833786Y-88673601D01*
X118786667Y-88598613D01*
X118775500Y-88532887D01*
X118775500Y-80847884D01*
X118795207Y-80761541D01*
X118850426Y-80692300D01*
X118930218Y-80653873D01*
X119018782Y-80653873D01*
X119078475Y-80678207D01*
X119286141Y-80805466D01*
X119518889Y-80901873D01*
X119763852Y-80960683D01*
X120015000Y-80980449D01*
X120266148Y-80960683D01*
X120511111Y-80901873D01*
X120743859Y-80805466D01*
X120958659Y-80673836D01*
X121150224Y-80510224D01*
X121313836Y-80318659D01*
X121445466Y-80103859D01*
X121541873Y-79871111D01*
X121600683Y-79626148D01*
X121620449Y-79375000D01*
X121600683Y-79123852D01*
X121541873Y-78878889D01*
X121445466Y-78646141D01*
X121344824Y-78481909D01*
X121316514Y-78397993D01*
X121315500Y-78377932D01*
X121315500Y-76562067D01*
X121335207Y-76475724D01*
X121344825Y-76458089D01*
X121386937Y-76389369D01*
X121445466Y-76293859D01*
X121541873Y-76061111D01*
X121600683Y-75816148D01*
X121620449Y-75565000D01*
X121600683Y-75313852D01*
X121541873Y-75068889D01*
X121445466Y-74836141D01*
X121392940Y-74750427D01*
X121344825Y-74671910D01*
X121316514Y-74587993D01*
X121315500Y-74567932D01*
X121315500Y-71720568D01*
X121295974Y-71597287D01*
X121295974Y-71597286D01*
X121289845Y-71558590D01*
X121283477Y-71518384D01*
X121222988Y-71332219D01*
X121220220Y-71323700D01*
X121140179Y-71166610D01*
X121140177Y-71166606D01*
X121127290Y-71141312D01*
X121006963Y-70975696D01*
X119551076Y-69519809D01*
X119503957Y-69444821D01*
X119494041Y-69356814D01*
X119523292Y-69273221D01*
X119585916Y-69210597D01*
X119630290Y-69189837D01*
X119681435Y-69173219D01*
X119752219Y-69150220D01*
X119859872Y-69095368D01*
X119934611Y-69057287D01*
X120100219Y-68936966D01*
X120850879Y-68186303D01*
X120850886Y-68186298D01*
X120862217Y-68174967D01*
X120862219Y-68174966D01*
X121006966Y-68030219D01*
X121127287Y-67864610D01*
X121149923Y-67820184D01*
X121220221Y-67682218D01*
X121283477Y-67487534D01*
X121310666Y-67315870D01*
X121315500Y-67285352D01*
X121315500Y-63862067D01*
X121335207Y-63775724D01*
X121344825Y-63758089D01*
X121445466Y-63593859D01*
X121454899Y-63571087D01*
X121510900Y-63435886D01*
X121541873Y-63361111D01*
X121600683Y-63116148D01*
X121620449Y-62865000D01*
X121600683Y-62613852D01*
X121541873Y-62368889D01*
X121445466Y-62136141D01*
X121444881Y-62135187D01*
X121344825Y-61971910D01*
X121316514Y-61887993D01*
X121315500Y-61867932D01*
X121315500Y-60306067D01*
X121335207Y-60219724D01*
X121344825Y-60202089D01*
X121370617Y-60160000D01*
X121445466Y-60037859D01*
X121541873Y-59805111D01*
X121600683Y-59560148D01*
X121620449Y-59309000D01*
X121600683Y-59057852D01*
X121541873Y-58812889D01*
X121445466Y-58580141D01*
X121391542Y-58492146D01*
X121313834Y-58365338D01*
X121150224Y-58173775D01*
X120958661Y-58010165D01*
X120743861Y-57878535D01*
X120674971Y-57850000D01*
X120610027Y-57823099D01*
X120511114Y-57782128D01*
X120511112Y-57782127D01*
X120511111Y-57782127D01*
X120379279Y-57750477D01*
X120266149Y-57723317D01*
X120015000Y-57703551D01*
X119763850Y-57723317D01*
X119518885Y-57782128D01*
X119286138Y-57878535D01*
X119286131Y-57878538D01*
X119078477Y-58005790D01*
X118994561Y-58034101D01*
X118906671Y-58023199D01*
X118832216Y-57975242D01*
X118785942Y-57899729D01*
X118775500Y-57836115D01*
X118775500Y-49156111D01*
X118795207Y-49069768D01*
X118833783Y-49015400D01*
X119869559Y-47979623D01*
X119944545Y-47932506D01*
X119963808Y-47926839D01*
X120151111Y-47881873D01*
X120383859Y-47785466D01*
X120598659Y-47653836D01*
X120790224Y-47490224D01*
X120953836Y-47298659D01*
X121085466Y-47083859D01*
X121181873Y-46851111D01*
X121240683Y-46606148D01*
X121260449Y-46355000D01*
X121240683Y-46103852D01*
X121181873Y-45858889D01*
X121085466Y-45626141D01*
X120984824Y-45461909D01*
X120956514Y-45377993D01*
X120955500Y-45357932D01*
X120955500Y-43542067D01*
X120975207Y-43455724D01*
X120984825Y-43438089D01*
X120999521Y-43414108D01*
X121085466Y-43273859D01*
X121181873Y-43041111D01*
X121240683Y-42796148D01*
X121260449Y-42545000D01*
X121240683Y-42293852D01*
X121181873Y-42048889D01*
X121085466Y-41816141D01*
X120953836Y-41601341D01*
X120953835Y-41601340D01*
X120953834Y-41601338D01*
X120790224Y-41409775D01*
X120598661Y-41246165D01*
X120383861Y-41114535D01*
X120151114Y-41018128D01*
X120151112Y-41018127D01*
X120151111Y-41018127D01*
X120019279Y-40986477D01*
X119906149Y-40959317D01*
X119655000Y-40939551D01*
X119403850Y-40959317D01*
X119158885Y-41018128D01*
X118926138Y-41114535D01*
X118926137Y-41114535D01*
X118711338Y-41246165D01*
X118519775Y-41409775D01*
X118356165Y-41601338D01*
X118224535Y-41816137D01*
X118224535Y-41816138D01*
X118128128Y-42048885D01*
X118069317Y-42293850D01*
X118049551Y-42545000D01*
X118068473Y-42785431D01*
X118069317Y-42796148D01*
X118128127Y-43041111D01*
X118128128Y-43041114D01*
X118128129Y-43041117D01*
X118224532Y-43273857D01*
X118325175Y-43438089D01*
X118353486Y-43522005D01*
X118354500Y-43542067D01*
X118354500Y-45357932D01*
X118334793Y-45444275D01*
X118325175Y-45461910D01*
X118224535Y-45626137D01*
X118224535Y-45626138D01*
X118128127Y-45858888D01*
X118128126Y-45858891D01*
X118083160Y-46046184D01*
X118043841Y-46125540D01*
X118030373Y-46140441D01*
X116483035Y-47687778D01*
X116483032Y-47687782D01*
X116362714Y-47853387D01*
X116362713Y-47853389D01*
X116348200Y-47881873D01*
X116328016Y-47921486D01*
X116269783Y-48035774D01*
X116269777Y-48035787D01*
X116206523Y-48230463D01*
X116206522Y-48230470D01*
X116174500Y-48432649D01*
X116174500Y-63435886D01*
X116154793Y-63522229D01*
X116099574Y-63591470D01*
X116019782Y-63629897D01*
X115931218Y-63629897D01*
X115851426Y-63591470D01*
X115834786Y-63576600D01*
X115231222Y-62973036D01*
X115065607Y-62852710D01*
X114904400Y-62770571D01*
X114904320Y-62770532D01*
X114904295Y-62770519D01*
X114883219Y-62759780D01*
X114785876Y-62728151D01*
X114785876Y-62728150D01*
X114688537Y-62696523D01*
X114688530Y-62696522D01*
X114573735Y-62678340D01*
X114486352Y-62664500D01*
X114486351Y-62664500D01*
X113379124Y-62664500D01*
X113292781Y-62644793D01*
X113223540Y-62589574D01*
X113191291Y-62531226D01*
X113150789Y-62415479D01*
X113150789Y-62415478D01*
X113054816Y-62262738D01*
X113054813Y-62262735D01*
X113054812Y-62262733D01*
X112927266Y-62135187D01*
X112927263Y-62135185D01*
X112927262Y-62135184D01*
X112774522Y-62039211D01*
X112774521Y-62039210D01*
X112774520Y-62039210D01*
X112604258Y-61979633D01*
X112604257Y-61979632D01*
X112604255Y-61979632D01*
X112469954Y-61964500D01*
X109980046Y-61964500D01*
X109845745Y-61979632D01*
X109845742Y-61979632D01*
X109845741Y-61979633D01*
X109675479Y-62039210D01*
X109675478Y-62039210D01*
X109522733Y-62135187D01*
X109395187Y-62262733D01*
X109299210Y-62415478D01*
X109299210Y-62415479D01*
X109258709Y-62531226D01*
X109239632Y-62585745D01*
X109224500Y-62720046D01*
X109224500Y-65209954D01*
X109239632Y-65344255D01*
X109239632Y-65344257D01*
X109239633Y-65344258D01*
X109299210Y-65514520D01*
X109299210Y-65514521D01*
X109395187Y-65667266D01*
X109522733Y-65794812D01*
X109522735Y-65794813D01*
X109522738Y-65794816D01*
X109648399Y-65873774D01*
X109711022Y-65936398D01*
X109740273Y-66019992D01*
X109730357Y-66107998D01*
X109701832Y-66161528D01*
X109537773Y-66380684D01*
X109400633Y-66631838D01*
X109300631Y-66899951D01*
X109239803Y-67179572D01*
X109219390Y-67465000D01*
X107815500Y-67465000D01*
X107815500Y-34127110D01*
X110129500Y-34127110D01*
X110129500Y-34452887D01*
X110165975Y-34776613D01*
X110238468Y-35094228D01*
X110238469Y-35094231D01*
X110346059Y-35401707D01*
X110346064Y-35401719D01*
X110346065Y-35401722D01*
X110458335Y-35634853D01*
X110487418Y-35695243D01*
X110660733Y-35971073D01*
X110660738Y-35971081D01*
X110863856Y-36225782D01*
X111094217Y-36456143D01*
X111348918Y-36659261D01*
X111348926Y-36659266D01*
X111624756Y-36832581D01*
X111624758Y-36832582D01*
X111624763Y-36832585D01*
X111918278Y-36973935D01*
X112225773Y-37081532D01*
X112543383Y-37154024D01*
X112867111Y-37190500D01*
X112867112Y-37190500D01*
X113192888Y-37190500D01*
X113192889Y-37190500D01*
X113516617Y-37154024D01*
X113834227Y-37081532D01*
X114141722Y-36973935D01*
X114435237Y-36832585D01*
X114711081Y-36659261D01*
X114965783Y-36456143D01*
X115196143Y-36225783D01*
X115399261Y-35971081D01*
X115572585Y-35695237D01*
X115713935Y-35401722D01*
X115783244Y-35203648D01*
X122778500Y-35203648D01*
X122778500Y-35408352D01*
X122786896Y-35461364D01*
X122810521Y-35610527D01*
X122810524Y-35610538D01*
X122843760Y-35712826D01*
X122852878Y-35770399D01*
X122853187Y-35770382D01*
X122853357Y-35773422D01*
X122853500Y-35774321D01*
X122853500Y-35775954D01*
X122868632Y-35910255D01*
X122868632Y-35910257D01*
X122868633Y-35910258D01*
X122928210Y-36080520D01*
X122928210Y-36080521D01*
X123024187Y-36233266D01*
X123151733Y-36360812D01*
X123151735Y-36360813D01*
X123151738Y-36360816D01*
X123304478Y-36456789D01*
X123474745Y-36516368D01*
X123609046Y-36531500D01*
X123610679Y-36531500D01*
X123611577Y-36531642D01*
X123614618Y-36531813D01*
X123614600Y-36532121D01*
X123672172Y-36541239D01*
X123774466Y-36574477D01*
X123976648Y-36606500D01*
X125367225Y-36606500D01*
X125453568Y-36626207D01*
X125522809Y-36681426D01*
X125561236Y-36761218D01*
X125561236Y-36849782D01*
X125522809Y-36929574D01*
X125507939Y-36946214D01*
X125485046Y-36969106D01*
X125398781Y-37081530D01*
X125380832Y-37104923D01*
X125376553Y-37110499D01*
X125376551Y-37110501D01*
X125321415Y-37182353D01*
X125321406Y-37182366D01*
X125187018Y-37415136D01*
X125187014Y-37415145D01*
X125084152Y-37663476D01*
X125014583Y-37923113D01*
X124979499Y-38189595D01*
X124979499Y-38465444D01*
X124979500Y-38465473D01*
X124979500Y-42785397D01*
X124979499Y-42785431D01*
X124979499Y-43067444D01*
X124979500Y-43067473D01*
X124979500Y-88789397D01*
X124979499Y-88789431D01*
X124979499Y-89064404D01*
X125013978Y-89326291D01*
X125014584Y-89330891D01*
X125084153Y-89590526D01*
X125139347Y-89723776D01*
X125187014Y-89838854D01*
X125187018Y-89838863D01*
X125321406Y-90071633D01*
X125321414Y-90071645D01*
X125365535Y-90129144D01*
X125365539Y-90129148D01*
X125365543Y-90129153D01*
X125485044Y-90284890D01*
X125675110Y-90474956D01*
X125675113Y-90474958D01*
X125680104Y-90479949D01*
X125680119Y-90479963D01*
X128626141Y-93425986D01*
X128626150Y-93425996D01*
X128626151Y-93425996D01*
X128630040Y-93429885D01*
X128630044Y-93429890D01*
X128820110Y-93619956D01*
X128820111Y-93619957D01*
X129033363Y-93783590D01*
X129117502Y-93832167D01*
X129266141Y-93917984D01*
X129514474Y-94020847D01*
X129536242Y-94026679D01*
X129542475Y-94028350D01*
X129620775Y-94069732D01*
X129673366Y-94140990D01*
X129689831Y-94228010D01*
X129666909Y-94313555D01*
X129609140Y-94380684D01*
X129567124Y-94404421D01*
X129446139Y-94454534D01*
X129446137Y-94454535D01*
X129231338Y-94586165D01*
X129039775Y-94749775D01*
X128876165Y-94941338D01*
X128744535Y-95156137D01*
X128744535Y-95156138D01*
X128648128Y-95388885D01*
X128648127Y-95388888D01*
X128648127Y-95388889D01*
X128589317Y-95633852D01*
X128569551Y-95885000D01*
X128589317Y-96136148D01*
X128648127Y-96381111D01*
X128735102Y-96591089D01*
X128744535Y-96613861D01*
X128744535Y-96613862D01*
X128876165Y-96828661D01*
X129039775Y-97020224D01*
X129231338Y-97183834D01*
X129231340Y-97183835D01*
X129231341Y-97183836D01*
X129446141Y-97315466D01*
X129678889Y-97411873D01*
X129923852Y-97470683D01*
X130175000Y-97490449D01*
X130426148Y-97470683D01*
X130671111Y-97411873D01*
X130903859Y-97315466D01*
X131068091Y-97214824D01*
X131152005Y-97186514D01*
X131172067Y-97185500D01*
X132983234Y-97185500D01*
X133069577Y-97205207D01*
X133138818Y-97260426D01*
X133177245Y-97340218D01*
X133177245Y-97428782D01*
X133155573Y-97484000D01*
X133137014Y-97516143D01*
X133137014Y-97516145D01*
X133034152Y-97764476D01*
X132964585Y-98024104D01*
X132929500Y-98290605D01*
X132929500Y-99973500D01*
X132909793Y-100059843D01*
X132854574Y-100129084D01*
X132774782Y-100167511D01*
X132730500Y-100172500D01*
X129691648Y-100172500D01*
X129630635Y-100182163D01*
X129489470Y-100204522D01*
X129489463Y-100204523D01*
X129387173Y-100237760D01*
X129329600Y-100246878D01*
X129329618Y-100247187D01*
X129326577Y-100247357D01*
X129325679Y-100247500D01*
X129324046Y-100247500D01*
X129189745Y-100262632D01*
X129189742Y-100262632D01*
X129189741Y-100262633D01*
X129019479Y-100322210D01*
X129019478Y-100322210D01*
X128866733Y-100418187D01*
X128739187Y-100545733D01*
X128643210Y-100698478D01*
X128643210Y-100698479D01*
X128583633Y-100868741D01*
X128583632Y-100868745D01*
X128568500Y-101003046D01*
X128568500Y-101003048D01*
X128568500Y-101004678D01*
X128568357Y-101005575D01*
X128568187Y-101008618D01*
X128567878Y-101008600D01*
X128558760Y-101066172D01*
X128525523Y-101168463D01*
X128525522Y-101168470D01*
X128493500Y-101370649D01*
X128493500Y-101575350D01*
X128525521Y-101777527D01*
X128525524Y-101777538D01*
X128558760Y-101879826D01*
X128567878Y-101937399D01*
X128568187Y-101937382D01*
X128568357Y-101940422D01*
X128568500Y-101941321D01*
X128568500Y-101942954D01*
X128583632Y-102077255D01*
X128583632Y-102077257D01*
X128583633Y-102077258D01*
X128643210Y-102247520D01*
X128643210Y-102247521D01*
X128739187Y-102400266D01*
X128866733Y-102527812D01*
X128866735Y-102527813D01*
X128866738Y-102527816D01*
X129019478Y-102623789D01*
X129189745Y-102683368D01*
X129324046Y-102698500D01*
X129325679Y-102698500D01*
X129326577Y-102698642D01*
X129329618Y-102698813D01*
X129329600Y-102699121D01*
X129387172Y-102708239D01*
X129489466Y-102741477D01*
X129691648Y-102773500D01*
X133319225Y-102773500D01*
X133405568Y-102793207D01*
X133459939Y-102831785D01*
X133625110Y-102996956D01*
X133625113Y-102996958D01*
X133630104Y-103001949D01*
X133630119Y-103001963D01*
X134849141Y-104220986D01*
X134849150Y-104220996D01*
X134849151Y-104220996D01*
X134853040Y-104224885D01*
X134853044Y-104224890D01*
X135019684Y-104391530D01*
X135043111Y-104414957D01*
X135043113Y-104414958D01*
X135154589Y-104500497D01*
X135154592Y-104500498D01*
X135154594Y-104500500D01*
X135256359Y-104578587D01*
X135489141Y-104712984D01*
X135737474Y-104815847D01*
X135997109Y-104885416D01*
X136239131Y-104917279D01*
X136263595Y-104920500D01*
X136263601Y-104920501D01*
X136263603Y-104920501D01*
X136538570Y-104920501D01*
X136538602Y-104920500D01*
X137773325Y-104920500D01*
X137859668Y-104940207D01*
X137879199Y-104951002D01*
X137950473Y-104995786D01*
X137950478Y-104995789D01*
X138120745Y-105055368D01*
X138255046Y-105070500D01*
X138255048Y-105070500D01*
X141144952Y-105070500D01*
X141144954Y-105070500D01*
X141279255Y-105055368D01*
X141449522Y-104995789D01*
X141485657Y-104973083D01*
X141520801Y-104951002D01*
X141604394Y-104921751D01*
X141626675Y-104920500D01*
X143367398Y-104920500D01*
X143367430Y-104920501D01*
X143373603Y-104920501D01*
X143642399Y-104920501D01*
X143642402Y-104920500D01*
X143908891Y-104885416D01*
X144168526Y-104815847D01*
X144416859Y-104712984D01*
X144524427Y-104650879D01*
X144649633Y-104578593D01*
X144649638Y-104578589D01*
X144649642Y-104578587D01*
X144751405Y-104500501D01*
X144751406Y-104500501D01*
X144805279Y-104459161D01*
X144862890Y-104414956D01*
X145052956Y-104224890D01*
X145059885Y-104217961D01*
X145059914Y-104217928D01*
X147089059Y-102188786D01*
X147164048Y-102141667D01*
X147229773Y-102130500D01*
X147592952Y-102130500D01*
X147592954Y-102130500D01*
X147727255Y-102115368D01*
X147897522Y-102055789D01*
X148050262Y-101959816D01*
X148177816Y-101832262D01*
X148273789Y-101679522D01*
X148333368Y-101509255D01*
X148348500Y-101374954D01*
X148348500Y-99285046D01*
X148333368Y-99150745D01*
X148273789Y-98980478D01*
X148177816Y-98827738D01*
X148177813Y-98827735D01*
X148177812Y-98827733D01*
X148050266Y-98700187D01*
X148050263Y-98700185D01*
X148050262Y-98700184D01*
X147897522Y-98604211D01*
X147897521Y-98604210D01*
X147897520Y-98604210D01*
X147727258Y-98544633D01*
X147727257Y-98544632D01*
X147727255Y-98544632D01*
X147592954Y-98529500D01*
X147592952Y-98529500D01*
X147083765Y-98529500D01*
X146997422Y-98509793D01*
X146984264Y-98502838D01*
X146956865Y-98487019D01*
X146956857Y-98487015D01*
X146708528Y-98384154D01*
X146708519Y-98384150D01*
X146448889Y-98314584D01*
X146182404Y-98279500D01*
X146182397Y-98279500D01*
X145913603Y-98279500D01*
X145913595Y-98279500D01*
X145647110Y-98314584D01*
X145647109Y-98314584D01*
X145387481Y-98384150D01*
X145387471Y-98384154D01*
X145139141Y-98487015D01*
X145139133Y-98487019D01*
X145111735Y-98502838D01*
X145027107Y-98528943D01*
X145012234Y-98529500D01*
X144503046Y-98529500D01*
X144368745Y-98544632D01*
X144368742Y-98544632D01*
X144368741Y-98544633D01*
X144198479Y-98604210D01*
X144198478Y-98604210D01*
X144045733Y-98700187D01*
X143918187Y-98827733D01*
X143822210Y-98980478D01*
X143822210Y-98980479D01*
X143762633Y-99150741D01*
X143762632Y-99150745D01*
X143753620Y-99230733D01*
X143747500Y-99285048D01*
X143747500Y-99648227D01*
X143727793Y-99734570D01*
X143689214Y-99788941D01*
X142716942Y-100761214D01*
X142641954Y-100808333D01*
X142576228Y-100819500D01*
X141626675Y-100819500D01*
X141540332Y-100799793D01*
X141520801Y-100788998D01*
X141449526Y-100744213D01*
X141449520Y-100744210D01*
X141279258Y-100684633D01*
X141279257Y-100684632D01*
X141279255Y-100684632D01*
X141144954Y-100669500D01*
X138255046Y-100669500D01*
X138120745Y-100684632D01*
X138120742Y-100684632D01*
X138120741Y-100684633D01*
X137950479Y-100744210D01*
X137950473Y-100744213D01*
X137879199Y-100788998D01*
X137795606Y-100818249D01*
X137773325Y-100819500D01*
X137329773Y-100819500D01*
X137243430Y-100799793D01*
X137189059Y-100761214D01*
X137088786Y-100660941D01*
X137041667Y-100585953D01*
X137030500Y-100520227D01*
X137030500Y-98290605D01*
X137029038Y-98279500D01*
X136995416Y-98024109D01*
X136925847Y-97764474D01*
X136822984Y-97516141D01*
X136707123Y-97315464D01*
X136688590Y-97283363D01*
X136524953Y-97070106D01*
X136355180Y-96900333D01*
X136308061Y-96825345D01*
X136298145Y-96737338D01*
X136326220Y-96655640D01*
X136365777Y-96591089D01*
X136459172Y-96365612D01*
X136516146Y-96128302D01*
X136535294Y-95885000D01*
X136516146Y-95641698D01*
X136514262Y-95633852D01*
X136493759Y-95548452D01*
X136459172Y-95404388D01*
X136452752Y-95388889D01*
X136365778Y-95178912D01*
X136365775Y-95178907D01*
X136326218Y-95114357D01*
X136297907Y-95030441D01*
X136308809Y-94942552D01*
X136355177Y-94869666D01*
X136524955Y-94699889D01*
X136688587Y-94486641D01*
X136822984Y-94253859D01*
X136925847Y-94005526D01*
X136995415Y-93745891D01*
X137030500Y-93479401D01*
X137030501Y-93479401D01*
X137030501Y-93210599D01*
X137030500Y-93210597D01*
X137004872Y-93015943D01*
X136995415Y-92944108D01*
X136925847Y-92684474D01*
X136841151Y-92480000D01*
X143778548Y-92480000D01*
X145500115Y-92480000D01*
X145471978Y-92522110D01*
X145422979Y-92640402D01*
X145398000Y-92765981D01*
X145398000Y-92894019D01*
X145422979Y-93019598D01*
X145471978Y-93137890D01*
X145500115Y-93180000D01*
X143778548Y-93180000D01*
X143778800Y-93181923D01*
X143839868Y-93409828D01*
X143839872Y-93409840D01*
X143930162Y-93627822D01*
X143930167Y-93627833D01*
X144048140Y-93832167D01*
X144191787Y-94019372D01*
X144358627Y-94186212D01*
X144545832Y-94329859D01*
X144750166Y-94447832D01*
X144750177Y-94447837D01*
X144968159Y-94538127D01*
X144968171Y-94538131D01*
X145196081Y-94599200D01*
X145196090Y-94599202D01*
X145430014Y-94629999D01*
X145430020Y-94630000D01*
X145698000Y-94630000D01*
X145698000Y-93377885D01*
X145740110Y-93406022D01*
X145858402Y-93455021D01*
X145983981Y-93480000D01*
X146112019Y-93480000D01*
X146237598Y-93455021D01*
X146355890Y-93406022D01*
X146398000Y-93377885D01*
X146398000Y-94630000D01*
X146665980Y-94630000D01*
X146665985Y-94629999D01*
X146899909Y-94599202D01*
X146899918Y-94599200D01*
X147127828Y-94538131D01*
X147127840Y-94538127D01*
X147345822Y-94447837D01*
X147345833Y-94447832D01*
X147550167Y-94329859D01*
X147737372Y-94186212D01*
X147904212Y-94019372D01*
X148047859Y-93832167D01*
X148165832Y-93627833D01*
X148165837Y-93627822D01*
X148256127Y-93409840D01*
X148256131Y-93409828D01*
X148317199Y-93181923D01*
X148317452Y-93180000D01*
X146595885Y-93180000D01*
X146624022Y-93137890D01*
X146673021Y-93019598D01*
X146698000Y-92894019D01*
X146698000Y-92765981D01*
X146673021Y-92640402D01*
X146624022Y-92522110D01*
X146595885Y-92480000D01*
X148317452Y-92480000D01*
X148317199Y-92478076D01*
X148256131Y-92250171D01*
X148256127Y-92250159D01*
X148165837Y-92032177D01*
X148165832Y-92032166D01*
X148047859Y-91827832D01*
X147904212Y-91640627D01*
X147737372Y-91473787D01*
X147550167Y-91330140D01*
X147345833Y-91212167D01*
X147345822Y-91212162D01*
X147127840Y-91121872D01*
X147127828Y-91121868D01*
X146899918Y-91060799D01*
X146899909Y-91060797D01*
X146665985Y-91030000D01*
X146398000Y-91030000D01*
X146398000Y-92282114D01*
X146355890Y-92253978D01*
X146237598Y-92204979D01*
X146112019Y-92180000D01*
X145983981Y-92180000D01*
X145858402Y-92204979D01*
X145740110Y-92253978D01*
X145698000Y-92282114D01*
X145698000Y-91030000D01*
X145430014Y-91030000D01*
X145196090Y-91060797D01*
X145196081Y-91060799D01*
X144968171Y-91121868D01*
X144968159Y-91121872D01*
X144750177Y-91212162D01*
X144750166Y-91212167D01*
X144545832Y-91330140D01*
X144358627Y-91473787D01*
X144191787Y-91640627D01*
X144048140Y-91827832D01*
X143930167Y-92032166D01*
X143930162Y-92032177D01*
X143839872Y-92250159D01*
X143839868Y-92250171D01*
X143778800Y-92478076D01*
X143778548Y-92480000D01*
X136841151Y-92480000D01*
X136822984Y-92436141D01*
X136811153Y-92415649D01*
X136688593Y-92203366D01*
X136688590Y-92203363D01*
X136688589Y-92203362D01*
X136688587Y-92203358D01*
X136524955Y-91990110D01*
X136524954Y-91990109D01*
X136524951Y-91990105D01*
X136524948Y-91990102D01*
X135259963Y-90725119D01*
X135259949Y-90725104D01*
X135254958Y-90720113D01*
X135254956Y-90720110D01*
X135064890Y-90530044D01*
X135064889Y-90530043D01*
X135064888Y-90530042D01*
X134886943Y-90393501D01*
X134886940Y-90393498D01*
X134851644Y-90366414D01*
X134851633Y-90366406D01*
X134618863Y-90232018D01*
X134618854Y-90232014D01*
X134370526Y-90129153D01*
X134370524Y-90129152D01*
X134370523Y-90129152D01*
X134265667Y-90101056D01*
X134110891Y-90059584D01*
X134110888Y-90059583D01*
X134110886Y-90059583D01*
X133844404Y-90024499D01*
X133844397Y-90024499D01*
X133575603Y-90024499D01*
X133569430Y-90024499D01*
X133569398Y-90024500D01*
X131106773Y-90024500D01*
X131020430Y-90004793D01*
X130966059Y-89966214D01*
X129138786Y-88138941D01*
X129091667Y-88063953D01*
X129080500Y-87998227D01*
X129080500Y-86204007D01*
X129100207Y-86117664D01*
X129155426Y-86048423D01*
X129235218Y-86009996D01*
X129323782Y-86009996D01*
X129403574Y-86048423D01*
X129420214Y-86063293D01*
X129501733Y-86144812D01*
X129501735Y-86144813D01*
X129501738Y-86144816D01*
X129654478Y-86240789D01*
X129824745Y-86300368D01*
X129959046Y-86315500D01*
X129960679Y-86315500D01*
X129961577Y-86315642D01*
X129964618Y-86315813D01*
X129964600Y-86316121D01*
X130022172Y-86325239D01*
X130124466Y-86358477D01*
X130326648Y-86390500D01*
X133319225Y-86390500D01*
X133405568Y-86410207D01*
X133459939Y-86448785D01*
X133625110Y-86613956D01*
X133625113Y-86613958D01*
X133630104Y-86618949D01*
X133630119Y-86618963D01*
X134722141Y-87710986D01*
X134722150Y-87710996D01*
X134722151Y-87710996D01*
X134726040Y-87714885D01*
X134726044Y-87714890D01*
X134916110Y-87904956D01*
X135067526Y-88021141D01*
X135129359Y-88068587D01*
X135362141Y-88202984D01*
X135610474Y-88305847D01*
X135870109Y-88375416D01*
X136112131Y-88407279D01*
X136136595Y-88410500D01*
X136136601Y-88410501D01*
X136136603Y-88410501D01*
X136411570Y-88410501D01*
X136411602Y-88410500D01*
X137773325Y-88410500D01*
X137859668Y-88430207D01*
X137879199Y-88441001D01*
X137946482Y-88483278D01*
X138009105Y-88545900D01*
X138038357Y-88629494D01*
X138028441Y-88717500D01*
X137990225Y-88782984D01*
X137950882Y-88827846D01*
X137950877Y-88827852D01*
X137790661Y-89067631D01*
X137663103Y-89326291D01*
X137663101Y-89326295D01*
X137570406Y-89599367D01*
X137570403Y-89599379D01*
X137526518Y-89819999D01*
X137526519Y-89820000D01*
X139091980Y-89820000D01*
X139079668Y-89838426D01*
X139026901Y-89965818D01*
X139000000Y-90101056D01*
X139000000Y-90238944D01*
X139026901Y-90374182D01*
X139079668Y-90501574D01*
X139091980Y-90520000D01*
X137526519Y-90520000D01*
X137570403Y-90740620D01*
X137570406Y-90740632D01*
X137663101Y-91013704D01*
X137663103Y-91013708D01*
X137790661Y-91272368D01*
X137950877Y-91512146D01*
X138141027Y-91728972D01*
X138357853Y-91919122D01*
X138597631Y-92079338D01*
X138856291Y-92206896D01*
X138856295Y-92206898D01*
X139129368Y-92299593D01*
X139129382Y-92299597D01*
X139350000Y-92343480D01*
X139350000Y-90778020D01*
X139368426Y-90790332D01*
X139495818Y-90843099D01*
X139631056Y-90870000D01*
X139768944Y-90870000D01*
X139904182Y-90843099D01*
X140031574Y-90790332D01*
X140050000Y-90778020D01*
X140050000Y-92343479D01*
X140270617Y-92299597D01*
X140270631Y-92299593D01*
X140543704Y-92206898D01*
X140543708Y-92206896D01*
X140802368Y-92079338D01*
X141042146Y-91919122D01*
X141258972Y-91728972D01*
X141449122Y-91512146D01*
X141609338Y-91272368D01*
X141736896Y-91013708D01*
X141736898Y-91013704D01*
X141829593Y-90740632D01*
X141829596Y-90740620D01*
X141873481Y-90520000D01*
X140308020Y-90520000D01*
X140320332Y-90501574D01*
X140373099Y-90374182D01*
X140400000Y-90238944D01*
X140400000Y-90101056D01*
X140373099Y-89965818D01*
X140320332Y-89838426D01*
X140308020Y-89820000D01*
X141873481Y-89820000D01*
X141873481Y-89819999D01*
X141829596Y-89599379D01*
X141829593Y-89599367D01*
X141736898Y-89326295D01*
X141736896Y-89326291D01*
X141609338Y-89067631D01*
X141449122Y-88827853D01*
X141409775Y-88782986D01*
X141367662Y-88705076D01*
X141363523Y-88616610D01*
X141398178Y-88535108D01*
X141453514Y-88483280D01*
X141520803Y-88440999D01*
X141604397Y-88411751D01*
X141626675Y-88410500D01*
X143369398Y-88410500D01*
X143369430Y-88410501D01*
X143375603Y-88410501D01*
X143644399Y-88410501D01*
X143644402Y-88410500D01*
X143910891Y-88375416D01*
X144170526Y-88305847D01*
X144418859Y-88202984D01*
X144529785Y-88138941D01*
X144651633Y-88068593D01*
X144651638Y-88068589D01*
X144651642Y-88068587D01*
X144683920Y-88043818D01*
X144716197Y-88019052D01*
X144716199Y-88019050D01*
X144864890Y-87904956D01*
X145054956Y-87714890D01*
X145061885Y-87707961D01*
X145061914Y-87707928D01*
X147091059Y-85678786D01*
X147166048Y-85631667D01*
X147231773Y-85620500D01*
X147594952Y-85620500D01*
X147594954Y-85620500D01*
X147729255Y-85605368D01*
X147899522Y-85545789D01*
X148052262Y-85449816D01*
X148179816Y-85322262D01*
X148275789Y-85169522D01*
X148335368Y-84999255D01*
X148350500Y-84864954D01*
X148350500Y-82775046D01*
X148335368Y-82640745D01*
X148275789Y-82470478D01*
X148179816Y-82317738D01*
X148179813Y-82317735D01*
X148179812Y-82317733D01*
X148052266Y-82190187D01*
X148052263Y-82190185D01*
X148052262Y-82190184D01*
X147899522Y-82094211D01*
X147899521Y-82094210D01*
X147899520Y-82094210D01*
X147729258Y-82034633D01*
X147729257Y-82034632D01*
X147729255Y-82034632D01*
X147594954Y-82019500D01*
X147594952Y-82019500D01*
X147085765Y-82019500D01*
X146999422Y-81999793D01*
X146986264Y-81992838D01*
X146958865Y-81977019D01*
X146958857Y-81977015D01*
X146710528Y-81874154D01*
X146710519Y-81874150D01*
X146450889Y-81804584D01*
X146184404Y-81769500D01*
X146184397Y-81769500D01*
X145915603Y-81769500D01*
X145915595Y-81769500D01*
X145649110Y-81804584D01*
X145649109Y-81804584D01*
X145389481Y-81874150D01*
X145389471Y-81874154D01*
X145141141Y-81977015D01*
X145141133Y-81977019D01*
X145113735Y-81992838D01*
X145029107Y-82018943D01*
X145014234Y-82019500D01*
X144505046Y-82019500D01*
X144370745Y-82034632D01*
X144370742Y-82034632D01*
X144370741Y-82034633D01*
X144200479Y-82094210D01*
X144200478Y-82094210D01*
X144047733Y-82190187D01*
X143920187Y-82317733D01*
X143824210Y-82470478D01*
X143824210Y-82470479D01*
X143764633Y-82640741D01*
X143764632Y-82640745D01*
X143749500Y-82775046D01*
X143749500Y-82775048D01*
X143749500Y-83138227D01*
X143729793Y-83224570D01*
X143691214Y-83278941D01*
X142718942Y-84251214D01*
X142643954Y-84298333D01*
X142578228Y-84309500D01*
X141626675Y-84309500D01*
X141540332Y-84289793D01*
X141520801Y-84278998D01*
X141449526Y-84234213D01*
X141449520Y-84234210D01*
X141279258Y-84174633D01*
X141279257Y-84174632D01*
X141279255Y-84174632D01*
X141144954Y-84159500D01*
X138255046Y-84159500D01*
X138120745Y-84174632D01*
X138120742Y-84174632D01*
X138120741Y-84174633D01*
X137950479Y-84234210D01*
X137950473Y-84234213D01*
X137879199Y-84278998D01*
X137795606Y-84308249D01*
X137773325Y-84309500D01*
X137229500Y-84309500D01*
X137143157Y-84289793D01*
X137073916Y-84234574D01*
X137035489Y-84154782D01*
X137030500Y-84110500D01*
X137030500Y-81780605D01*
X137029038Y-81769500D01*
X136995416Y-81514109D01*
X136925847Y-81254474D01*
X136822984Y-81006141D01*
X136707123Y-80805464D01*
X136688590Y-80773363D01*
X136626388Y-80692300D01*
X136524956Y-80560110D01*
X136524953Y-80560106D01*
X136355180Y-80390333D01*
X136308061Y-80315345D01*
X136298145Y-80227338D01*
X136326220Y-80145640D01*
X136365777Y-80081089D01*
X136459172Y-79855612D01*
X136516146Y-79618302D01*
X136535294Y-79375000D01*
X136516146Y-79131698D01*
X136514262Y-79123852D01*
X136493759Y-79038452D01*
X136459172Y-78894388D01*
X136452752Y-78878889D01*
X136365778Y-78668912D01*
X136365775Y-78668907D01*
X136326218Y-78604357D01*
X136297907Y-78520441D01*
X136308809Y-78432552D01*
X136355177Y-78359666D01*
X136524955Y-78189889D01*
X136688587Y-77976641D01*
X136822984Y-77743859D01*
X136925847Y-77495526D01*
X136995415Y-77235891D01*
X137030500Y-76969401D01*
X137030501Y-76969401D01*
X137030501Y-76700599D01*
X137030500Y-76700597D01*
X137004872Y-76505943D01*
X136995415Y-76434108D01*
X136925847Y-76174474D01*
X136841151Y-75970000D01*
X143780548Y-75970000D01*
X145502115Y-75970000D01*
X145473978Y-76012110D01*
X145424979Y-76130402D01*
X145400000Y-76255981D01*
X145400000Y-76384019D01*
X145424979Y-76509598D01*
X145473978Y-76627890D01*
X145502115Y-76670000D01*
X143780548Y-76670000D01*
X143780800Y-76671923D01*
X143841868Y-76899828D01*
X143841872Y-76899840D01*
X143932162Y-77117822D01*
X143932167Y-77117833D01*
X144050140Y-77322167D01*
X144193787Y-77509372D01*
X144360627Y-77676212D01*
X144547832Y-77819859D01*
X144752166Y-77937832D01*
X144752177Y-77937837D01*
X144970159Y-78028127D01*
X144970171Y-78028131D01*
X145198081Y-78089200D01*
X145198090Y-78089202D01*
X145432014Y-78119999D01*
X145432020Y-78120000D01*
X145700000Y-78120000D01*
X145700000Y-76867885D01*
X145742110Y-76896022D01*
X145860402Y-76945021D01*
X145985981Y-76970000D01*
X146114019Y-76970000D01*
X146239598Y-76945021D01*
X146357890Y-76896022D01*
X146400000Y-76867885D01*
X146400000Y-78120000D01*
X146667980Y-78120000D01*
X146667985Y-78119999D01*
X146901909Y-78089202D01*
X146901918Y-78089200D01*
X147129828Y-78028131D01*
X147129840Y-78028127D01*
X147347822Y-77937837D01*
X147347833Y-77937832D01*
X147552167Y-77819859D01*
X147739372Y-77676212D01*
X147906212Y-77509372D01*
X148049859Y-77322167D01*
X148167832Y-77117833D01*
X148167837Y-77117822D01*
X148258127Y-76899840D01*
X148258131Y-76899828D01*
X148319199Y-76671923D01*
X148319452Y-76670000D01*
X146597885Y-76670000D01*
X146626022Y-76627890D01*
X146675021Y-76509598D01*
X146700000Y-76384019D01*
X146700000Y-76255981D01*
X146675021Y-76130402D01*
X146626022Y-76012110D01*
X146597885Y-75970000D01*
X148319452Y-75970000D01*
X148319199Y-75968076D01*
X148258131Y-75740171D01*
X148258127Y-75740159D01*
X148167837Y-75522177D01*
X148167832Y-75522166D01*
X148049859Y-75317832D01*
X147906212Y-75130627D01*
X147739372Y-74963787D01*
X147552167Y-74820140D01*
X147347833Y-74702167D01*
X147347822Y-74702162D01*
X147129840Y-74611872D01*
X147129828Y-74611868D01*
X146901918Y-74550799D01*
X146901909Y-74550797D01*
X146667985Y-74520000D01*
X146400000Y-74520000D01*
X146400000Y-75772114D01*
X146357890Y-75743978D01*
X146239598Y-75694979D01*
X146114019Y-75670000D01*
X145985981Y-75670000D01*
X145860402Y-75694979D01*
X145742110Y-75743978D01*
X145700000Y-75772114D01*
X145700000Y-74520000D01*
X145432014Y-74520000D01*
X145198090Y-74550797D01*
X145198081Y-74550799D01*
X144970171Y-74611868D01*
X144970159Y-74611872D01*
X144752177Y-74702162D01*
X144752166Y-74702167D01*
X144547832Y-74820140D01*
X144360627Y-74963787D01*
X144193787Y-75130627D01*
X144050140Y-75317832D01*
X143932167Y-75522166D01*
X143932162Y-75522177D01*
X143841872Y-75740159D01*
X143841868Y-75740171D01*
X143780800Y-75968076D01*
X143780548Y-75970000D01*
X136841151Y-75970000D01*
X136822984Y-75926141D01*
X136811153Y-75905649D01*
X136688593Y-75693366D01*
X136688590Y-75693363D01*
X136688589Y-75693362D01*
X136688587Y-75693358D01*
X136524955Y-75480110D01*
X136524954Y-75480109D01*
X136524951Y-75480105D01*
X136524948Y-75480102D01*
X135259963Y-74215119D01*
X135259949Y-74215104D01*
X135254958Y-74210113D01*
X135254956Y-74210110D01*
X135064890Y-74020044D01*
X135064889Y-74020043D01*
X135064888Y-74020042D01*
X134908386Y-73899955D01*
X134908383Y-73899952D01*
X134851644Y-73856414D01*
X134851633Y-73856406D01*
X134618863Y-73722018D01*
X134618854Y-73722014D01*
X134370526Y-73619153D01*
X134370524Y-73619152D01*
X134370523Y-73619152D01*
X134265667Y-73591056D01*
X134110891Y-73549584D01*
X134110888Y-73549583D01*
X134110886Y-73549583D01*
X133844404Y-73514499D01*
X133844397Y-73514499D01*
X133575603Y-73514499D01*
X133569430Y-73514499D01*
X133569398Y-73514500D01*
X129279500Y-73514500D01*
X129193157Y-73494793D01*
X129123916Y-73439574D01*
X129085489Y-73359782D01*
X129080500Y-73315500D01*
X129080500Y-69274491D01*
X129100207Y-69188148D01*
X129155426Y-69118907D01*
X129235218Y-69080480D01*
X129323782Y-69080480D01*
X129403574Y-69118907D01*
X129447998Y-69168617D01*
X129501184Y-69253262D01*
X129501187Y-69253266D01*
X129628733Y-69380812D01*
X129628735Y-69380813D01*
X129628738Y-69380816D01*
X129781478Y-69476789D01*
X129951745Y-69536368D01*
X130086046Y-69551500D01*
X130087679Y-69551500D01*
X130088577Y-69551642D01*
X130091618Y-69551813D01*
X130091600Y-69552121D01*
X130149172Y-69561239D01*
X130251466Y-69594477D01*
X130453648Y-69626500D01*
X133319225Y-69626500D01*
X133405568Y-69646207D01*
X133459939Y-69684785D01*
X133625110Y-69849956D01*
X133625113Y-69849958D01*
X133630104Y-69854949D01*
X133630119Y-69854963D01*
X134976141Y-71200986D01*
X134976150Y-71200996D01*
X134976151Y-71200996D01*
X134980040Y-71204885D01*
X134980044Y-71204890D01*
X135098848Y-71323694D01*
X135170111Y-71394957D01*
X135170113Y-71394958D01*
X135260376Y-71464220D01*
X135260377Y-71464220D01*
X135383362Y-71558590D01*
X135383366Y-71558593D01*
X135598495Y-71682796D01*
X135616141Y-71692984D01*
X135864474Y-71795847D01*
X136124109Y-71865416D01*
X136366131Y-71897279D01*
X136390595Y-71900500D01*
X136390601Y-71900501D01*
X136390603Y-71900501D01*
X136665570Y-71900501D01*
X136665602Y-71900500D01*
X137773325Y-71900500D01*
X137859668Y-71920207D01*
X137879199Y-71931001D01*
X137946482Y-71973278D01*
X138009105Y-72035900D01*
X138038357Y-72119494D01*
X138028441Y-72207500D01*
X137990225Y-72272984D01*
X137950882Y-72317846D01*
X137950877Y-72317852D01*
X137790661Y-72557631D01*
X137663103Y-72816291D01*
X137663101Y-72816295D01*
X137570406Y-73089367D01*
X137570403Y-73089379D01*
X137526518Y-73309999D01*
X137526519Y-73310000D01*
X139091980Y-73310000D01*
X139079668Y-73328426D01*
X139026901Y-73455818D01*
X139000000Y-73591056D01*
X139000000Y-73728944D01*
X139026901Y-73864182D01*
X139079668Y-73991574D01*
X139091980Y-74010000D01*
X137526519Y-74010000D01*
X137570403Y-74230620D01*
X137570406Y-74230632D01*
X137663101Y-74503704D01*
X137663103Y-74503708D01*
X137790661Y-74762368D01*
X137950877Y-75002146D01*
X138141027Y-75218972D01*
X138357853Y-75409122D01*
X138597631Y-75569338D01*
X138856291Y-75696896D01*
X138856295Y-75696898D01*
X139129368Y-75789593D01*
X139129382Y-75789597D01*
X139350000Y-75833480D01*
X139350000Y-74268020D01*
X139368426Y-74280332D01*
X139495818Y-74333099D01*
X139631056Y-74360000D01*
X139768944Y-74360000D01*
X139904182Y-74333099D01*
X140031574Y-74280332D01*
X140050000Y-74268020D01*
X140050000Y-75833479D01*
X140270617Y-75789597D01*
X140270631Y-75789593D01*
X140543704Y-75696898D01*
X140543708Y-75696896D01*
X140802368Y-75569338D01*
X141042146Y-75409122D01*
X141258972Y-75218972D01*
X141449122Y-75002146D01*
X141609338Y-74762368D01*
X141736896Y-74503708D01*
X141736898Y-74503704D01*
X141829593Y-74230632D01*
X141829596Y-74230620D01*
X141873481Y-74010000D01*
X140308020Y-74010000D01*
X140320332Y-73991574D01*
X140373099Y-73864182D01*
X140400000Y-73728944D01*
X140400000Y-73591056D01*
X140373099Y-73455818D01*
X140320332Y-73328426D01*
X140308020Y-73310000D01*
X141873481Y-73310000D01*
X141873481Y-73309999D01*
X141829596Y-73089379D01*
X141829593Y-73089367D01*
X141736898Y-72816295D01*
X141736896Y-72816291D01*
X141609338Y-72557631D01*
X141449122Y-72317853D01*
X141409775Y-72272986D01*
X141367662Y-72195076D01*
X141363523Y-72106610D01*
X141398178Y-72025108D01*
X141453514Y-71973280D01*
X141602262Y-71879816D01*
X141729816Y-71752262D01*
X141825789Y-71599522D01*
X141885368Y-71429255D01*
X141900500Y-71294954D01*
X141900500Y-70631772D01*
X141920207Y-70545429D01*
X141958786Y-70491058D01*
X143031059Y-69418786D01*
X143106048Y-69371667D01*
X143171773Y-69360500D01*
X146182394Y-69360500D01*
X146182397Y-69360500D01*
X146448891Y-69325416D01*
X146708526Y-69255847D01*
X146956859Y-69152984D01*
X146972893Y-69143726D01*
X146984264Y-69137162D01*
X147068892Y-69111057D01*
X147083765Y-69110500D01*
X147592952Y-69110500D01*
X147592954Y-69110500D01*
X147727255Y-69095368D01*
X147897522Y-69035789D01*
X148050262Y-68939816D01*
X148177816Y-68812262D01*
X148273789Y-68659522D01*
X148333368Y-68489255D01*
X148348500Y-68354954D01*
X148348500Y-66265046D01*
X148333368Y-66130745D01*
X148273789Y-65960478D01*
X148177816Y-65807738D01*
X148177813Y-65807735D01*
X148177812Y-65807733D01*
X148050266Y-65680187D01*
X148050263Y-65680185D01*
X148050262Y-65680184D01*
X147897522Y-65584211D01*
X147897521Y-65584210D01*
X147897520Y-65584210D01*
X147727258Y-65524633D01*
X147727257Y-65524632D01*
X147727255Y-65524632D01*
X147592954Y-65509500D01*
X147592952Y-65509500D01*
X147083765Y-65509500D01*
X146997422Y-65489793D01*
X146984264Y-65482838D01*
X146956865Y-65467019D01*
X146956857Y-65467015D01*
X146792108Y-65398774D01*
X146708526Y-65364153D01*
X146708524Y-65364152D01*
X146708523Y-65364152D01*
X146448895Y-65294585D01*
X146448894Y-65294584D01*
X146448891Y-65294584D01*
X146182397Y-65259500D01*
X142105603Y-65259500D01*
X141839109Y-65294584D01*
X141839106Y-65294584D01*
X141839104Y-65294585D01*
X141579476Y-65364152D01*
X141331144Y-65467014D01*
X141331142Y-65467015D01*
X141098360Y-65601411D01*
X141098354Y-65601414D01*
X141005771Y-65672456D01*
X141005771Y-65672457D01*
X140934658Y-65727023D01*
X140885108Y-65765045D01*
X140825368Y-65824786D01*
X140695044Y-65955110D01*
X140695040Y-65955114D01*
X139058942Y-67591214D01*
X138983954Y-67638333D01*
X138918228Y-67649500D01*
X138255046Y-67649500D01*
X138120745Y-67664632D01*
X138120742Y-67664632D01*
X138120741Y-67664633D01*
X137950479Y-67724210D01*
X137950473Y-67724213D01*
X137879199Y-67768998D01*
X137795606Y-67798249D01*
X137773325Y-67799500D01*
X137456773Y-67799500D01*
X137370430Y-67779793D01*
X137316059Y-67741214D01*
X137088786Y-67513941D01*
X137041667Y-67438953D01*
X137030500Y-67373227D01*
X137030500Y-65270605D01*
X137029038Y-65259500D01*
X136995416Y-65004109D01*
X136925847Y-64744474D01*
X136822984Y-64496141D01*
X136707123Y-64295464D01*
X136688590Y-64263363D01*
X136524953Y-64050106D01*
X136355180Y-63880333D01*
X136308061Y-63805345D01*
X136298145Y-63717338D01*
X136326220Y-63635640D01*
X136365773Y-63571095D01*
X136365778Y-63571087D01*
X136459169Y-63345619D01*
X136459168Y-63345619D01*
X136459172Y-63345612D01*
X136516146Y-63108302D01*
X136535294Y-62865000D01*
X136516146Y-62621698D01*
X136514262Y-62613852D01*
X136466636Y-62415478D01*
X136459172Y-62384388D01*
X136452752Y-62368889D01*
X136365778Y-62158912D01*
X136365775Y-62158907D01*
X136326218Y-62094357D01*
X136297907Y-62010441D01*
X136308809Y-61922552D01*
X136355177Y-61849666D01*
X136524955Y-61679889D01*
X136688587Y-61466642D01*
X136688589Y-61466638D01*
X136688593Y-61466633D01*
X136779105Y-61309859D01*
X136822984Y-61233859D01*
X136925847Y-60985526D01*
X136995416Y-60725891D01*
X137030501Y-60459397D01*
X137030501Y-60190603D01*
X136995416Y-59924109D01*
X136925847Y-59664474D01*
X136841151Y-59460000D01*
X143778548Y-59460000D01*
X145500115Y-59460000D01*
X145471978Y-59502110D01*
X145422979Y-59620402D01*
X145398000Y-59745981D01*
X145398000Y-59874019D01*
X145422979Y-59999598D01*
X145471978Y-60117890D01*
X145500115Y-60160000D01*
X143778548Y-60160000D01*
X143778800Y-60161923D01*
X143839868Y-60389828D01*
X143839872Y-60389840D01*
X143930162Y-60607822D01*
X143930167Y-60607833D01*
X144048140Y-60812167D01*
X144191787Y-60999372D01*
X144358627Y-61166212D01*
X144545832Y-61309859D01*
X144750166Y-61427832D01*
X144750177Y-61427837D01*
X144968159Y-61518127D01*
X144968171Y-61518131D01*
X145196081Y-61579200D01*
X145196090Y-61579202D01*
X145430014Y-61609999D01*
X145430020Y-61610000D01*
X145698000Y-61610000D01*
X145698000Y-60357885D01*
X145740110Y-60386022D01*
X145858402Y-60435021D01*
X145983981Y-60460000D01*
X146112019Y-60460000D01*
X146237598Y-60435021D01*
X146355890Y-60386022D01*
X146398000Y-60357885D01*
X146398000Y-61610000D01*
X146665980Y-61610000D01*
X146665985Y-61609999D01*
X146899909Y-61579202D01*
X146899918Y-61579200D01*
X147127828Y-61518131D01*
X147127840Y-61518127D01*
X147345822Y-61427837D01*
X147345833Y-61427832D01*
X147550167Y-61309859D01*
X147737372Y-61166212D01*
X147904212Y-60999372D01*
X148047859Y-60812167D01*
X148165832Y-60607833D01*
X148165837Y-60607822D01*
X148256127Y-60389840D01*
X148256131Y-60389828D01*
X148317199Y-60161923D01*
X148317452Y-60160000D01*
X146595885Y-60160000D01*
X146624022Y-60117890D01*
X146673021Y-59999598D01*
X146698000Y-59874019D01*
X146698000Y-59745981D01*
X146673021Y-59620402D01*
X146624022Y-59502110D01*
X146595885Y-59460000D01*
X148317452Y-59460000D01*
X148317199Y-59458076D01*
X148256131Y-59230171D01*
X148256127Y-59230159D01*
X148165837Y-59012177D01*
X148165832Y-59012166D01*
X148047859Y-58807832D01*
X147904212Y-58620627D01*
X147737372Y-58453787D01*
X147550167Y-58310140D01*
X147345833Y-58192167D01*
X147345822Y-58192162D01*
X147127840Y-58101872D01*
X147127828Y-58101868D01*
X146899918Y-58040799D01*
X146899909Y-58040797D01*
X146665985Y-58010000D01*
X146398000Y-58010000D01*
X146398000Y-59262114D01*
X146355890Y-59233978D01*
X146237598Y-59184979D01*
X146112019Y-59160000D01*
X145983981Y-59160000D01*
X145858402Y-59184979D01*
X145740110Y-59233978D01*
X145698000Y-59262114D01*
X145698000Y-58010000D01*
X145430014Y-58010000D01*
X145196090Y-58040797D01*
X145196081Y-58040799D01*
X144968171Y-58101868D01*
X144968159Y-58101872D01*
X144750177Y-58192162D01*
X144750166Y-58192167D01*
X144545832Y-58310140D01*
X144358627Y-58453787D01*
X144191787Y-58620627D01*
X144048140Y-58807832D01*
X143930167Y-59012166D01*
X143930162Y-59012177D01*
X143839872Y-59230159D01*
X143839868Y-59230171D01*
X143778800Y-59458076D01*
X143778548Y-59460000D01*
X136841151Y-59460000D01*
X136822984Y-59416141D01*
X136811153Y-59395649D01*
X136688593Y-59183366D01*
X136688585Y-59183355D01*
X136524954Y-58970110D01*
X136524951Y-58970106D01*
X135513963Y-57959119D01*
X135513949Y-57959104D01*
X135508958Y-57954113D01*
X135508956Y-57954110D01*
X135318890Y-57764044D01*
X135170199Y-57649949D01*
X135105642Y-57600413D01*
X135105637Y-57600409D01*
X135105633Y-57600406D01*
X134872863Y-57466018D01*
X134872854Y-57466014D01*
X134624526Y-57363153D01*
X134624524Y-57363152D01*
X134624523Y-57363152D01*
X134529489Y-57337688D01*
X134364891Y-57293584D01*
X134364888Y-57293583D01*
X134364886Y-57293583D01*
X134098404Y-57258499D01*
X134098397Y-57258499D01*
X133829603Y-57258499D01*
X133823430Y-57258499D01*
X133823398Y-57258500D01*
X129279500Y-57258500D01*
X129193157Y-57238793D01*
X129123916Y-57183574D01*
X129085489Y-57103782D01*
X129080500Y-57059500D01*
X129080500Y-52803007D01*
X129100207Y-52716664D01*
X129155426Y-52647423D01*
X129235218Y-52608996D01*
X129323782Y-52608996D01*
X129403574Y-52647423D01*
X129420214Y-52662293D01*
X129501733Y-52743812D01*
X129501735Y-52743813D01*
X129501738Y-52743816D01*
X129654478Y-52839789D01*
X129824745Y-52899368D01*
X129959046Y-52914500D01*
X129960679Y-52914500D01*
X129961577Y-52914642D01*
X129964618Y-52914813D01*
X129964600Y-52915121D01*
X130022172Y-52924239D01*
X130124466Y-52957477D01*
X130326648Y-52989500D01*
X133319225Y-52989500D01*
X133405568Y-53009207D01*
X133459939Y-53047785D01*
X133625110Y-53212956D01*
X133625113Y-53212958D01*
X133630104Y-53217949D01*
X133630119Y-53217963D01*
X135102652Y-54690496D01*
X135102669Y-54690514D01*
X135107040Y-54694885D01*
X135107044Y-54694890D01*
X135297110Y-54884956D01*
X135445800Y-54999050D01*
X135510358Y-55048587D01*
X135581260Y-55089522D01*
X135743141Y-55182984D01*
X135991474Y-55285847D01*
X136251109Y-55355416D01*
X136251115Y-55355416D01*
X136251116Y-55355417D01*
X136384351Y-55372958D01*
X136384356Y-55372958D01*
X136450979Y-55381729D01*
X136517600Y-55390501D01*
X136517603Y-55390501D01*
X136792570Y-55390501D01*
X136792602Y-55390500D01*
X137773325Y-55390500D01*
X137859668Y-55410207D01*
X137879199Y-55421001D01*
X137946482Y-55463278D01*
X138009105Y-55525900D01*
X138038357Y-55609494D01*
X138028441Y-55697500D01*
X137990225Y-55762984D01*
X137950882Y-55807846D01*
X137950877Y-55807852D01*
X137790661Y-56047631D01*
X137663103Y-56306291D01*
X137663101Y-56306295D01*
X137570406Y-56579367D01*
X137570403Y-56579379D01*
X137526518Y-56799999D01*
X137526519Y-56800000D01*
X139091980Y-56800000D01*
X139079668Y-56818426D01*
X139026901Y-56945818D01*
X139000000Y-57081056D01*
X139000000Y-57218944D01*
X139026901Y-57354182D01*
X139079668Y-57481574D01*
X139091980Y-57500000D01*
X137526519Y-57500000D01*
X137570403Y-57720620D01*
X137570406Y-57720632D01*
X137663101Y-57993704D01*
X137663103Y-57993708D01*
X137790661Y-58252368D01*
X137950877Y-58492146D01*
X138141027Y-58708972D01*
X138357853Y-58899122D01*
X138597631Y-59059338D01*
X138856291Y-59186896D01*
X138856295Y-59186898D01*
X139129368Y-59279593D01*
X139129382Y-59279597D01*
X139350000Y-59323480D01*
X139350000Y-57758020D01*
X139368426Y-57770332D01*
X139495818Y-57823099D01*
X139631056Y-57850000D01*
X139768944Y-57850000D01*
X139904182Y-57823099D01*
X140031574Y-57770332D01*
X140050000Y-57758020D01*
X140050000Y-59323479D01*
X140270617Y-59279597D01*
X140270631Y-59279593D01*
X140543704Y-59186898D01*
X140543708Y-59186896D01*
X140802368Y-59059338D01*
X141042146Y-58899122D01*
X141258972Y-58708972D01*
X141449122Y-58492146D01*
X141609338Y-58252368D01*
X141736896Y-57993708D01*
X141736898Y-57993704D01*
X141829593Y-57720632D01*
X141829596Y-57720620D01*
X141873481Y-57500000D01*
X140308020Y-57500000D01*
X140320332Y-57481574D01*
X140373099Y-57354182D01*
X140400000Y-57218944D01*
X140400000Y-57081056D01*
X140373099Y-56945818D01*
X140320332Y-56818426D01*
X140308020Y-56800000D01*
X141873481Y-56800000D01*
X141873481Y-56799999D01*
X141829596Y-56579379D01*
X141829593Y-56579367D01*
X141736898Y-56306295D01*
X141736896Y-56306291D01*
X141609338Y-56047631D01*
X141449122Y-55807853D01*
X141409775Y-55762986D01*
X141367662Y-55685076D01*
X141363523Y-55596610D01*
X141398178Y-55515108D01*
X141453514Y-55463280D01*
X141602262Y-55369816D01*
X141729816Y-55242262D01*
X141825789Y-55089522D01*
X141885368Y-54919255D01*
X141900500Y-54784954D01*
X141900500Y-54121772D01*
X141920207Y-54035429D01*
X141958786Y-53981058D01*
X143031059Y-52908786D01*
X143106048Y-52861667D01*
X143171773Y-52850500D01*
X146184394Y-52850500D01*
X146184397Y-52850500D01*
X146450891Y-52815416D01*
X146710526Y-52745847D01*
X146958859Y-52642984D01*
X146974893Y-52633726D01*
X146986264Y-52627162D01*
X147070892Y-52601057D01*
X147085765Y-52600500D01*
X147594952Y-52600500D01*
X147594954Y-52600500D01*
X147729255Y-52585368D01*
X147899522Y-52525789D01*
X148052262Y-52429816D01*
X148179816Y-52302262D01*
X148275789Y-52149522D01*
X148335368Y-51979255D01*
X148350500Y-51844954D01*
X148350500Y-49755046D01*
X148335368Y-49620745D01*
X148275789Y-49450478D01*
X148179816Y-49297738D01*
X148179813Y-49297735D01*
X148179812Y-49297733D01*
X148052266Y-49170187D01*
X148052263Y-49170185D01*
X148052262Y-49170184D01*
X147899522Y-49074211D01*
X147899521Y-49074210D01*
X147899520Y-49074210D01*
X147729258Y-49014633D01*
X147729257Y-49014632D01*
X147729255Y-49014632D01*
X147594954Y-48999500D01*
X147594952Y-48999500D01*
X147085765Y-48999500D01*
X146999422Y-48979793D01*
X146986264Y-48972838D01*
X146958865Y-48957019D01*
X146958857Y-48957015D01*
X146855994Y-48914408D01*
X146710526Y-48854153D01*
X146710524Y-48854152D01*
X146710523Y-48854152D01*
X146450895Y-48784585D01*
X146450894Y-48784584D01*
X146450891Y-48784584D01*
X146184397Y-48749500D01*
X142105603Y-48749500D01*
X141839109Y-48784584D01*
X141839106Y-48784584D01*
X141839104Y-48784585D01*
X141579476Y-48854152D01*
X141331144Y-48957014D01*
X141331142Y-48957015D01*
X141098360Y-49091411D01*
X141098354Y-49091414D01*
X141005771Y-49162456D01*
X141005771Y-49162457D01*
X140934658Y-49217023D01*
X140885108Y-49255045D01*
X140790076Y-49350077D01*
X140695044Y-49445110D01*
X140695040Y-49445114D01*
X139424449Y-50715707D01*
X139058942Y-51081214D01*
X138983954Y-51128333D01*
X138918228Y-51139500D01*
X138255046Y-51139500D01*
X138120745Y-51154632D01*
X138120742Y-51154632D01*
X138120741Y-51154633D01*
X137950479Y-51214210D01*
X137950473Y-51214213D01*
X137879199Y-51258998D01*
X137795606Y-51288249D01*
X137773325Y-51289500D01*
X137583772Y-51289500D01*
X137497429Y-51269793D01*
X137443058Y-51231214D01*
X137088786Y-50876942D01*
X137041667Y-50801954D01*
X137030500Y-50736228D01*
X137030500Y-48760605D01*
X137029038Y-48749500D01*
X136995416Y-48494109D01*
X136925847Y-48234474D01*
X136822984Y-47986141D01*
X136707123Y-47785464D01*
X136688590Y-47753363D01*
X136524953Y-47540106D01*
X136355180Y-47370333D01*
X136308061Y-47295345D01*
X136298145Y-47207338D01*
X136326220Y-47125640D01*
X136365777Y-47061089D01*
X136459172Y-46835612D01*
X136516146Y-46598302D01*
X136535294Y-46355000D01*
X136516146Y-46111698D01*
X136514262Y-46103852D01*
X136493759Y-46018452D01*
X136459172Y-45874388D01*
X136452752Y-45858888D01*
X136365778Y-45648912D01*
X136365775Y-45648907D01*
X136326218Y-45584357D01*
X136297907Y-45500441D01*
X136308809Y-45412552D01*
X136355177Y-45339666D01*
X136524955Y-45169889D01*
X136688587Y-44956641D01*
X136822984Y-44723859D01*
X136925847Y-44475526D01*
X136995415Y-44215891D01*
X137030500Y-43949401D01*
X137030501Y-43949401D01*
X137030501Y-43680599D01*
X137030500Y-43680597D01*
X137004872Y-43485943D01*
X136995415Y-43414108D01*
X136925847Y-43154474D01*
X136841151Y-42950000D01*
X143780548Y-42950000D01*
X145502115Y-42950000D01*
X145473978Y-42992110D01*
X145424979Y-43110402D01*
X145400000Y-43235981D01*
X145400000Y-43364019D01*
X145424979Y-43489598D01*
X145473978Y-43607890D01*
X145502115Y-43650000D01*
X143780548Y-43650000D01*
X143780800Y-43651923D01*
X143841868Y-43879828D01*
X143841872Y-43879840D01*
X143932162Y-44097822D01*
X143932167Y-44097833D01*
X144050140Y-44302167D01*
X144193787Y-44489372D01*
X144360627Y-44656212D01*
X144547832Y-44799859D01*
X144752166Y-44917832D01*
X144752177Y-44917837D01*
X144970159Y-45008127D01*
X144970171Y-45008131D01*
X145198081Y-45069200D01*
X145198090Y-45069202D01*
X145432014Y-45099999D01*
X145432020Y-45100000D01*
X145700000Y-45100000D01*
X145700000Y-43847885D01*
X145742110Y-43876022D01*
X145860402Y-43925021D01*
X145985981Y-43950000D01*
X146114019Y-43950000D01*
X146239598Y-43925021D01*
X146357890Y-43876022D01*
X146400000Y-43847885D01*
X146400000Y-45100000D01*
X146667980Y-45100000D01*
X146667985Y-45099999D01*
X146901909Y-45069202D01*
X146901918Y-45069200D01*
X147129828Y-45008131D01*
X147129840Y-45008127D01*
X147347822Y-44917837D01*
X147347833Y-44917832D01*
X147552167Y-44799859D01*
X147739372Y-44656212D01*
X147906212Y-44489372D01*
X148049859Y-44302167D01*
X148167832Y-44097833D01*
X148167837Y-44097822D01*
X148258127Y-43879840D01*
X148258131Y-43879828D01*
X148319199Y-43651923D01*
X148319452Y-43650000D01*
X146597885Y-43650000D01*
X146626022Y-43607890D01*
X146675021Y-43489598D01*
X146700000Y-43364019D01*
X146700000Y-43235981D01*
X146675021Y-43110402D01*
X146626022Y-42992110D01*
X146597885Y-42950000D01*
X148319452Y-42950000D01*
X148319199Y-42948076D01*
X148258131Y-42720171D01*
X148258127Y-42720159D01*
X148167837Y-42502177D01*
X148167832Y-42502166D01*
X148049859Y-42297832D01*
X147906212Y-42110627D01*
X147739372Y-41943787D01*
X147552167Y-41800140D01*
X147347833Y-41682167D01*
X147347822Y-41682162D01*
X147129840Y-41591872D01*
X147129828Y-41591868D01*
X146901918Y-41530799D01*
X146901909Y-41530797D01*
X146667985Y-41500000D01*
X146400000Y-41500000D01*
X146400000Y-42752114D01*
X146357890Y-42723978D01*
X146239598Y-42674979D01*
X146114019Y-42650000D01*
X145985981Y-42650000D01*
X145860402Y-42674979D01*
X145742110Y-42723978D01*
X145700000Y-42752114D01*
X145700000Y-41500000D01*
X145432014Y-41500000D01*
X145198090Y-41530797D01*
X145198081Y-41530799D01*
X144970171Y-41591868D01*
X144970159Y-41591872D01*
X144752177Y-41682162D01*
X144752166Y-41682167D01*
X144547832Y-41800140D01*
X144360627Y-41943787D01*
X144193787Y-42110627D01*
X144050140Y-42297832D01*
X143932167Y-42502166D01*
X143932162Y-42502177D01*
X143841872Y-42720159D01*
X143841868Y-42720171D01*
X143780800Y-42948076D01*
X143780548Y-42950000D01*
X136841151Y-42950000D01*
X136822984Y-42906141D01*
X136811153Y-42885649D01*
X136688593Y-42673366D01*
X136688590Y-42673363D01*
X136688589Y-42673362D01*
X136688587Y-42673358D01*
X136524955Y-42460110D01*
X136524954Y-42460109D01*
X136524951Y-42460105D01*
X136524948Y-42460102D01*
X135259963Y-41195119D01*
X135259949Y-41195104D01*
X135254958Y-41190113D01*
X135254956Y-41190110D01*
X135064890Y-41000044D01*
X134916199Y-40885949D01*
X134851642Y-40836413D01*
X134851637Y-40836409D01*
X134851633Y-40836406D01*
X134618863Y-40702018D01*
X134618854Y-40702014D01*
X134370526Y-40599153D01*
X134370524Y-40599152D01*
X134370523Y-40599152D01*
X134265667Y-40571056D01*
X134110891Y-40529584D01*
X134110888Y-40529583D01*
X134110886Y-40529583D01*
X133844404Y-40494499D01*
X133844397Y-40494499D01*
X133575603Y-40494499D01*
X133569430Y-40494499D01*
X133569398Y-40494500D01*
X129279500Y-40494500D01*
X129193157Y-40474793D01*
X129123916Y-40419574D01*
X129085489Y-40339782D01*
X129080500Y-40295500D01*
X129080500Y-40289999D01*
X137526518Y-40289999D01*
X137526519Y-40290000D01*
X139091980Y-40290000D01*
X139079668Y-40308426D01*
X139026901Y-40435818D01*
X139000000Y-40571056D01*
X139000000Y-40708944D01*
X139026901Y-40844182D01*
X139079668Y-40971574D01*
X139091980Y-40990000D01*
X137526519Y-40990000D01*
X137570403Y-41210620D01*
X137570406Y-41210632D01*
X137663101Y-41483704D01*
X137663103Y-41483708D01*
X137790661Y-41742368D01*
X137950877Y-41982146D01*
X138141027Y-42198972D01*
X138357853Y-42389122D01*
X138597631Y-42549338D01*
X138856291Y-42676896D01*
X138856295Y-42676898D01*
X139129368Y-42769593D01*
X139129382Y-42769597D01*
X139350000Y-42813480D01*
X139350000Y-41248020D01*
X139368426Y-41260332D01*
X139495818Y-41313099D01*
X139631056Y-41340000D01*
X139768944Y-41340000D01*
X139904182Y-41313099D01*
X140031574Y-41260332D01*
X140050000Y-41248020D01*
X140050000Y-42813479D01*
X140270617Y-42769597D01*
X140270631Y-42769593D01*
X140543704Y-42676898D01*
X140543708Y-42676896D01*
X140802368Y-42549338D01*
X141042146Y-42389122D01*
X141258972Y-42198972D01*
X141449122Y-41982146D01*
X141609338Y-41742368D01*
X141736896Y-41483708D01*
X141736898Y-41483704D01*
X141829593Y-41210632D01*
X141829596Y-41210620D01*
X141873481Y-40990000D01*
X140308020Y-40990000D01*
X140320332Y-40971574D01*
X140373099Y-40844182D01*
X140400000Y-40708944D01*
X140400000Y-40571056D01*
X140373099Y-40435818D01*
X140320332Y-40308426D01*
X140308020Y-40290000D01*
X141873481Y-40290000D01*
X141873481Y-40289999D01*
X141829596Y-40069379D01*
X141829593Y-40069367D01*
X141736898Y-39796295D01*
X141736896Y-39796291D01*
X141609338Y-39537631D01*
X141449122Y-39297853D01*
X141258972Y-39081027D01*
X141042146Y-38890877D01*
X140802368Y-38730661D01*
X140543708Y-38603103D01*
X140543704Y-38603101D01*
X140270632Y-38510406D01*
X140270620Y-38510403D01*
X140050000Y-38466518D01*
X140050000Y-40031979D01*
X140031574Y-40019668D01*
X139904182Y-39966901D01*
X139768944Y-39940000D01*
X139631056Y-39940000D01*
X139495818Y-39966901D01*
X139368426Y-40019668D01*
X139350000Y-40031979D01*
X139350000Y-38466519D01*
X139349999Y-38466518D01*
X139129379Y-38510403D01*
X139129367Y-38510406D01*
X138856295Y-38603101D01*
X138856291Y-38603103D01*
X138597631Y-38730661D01*
X138357853Y-38890877D01*
X138141027Y-39081027D01*
X137950877Y-39297853D01*
X137790661Y-39537631D01*
X137663103Y-39796291D01*
X137663101Y-39796295D01*
X137570406Y-40069367D01*
X137570403Y-40069379D01*
X137526518Y-40289999D01*
X129080500Y-40289999D01*
X129080500Y-39255772D01*
X129100207Y-39169429D01*
X129138786Y-39115058D01*
X129362967Y-38890877D01*
X129687956Y-38565889D01*
X129687957Y-38565887D01*
X129699292Y-38554552D01*
X129699298Y-38554545D01*
X130473352Y-37780490D01*
X130548338Y-37733373D01*
X130549842Y-37732854D01*
X130676252Y-37689945D01*
X130946718Y-37556566D01*
X131197461Y-37389025D01*
X131424189Y-37190189D01*
X131623025Y-36963461D01*
X131790566Y-36712718D01*
X131923945Y-36442252D01*
X132020880Y-36156691D01*
X132079713Y-35860920D01*
X132099436Y-35560000D01*
X132079713Y-35259080D01*
X132020880Y-34963309D01*
X131923945Y-34677748D01*
X131790566Y-34407282D01*
X131623025Y-34156539D01*
X131498965Y-34015076D01*
X132574000Y-34015076D01*
X132574000Y-35210000D01*
X134196357Y-35210000D01*
X134143207Y-35338316D01*
X134114000Y-35485147D01*
X134114000Y-35634853D01*
X134143207Y-35781684D01*
X134196357Y-35910000D01*
X132574000Y-35910000D01*
X132574000Y-37104923D01*
X132589124Y-37239146D01*
X132648662Y-37409300D01*
X132648664Y-37409304D01*
X132744577Y-37561948D01*
X132744580Y-37561952D01*
X132872047Y-37689419D01*
X132872051Y-37689422D01*
X133024695Y-37785335D01*
X133024699Y-37785337D01*
X133194853Y-37844875D01*
X133329076Y-37860000D01*
X134524000Y-37860000D01*
X134524000Y-36237643D01*
X134652316Y-36290793D01*
X134799147Y-36320000D01*
X134948853Y-36320000D01*
X135095684Y-36290793D01*
X135224000Y-36237643D01*
X135224000Y-37860000D01*
X136418924Y-37860000D01*
X136553146Y-37844875D01*
X136723300Y-37785337D01*
X136723304Y-37785335D01*
X136875948Y-37689422D01*
X136875952Y-37689419D01*
X137003419Y-37561952D01*
X137003422Y-37561948D01*
X137099335Y-37409304D01*
X137099337Y-37409300D01*
X137158875Y-37239146D01*
X137174000Y-37104923D01*
X137174000Y-36354923D01*
X138658000Y-36354923D01*
X138673124Y-36489146D01*
X138732662Y-36659300D01*
X138732664Y-36659304D01*
X138828577Y-36811948D01*
X138828580Y-36811952D01*
X138956047Y-36939419D01*
X138956051Y-36939422D01*
X139108695Y-37035335D01*
X139108699Y-37035337D01*
X139278853Y-37094875D01*
X139413076Y-37110000D01*
X139858000Y-37110000D01*
X140558000Y-37110000D01*
X141002924Y-37110000D01*
X141137146Y-37094875D01*
X141307300Y-37035337D01*
X141307304Y-37035335D01*
X141459948Y-36939422D01*
X141459952Y-36939419D01*
X141587419Y-36811952D01*
X141587422Y-36811948D01*
X141683335Y-36659304D01*
X141683337Y-36659300D01*
X141742875Y-36489146D01*
X141758000Y-36354923D01*
X141758000Y-35910000D01*
X140558000Y-35910000D01*
X140558000Y-37110000D01*
X139858000Y-37110000D01*
X139858000Y-35910000D01*
X138658000Y-35910000D01*
X138658000Y-36354923D01*
X137174000Y-36354923D01*
X137174000Y-35910000D01*
X135551643Y-35910000D01*
X135604793Y-35781684D01*
X135634000Y-35634853D01*
X135634000Y-35510272D01*
X139958000Y-35510272D01*
X139958000Y-35609728D01*
X139996060Y-35701614D01*
X140066386Y-35771940D01*
X140158272Y-35810000D01*
X140257728Y-35810000D01*
X140349614Y-35771940D01*
X140419940Y-35701614D01*
X140458000Y-35609728D01*
X140458000Y-35510272D01*
X140419940Y-35418386D01*
X140349614Y-35348060D01*
X140257728Y-35310000D01*
X140158272Y-35310000D01*
X140066386Y-35348060D01*
X139996060Y-35418386D01*
X139958000Y-35510272D01*
X135634000Y-35510272D01*
X135634000Y-35485147D01*
X135604793Y-35338316D01*
X135551643Y-35210000D01*
X137174000Y-35210000D01*
X137174000Y-34765076D01*
X138658000Y-34765076D01*
X138658000Y-35210000D01*
X139858000Y-35210000D01*
X140558000Y-35210000D01*
X141758000Y-35210000D01*
X141758000Y-34765076D01*
X141742875Y-34630853D01*
X141683337Y-34460699D01*
X141683335Y-34460695D01*
X141587422Y-34308051D01*
X141587419Y-34308047D01*
X141459952Y-34180580D01*
X141459948Y-34180577D01*
X141307304Y-34084664D01*
X141307300Y-34084662D01*
X141137146Y-34025124D01*
X141002924Y-34010000D01*
X140558000Y-34010000D01*
X140558000Y-35210000D01*
X139858000Y-35210000D01*
X139858000Y-34010000D01*
X139413076Y-34010000D01*
X139278853Y-34025124D01*
X139108699Y-34084662D01*
X139108695Y-34084664D01*
X138956051Y-34180577D01*
X138956047Y-34180580D01*
X138828580Y-34308047D01*
X138828577Y-34308051D01*
X138732664Y-34460695D01*
X138732662Y-34460699D01*
X138673124Y-34630853D01*
X138658000Y-34765076D01*
X137174000Y-34765076D01*
X137174000Y-34015076D01*
X137158875Y-33880853D01*
X137099337Y-33710699D01*
X137099335Y-33710695D01*
X137003422Y-33558051D01*
X137003419Y-33558047D01*
X136875952Y-33430580D01*
X136875948Y-33430577D01*
X136723304Y-33334664D01*
X136723300Y-33334662D01*
X136553146Y-33275124D01*
X136418924Y-33260000D01*
X135224000Y-33260000D01*
X135224000Y-34882356D01*
X135095684Y-34829207D01*
X134948853Y-34800000D01*
X134799147Y-34800000D01*
X134652316Y-34829207D01*
X134524000Y-34882356D01*
X134524000Y-33260000D01*
X133329076Y-33260000D01*
X133194853Y-33275124D01*
X133024699Y-33334662D01*
X133024695Y-33334664D01*
X132872051Y-33430577D01*
X132872047Y-33430580D01*
X132744580Y-33558047D01*
X132744577Y-33558051D01*
X132648664Y-33710695D01*
X132648662Y-33710699D01*
X132589124Y-33880853D01*
X132574000Y-34015076D01*
X131498965Y-34015076D01*
X131490567Y-34005500D01*
X131424189Y-33929810D01*
X131294921Y-33816446D01*
X131197461Y-33730975D01*
X131073760Y-33648320D01*
X130946726Y-33563439D01*
X130946724Y-33563438D01*
X130946718Y-33563434D01*
X130676252Y-33430055D01*
X130676250Y-33430054D01*
X130390694Y-33333121D01*
X130390685Y-33333118D01*
X130094922Y-33274287D01*
X130094918Y-33274286D01*
X129794000Y-33254564D01*
X129493081Y-33274286D01*
X129493077Y-33274287D01*
X129197314Y-33333118D01*
X129197305Y-33333121D01*
X128911749Y-33430054D01*
X128798773Y-33485768D01*
X128641282Y-33563434D01*
X128641278Y-33563436D01*
X128641273Y-33563439D01*
X128390540Y-33730974D01*
X128163810Y-33929810D01*
X127964974Y-34156540D01*
X127797437Y-34407276D01*
X127715830Y-34572757D01*
X127659966Y-34641478D01*
X127579818Y-34679156D01*
X127491258Y-34678328D01*
X127411828Y-34639157D01*
X127396639Y-34625454D01*
X127085222Y-34314036D01*
X126919612Y-34193714D01*
X126919613Y-34193714D01*
X126919611Y-34193713D01*
X126788896Y-34127111D01*
X126737219Y-34100780D01*
X126737218Y-34100779D01*
X126639876Y-34069151D01*
X126639876Y-34069150D01*
X126542537Y-34037523D01*
X126542530Y-34037522D01*
X126427735Y-34019340D01*
X126340352Y-34005500D01*
X123976648Y-34005500D01*
X123915635Y-34015163D01*
X123774470Y-34037522D01*
X123774463Y-34037523D01*
X123672173Y-34070760D01*
X123614600Y-34079878D01*
X123614618Y-34080187D01*
X123611577Y-34080357D01*
X123610679Y-34080500D01*
X123609046Y-34080500D01*
X123474745Y-34095632D01*
X123474742Y-34095632D01*
X123474741Y-34095633D01*
X123304479Y-34155210D01*
X123304478Y-34155210D01*
X123151733Y-34251187D01*
X123024187Y-34378733D01*
X122928210Y-34531478D01*
X122928210Y-34531479D01*
X122876826Y-34678328D01*
X122868632Y-34701745D01*
X122854271Y-34829207D01*
X122853500Y-34836048D01*
X122853500Y-34837678D01*
X122853357Y-34838575D01*
X122853187Y-34841618D01*
X122852878Y-34841600D01*
X122843760Y-34899172D01*
X122810523Y-35001463D01*
X122810522Y-35001470D01*
X122795831Y-35094227D01*
X122778500Y-35203648D01*
X115783244Y-35203648D01*
X115821532Y-35094227D01*
X115894024Y-34776617D01*
X115930500Y-34452889D01*
X115930500Y-34127111D01*
X115894024Y-33803383D01*
X115821532Y-33485773D01*
X115713935Y-33178278D01*
X115572585Y-32884763D01*
X115572581Y-32884756D01*
X115399266Y-32608926D01*
X115399261Y-32608918D01*
X115196143Y-32354217D01*
X114965782Y-32123856D01*
X114711081Y-31920738D01*
X114711073Y-31920733D01*
X114435243Y-31747418D01*
X114141724Y-31606066D01*
X114141707Y-31606059D01*
X113834231Y-31498469D01*
X113834228Y-31498468D01*
X113516613Y-31425975D01*
X113247989Y-31395708D01*
X113192889Y-31389500D01*
X112867111Y-31389500D01*
X112820025Y-31394805D01*
X112543386Y-31425975D01*
X112225771Y-31498468D01*
X112225768Y-31498469D01*
X111918292Y-31606059D01*
X111918275Y-31606066D01*
X111624756Y-31747418D01*
X111348926Y-31920733D01*
X111348918Y-31920738D01*
X111094217Y-32123856D01*
X110863856Y-32354217D01*
X110660738Y-32608918D01*
X110660733Y-32608926D01*
X110487418Y-32884756D01*
X110346066Y-33178275D01*
X110346059Y-33178292D01*
X110238469Y-33485768D01*
X110238468Y-33485771D01*
X110165975Y-33803386D01*
X110129500Y-34127110D01*
X107815500Y-34127110D01*
X107815500Y-29274500D01*
X107835207Y-29188157D01*
X107890426Y-29118916D01*
X107970218Y-29080489D01*
X108014500Y-29075500D01*
X143311000Y-29075500D01*
X143397343Y-29095207D01*
G37*
%TD.AperFunction*%
%TD*%
%TA.AperFunction,Conductor*%
%TO.N,GNDPWR*%
G36*
X207666843Y-29095207D02*
G01*
X207736084Y-29150426D01*
X207774511Y-29230218D01*
X207779500Y-29274500D01*
X207779500Y-106615500D01*
X207759793Y-106701843D01*
X207704574Y-106771084D01*
X207624782Y-106809511D01*
X207580500Y-106814500D01*
X177026433Y-106814500D01*
X176940090Y-106794793D01*
X176870849Y-106739574D01*
X176832422Y-106659782D01*
X176832422Y-106571218D01*
X176870849Y-106491426D01*
X176885719Y-106474786D01*
X179217924Y-104142581D01*
X181796461Y-101564044D01*
X181897686Y-101437112D01*
X199664500Y-101437112D01*
X199664500Y-101762887D01*
X199700975Y-102086613D01*
X199773468Y-102404228D01*
X199773469Y-102404231D01*
X199881059Y-102711707D01*
X199881064Y-102711719D01*
X199881065Y-102711722D01*
X200022010Y-103004397D01*
X200022418Y-103005243D01*
X200195733Y-103281073D01*
X200195738Y-103281081D01*
X200398856Y-103535782D01*
X200629217Y-103766143D01*
X200883918Y-103969261D01*
X200883926Y-103969266D01*
X201159756Y-104142581D01*
X201159758Y-104142582D01*
X201159763Y-104142585D01*
X201453278Y-104283935D01*
X201760773Y-104391532D01*
X202078383Y-104464024D01*
X202402111Y-104500500D01*
X202402112Y-104500500D01*
X202727888Y-104500500D01*
X202727889Y-104500500D01*
X203051617Y-104464024D01*
X203369227Y-104391532D01*
X203676722Y-104283935D01*
X203970237Y-104142585D01*
X204246081Y-103969261D01*
X204500783Y-103766143D01*
X204731143Y-103535783D01*
X204934261Y-103281081D01*
X205107585Y-103005237D01*
X205248935Y-102711722D01*
X205356532Y-102404227D01*
X205429024Y-102086617D01*
X205465500Y-101762889D01*
X205465500Y-101437111D01*
X205429024Y-101113383D01*
X205356532Y-100795773D01*
X205248935Y-100488278D01*
X205107585Y-100194763D01*
X205093739Y-100172727D01*
X204934266Y-99918926D01*
X204934261Y-99918918D01*
X204731143Y-99664217D01*
X204500782Y-99433856D01*
X204246081Y-99230738D01*
X204246073Y-99230733D01*
X203970243Y-99057418D01*
X203676724Y-98916066D01*
X203676707Y-98916059D01*
X203369231Y-98808469D01*
X203369228Y-98808468D01*
X203051613Y-98735975D01*
X202782989Y-98705708D01*
X202727889Y-98699500D01*
X202402111Y-98699500D01*
X202355025Y-98704805D01*
X202078386Y-98735975D01*
X201760771Y-98808468D01*
X201760768Y-98808469D01*
X201453292Y-98916059D01*
X201453275Y-98916066D01*
X201159756Y-99057418D01*
X200883926Y-99230733D01*
X200883918Y-99230738D01*
X200629217Y-99433856D01*
X200398856Y-99664217D01*
X200195738Y-99918918D01*
X200195733Y-99918926D01*
X200022418Y-100194756D01*
X199881066Y-100488275D01*
X199881059Y-100488292D01*
X199773469Y-100795768D01*
X199773468Y-100795771D01*
X199700975Y-101113386D01*
X199664500Y-101437112D01*
X181897686Y-101437112D01*
X181992577Y-101318123D01*
X182159926Y-101051789D01*
X182296402Y-100768394D01*
X182400290Y-100471500D01*
X182470283Y-100164840D01*
X182473958Y-100132221D01*
X182503207Y-100048628D01*
X182565830Y-99986004D01*
X182649423Y-99956752D01*
X182671707Y-99955500D01*
X198277272Y-99955500D01*
X198277273Y-99955500D01*
X198589840Y-99920282D01*
X198896500Y-99850290D01*
X199193394Y-99746402D01*
X199476789Y-99609926D01*
X199743123Y-99442577D01*
X199989044Y-99246461D01*
X203690559Y-95544945D01*
X203765545Y-95497828D01*
X203853552Y-95487912D01*
X203892762Y-95496399D01*
X203911466Y-95502477D01*
X204113649Y-95534500D01*
X204113650Y-95534500D01*
X204318351Y-95534500D01*
X204318352Y-95534500D01*
X204520535Y-95502477D01*
X204622828Y-95469239D01*
X204680399Y-95460121D01*
X204680382Y-95459813D01*
X204683424Y-95459642D01*
X204684322Y-95459500D01*
X204685952Y-95459500D01*
X204685954Y-95459500D01*
X204820255Y-95444368D01*
X204990522Y-95384789D01*
X205143262Y-95288816D01*
X205270816Y-95161262D01*
X205366789Y-95008522D01*
X205426368Y-94838255D01*
X205441500Y-94703954D01*
X205441500Y-94702322D01*
X205441642Y-94701424D01*
X205441813Y-94698382D01*
X205442121Y-94698399D01*
X205451240Y-94640828D01*
X205454596Y-94630500D01*
X205484477Y-94538535D01*
X205516500Y-94336352D01*
X205516500Y-94131649D01*
X205484477Y-93929466D01*
X205478399Y-93910762D01*
X205470462Y-93822556D01*
X205501583Y-93739640D01*
X205526942Y-93708562D01*
X205926461Y-93309044D01*
X206122577Y-93063123D01*
X206289926Y-92796789D01*
X206426402Y-92513394D01*
X206530290Y-92216500D01*
X206600282Y-91909840D01*
X206635500Y-91597273D01*
X206635500Y-91282727D01*
X206635500Y-88107727D01*
X206600282Y-87795160D01*
X206530289Y-87488500D01*
X206426402Y-87191606D01*
X206289926Y-86908211D01*
X206151755Y-86688314D01*
X206122506Y-86604727D01*
X206120368Y-86585745D01*
X206060789Y-86415478D01*
X205964816Y-86262738D01*
X205964813Y-86262735D01*
X205964812Y-86262733D01*
X205837266Y-86135187D01*
X205837263Y-86135185D01*
X205837262Y-86135184D01*
X205684522Y-86039211D01*
X205684521Y-86039210D01*
X205684520Y-86039210D01*
X205514255Y-85979632D01*
X205495268Y-85977492D01*
X205411682Y-85948242D01*
X205324556Y-85893497D01*
X205261933Y-85830873D01*
X205232682Y-85747280D01*
X205242598Y-85659273D01*
X205289717Y-85584285D01*
X205324543Y-85556510D01*
X205458123Y-85472577D01*
X205704044Y-85276461D01*
X205926461Y-85054044D01*
X206122577Y-84808123D01*
X206289926Y-84541789D01*
X206426402Y-84258394D01*
X206530289Y-83961500D01*
X206600282Y-83654840D01*
X206635500Y-83342273D01*
X206635500Y-83027727D01*
X206600282Y-82715160D01*
X206530289Y-82408500D01*
X206426402Y-82111606D01*
X206289926Y-81828211D01*
X206122577Y-81561877D01*
X205926461Y-81315956D01*
X205704044Y-81093539D01*
X205591424Y-81003727D01*
X205536207Y-80934485D01*
X205516500Y-80848143D01*
X205516500Y-77367649D01*
X205507860Y-77313097D01*
X205484477Y-77165466D01*
X205451240Y-77063172D01*
X205442121Y-77005600D01*
X205441813Y-77005618D01*
X205441642Y-77002575D01*
X205441500Y-77001678D01*
X205441500Y-77000048D01*
X205441500Y-77000046D01*
X205426368Y-76865745D01*
X205366789Y-76695478D01*
X205270816Y-76542738D01*
X205270813Y-76542735D01*
X205270812Y-76542733D01*
X205143266Y-76415187D01*
X205143263Y-76415185D01*
X205143262Y-76415184D01*
X204990522Y-76319211D01*
X204990521Y-76319210D01*
X204990520Y-76319210D01*
X204820258Y-76259633D01*
X204820257Y-76259632D01*
X204820255Y-76259632D01*
X204685954Y-76244500D01*
X204685952Y-76244500D01*
X204684321Y-76244500D01*
X204683422Y-76244357D01*
X204680382Y-76244187D01*
X204680399Y-76243878D01*
X204622827Y-76234760D01*
X204520536Y-76201523D01*
X204520529Y-76201522D01*
X204405735Y-76183340D01*
X204318352Y-76169500D01*
X204113648Y-76169500D01*
X204108225Y-76170359D01*
X203911470Y-76201522D01*
X203911463Y-76201523D01*
X203809173Y-76234760D01*
X203751600Y-76243878D01*
X203751618Y-76244187D01*
X203748577Y-76244357D01*
X203747679Y-76244500D01*
X203746046Y-76244500D01*
X203611745Y-76259632D01*
X203611742Y-76259632D01*
X203611741Y-76259633D01*
X203441479Y-76319210D01*
X203441478Y-76319210D01*
X203288733Y-76415187D01*
X203161187Y-76542733D01*
X203065210Y-76695478D01*
X203065210Y-76695479D01*
X203019928Y-76824888D01*
X203005632Y-76865745D01*
X202990500Y-77000046D01*
X202990500Y-77000048D01*
X202990500Y-77001678D01*
X202990357Y-77002575D01*
X202990187Y-77005618D01*
X202989878Y-77005600D01*
X202980760Y-77063172D01*
X202947523Y-77165463D01*
X202947522Y-77165470D01*
X202915500Y-77367649D01*
X202915500Y-80185500D01*
X202895793Y-80271843D01*
X202840574Y-80341084D01*
X202760782Y-80379511D01*
X202716500Y-80384500D01*
X201357727Y-80384500D01*
X201293615Y-80391723D01*
X201045165Y-80419717D01*
X201045161Y-80419717D01*
X201045160Y-80419718D01*
X200960362Y-80439072D01*
X200738494Y-80489712D01*
X200441621Y-80593592D01*
X200441604Y-80593599D01*
X200158205Y-80730077D01*
X199891872Y-80897426D01*
X199891869Y-80897429D01*
X199645956Y-81093538D01*
X194758538Y-85980956D01*
X194562429Y-86226869D01*
X194562426Y-86226872D01*
X194395077Y-86493205D01*
X194258594Y-86776614D01*
X194258594Y-86776615D01*
X194154711Y-87073495D01*
X194154710Y-87073498D01*
X194101747Y-87305549D01*
X194084717Y-87380161D01*
X194049500Y-87692727D01*
X194049500Y-89075500D01*
X194029793Y-89161843D01*
X193974574Y-89231084D01*
X193894782Y-89269511D01*
X193850500Y-89274500D01*
X180642434Y-89274500D01*
X180556091Y-89254793D01*
X180501720Y-89216214D01*
X177601122Y-86315617D01*
X177597088Y-86311465D01*
X177515077Y-86224538D01*
X177490439Y-86203864D01*
X177477640Y-86192135D01*
X177459043Y-86173538D01*
X177365313Y-86098790D01*
X177361497Y-86095668D01*
X177265177Y-86014847D01*
X177243519Y-86000602D01*
X177228814Y-85989936D01*
X177215893Y-85979632D01*
X177213123Y-85977423D01*
X177213120Y-85977420D01*
X177135684Y-85928764D01*
X177106319Y-85910313D01*
X177102872Y-85908097D01*
X176992623Y-85835586D01*
X176992618Y-85835583D01*
X176975063Y-85826767D01*
X176958503Y-85817434D01*
X176946789Y-85810074D01*
X176946785Y-85810072D01*
X176827495Y-85752624D01*
X176824528Y-85751165D01*
X176701098Y-85689176D01*
X176688510Y-85684595D01*
X176670227Y-85676888D01*
X176663403Y-85673601D01*
X176663392Y-85673597D01*
X176532503Y-85627796D01*
X176530169Y-85626963D01*
X176394560Y-85577606D01*
X176394557Y-85577605D01*
X176394554Y-85577604D01*
X176391898Y-85576974D01*
X176387577Y-85575950D01*
X176367792Y-85570161D01*
X176366517Y-85569715D01*
X176366497Y-85569709D01*
X176225229Y-85537465D01*
X176223620Y-85537091D01*
X176077128Y-85502372D01*
X176076202Y-85502264D01*
X176065381Y-85500403D01*
X176065339Y-85500652D01*
X176059851Y-85499719D01*
X175909580Y-85482787D01*
X175908761Y-85482692D01*
X175753127Y-85464501D01*
X175753113Y-85464500D01*
X175753111Y-85464500D01*
X175426889Y-85464500D01*
X175426886Y-85464500D01*
X175426872Y-85464501D01*
X175271237Y-85482692D01*
X175270418Y-85482786D01*
X175120177Y-85499715D01*
X175114665Y-85500652D01*
X175114623Y-85500407D01*
X175103816Y-85502261D01*
X175102882Y-85502370D01*
X175102870Y-85502372D01*
X174956405Y-85537085D01*
X174954795Y-85537460D01*
X174813492Y-85569711D01*
X174812214Y-85570159D01*
X174792419Y-85575951D01*
X174785444Y-85577604D01*
X174785431Y-85577608D01*
X174649808Y-85626970D01*
X174647475Y-85627803D01*
X174516620Y-85673592D01*
X174516595Y-85673602D01*
X174509755Y-85676896D01*
X174491502Y-85684590D01*
X174478895Y-85689179D01*
X174478893Y-85689180D01*
X174478806Y-85689224D01*
X174478772Y-85689232D01*
X174473580Y-85691472D01*
X174473204Y-85690600D01*
X174392802Y-85710362D01*
X174306144Y-85692090D01*
X174235996Y-85638028D01*
X174196251Y-85558884D01*
X174190500Y-85511389D01*
X174190500Y-79834500D01*
X174210207Y-79748157D01*
X174265426Y-79678916D01*
X174345218Y-79640489D01*
X174389500Y-79635500D01*
X180497272Y-79635500D01*
X180497273Y-79635500D01*
X180809840Y-79600282D01*
X181116500Y-79530290D01*
X181413394Y-79426402D01*
X181696789Y-79289926D01*
X181963123Y-79122577D01*
X182209044Y-78926461D01*
X184750506Y-76384999D01*
X189186116Y-76384999D01*
X189186117Y-76385000D01*
X190533663Y-76385000D01*
X190470359Y-76479742D01*
X190413822Y-76616233D01*
X190385000Y-76761131D01*
X190385000Y-76908869D01*
X190413822Y-77053767D01*
X190470359Y-77190258D01*
X190533663Y-77285000D01*
X189186116Y-77285000D01*
X189211112Y-77399903D01*
X189211112Y-77399906D01*
X189311088Y-77667950D01*
X189311090Y-77667955D01*
X189448193Y-77919042D01*
X189448197Y-77919048D01*
X189619643Y-78148071D01*
X189821928Y-78350356D01*
X190050951Y-78521802D01*
X190050957Y-78521806D01*
X190302044Y-78658909D01*
X190302049Y-78658911D01*
X190570094Y-78758887D01*
X190685000Y-78783882D01*
X190685000Y-77436336D01*
X190779742Y-77499641D01*
X190916233Y-77556178D01*
X191061131Y-77585000D01*
X191208869Y-77585000D01*
X191353767Y-77556178D01*
X191490258Y-77499641D01*
X191585000Y-77436336D01*
X191585000Y-78783882D01*
X191699905Y-78758887D01*
X191967950Y-78658911D01*
X191967955Y-78658909D01*
X192219042Y-78521806D01*
X192219048Y-78521802D01*
X192448071Y-78350356D01*
X192650356Y-78148071D01*
X192821802Y-77919048D01*
X192821806Y-77919042D01*
X192958909Y-77667955D01*
X192958911Y-77667950D01*
X193058887Y-77399906D01*
X193058887Y-77399903D01*
X193083884Y-77285000D01*
X191736337Y-77285000D01*
X191799641Y-77190258D01*
X191856178Y-77053767D01*
X191885000Y-76908869D01*
X191885000Y-76761131D01*
X191856178Y-76616233D01*
X191799641Y-76479742D01*
X191736337Y-76385000D01*
X193083883Y-76385000D01*
X193083883Y-76384999D01*
X193058887Y-76270096D01*
X193058887Y-76270093D01*
X192958911Y-76002049D01*
X192958909Y-76002044D01*
X192821806Y-75750957D01*
X192821802Y-75750951D01*
X192650356Y-75521928D01*
X192448071Y-75319643D01*
X192219048Y-75148197D01*
X192219042Y-75148193D01*
X191967955Y-75011090D01*
X191967950Y-75011088D01*
X191699904Y-74911112D01*
X191585000Y-74886116D01*
X191585000Y-76233663D01*
X191490258Y-76170359D01*
X191353767Y-76113822D01*
X191208869Y-76085000D01*
X191061131Y-76085000D01*
X190916233Y-76113822D01*
X190779742Y-76170359D01*
X190685000Y-76233663D01*
X190685000Y-74886116D01*
X190684999Y-74886116D01*
X190570096Y-74911112D01*
X190570093Y-74911112D01*
X190302049Y-75011088D01*
X190302044Y-75011090D01*
X190050957Y-75148193D01*
X190050951Y-75148197D01*
X189821928Y-75319643D01*
X189619643Y-75521928D01*
X189448197Y-75750951D01*
X189448193Y-75750957D01*
X189311090Y-76002044D01*
X189311088Y-76002049D01*
X189211112Y-76270093D01*
X189211112Y-76270096D01*
X189186116Y-76384999D01*
X184750506Y-76384999D01*
X187511461Y-73624044D01*
X187707577Y-73378123D01*
X187874926Y-73111789D01*
X188011402Y-72828394D01*
X188115290Y-72531500D01*
X188185283Y-72224840D01*
X188220500Y-71912272D01*
X188220500Y-71597727D01*
X188185283Y-71285160D01*
X188115290Y-70978500D01*
X188011402Y-70681606D01*
X187874926Y-70398211D01*
X187707577Y-70131877D01*
X187511461Y-69885956D01*
X187440719Y-69815214D01*
X187393600Y-69740226D01*
X187383684Y-69652219D01*
X187412935Y-69568626D01*
X187475559Y-69506002D01*
X187559152Y-69476751D01*
X187581433Y-69475500D01*
X196135546Y-69475500D01*
X196221889Y-69495207D01*
X196291130Y-69550426D01*
X196329557Y-69630218D01*
X196329557Y-69718782D01*
X196291130Y-69798574D01*
X196221889Y-69853793D01*
X196205090Y-69860953D01*
X196017049Y-69931088D01*
X196017044Y-69931090D01*
X195765957Y-70068193D01*
X195765951Y-70068197D01*
X195536928Y-70239643D01*
X195334643Y-70441928D01*
X195163197Y-70670951D01*
X195163193Y-70670957D01*
X195026090Y-70922044D01*
X195026088Y-70922049D01*
X194926112Y-71190093D01*
X194926112Y-71190096D01*
X194901116Y-71304999D01*
X194901117Y-71305000D01*
X196248663Y-71305000D01*
X196185359Y-71399742D01*
X196128822Y-71536233D01*
X196100000Y-71681131D01*
X196100000Y-71828869D01*
X196128822Y-71973767D01*
X196185359Y-72110258D01*
X196248663Y-72205000D01*
X194901116Y-72205000D01*
X194926112Y-72319903D01*
X194926112Y-72319906D01*
X195026088Y-72587950D01*
X195026090Y-72587955D01*
X195163193Y-72839042D01*
X195163197Y-72839048D01*
X195334643Y-73068071D01*
X195536928Y-73270356D01*
X195765951Y-73441802D01*
X195765957Y-73441806D01*
X196017044Y-73578909D01*
X196017049Y-73578911D01*
X196285094Y-73678887D01*
X196400000Y-73703882D01*
X196400000Y-72356336D01*
X196494742Y-72419641D01*
X196631233Y-72476178D01*
X196776131Y-72505000D01*
X196923869Y-72505000D01*
X197068767Y-72476178D01*
X197205258Y-72419641D01*
X197300000Y-72356336D01*
X197300000Y-73703882D01*
X197414905Y-73678887D01*
X197682950Y-73578911D01*
X197682955Y-73578909D01*
X197934042Y-73441806D01*
X197934048Y-73441802D01*
X198163071Y-73270356D01*
X198365356Y-73068071D01*
X198536802Y-72839048D01*
X198536806Y-72839042D01*
X198673909Y-72587955D01*
X198673911Y-72587950D01*
X198773887Y-72319906D01*
X198773887Y-72319903D01*
X198798884Y-72205000D01*
X197451337Y-72205000D01*
X197514641Y-72110258D01*
X197571178Y-71973767D01*
X197600000Y-71828869D01*
X197600000Y-71681131D01*
X197571178Y-71536233D01*
X197514641Y-71399742D01*
X197451337Y-71305000D01*
X198798883Y-71305000D01*
X198798883Y-71304999D01*
X198773887Y-71190096D01*
X198773887Y-71190093D01*
X198673911Y-70922049D01*
X198673909Y-70922044D01*
X198536806Y-70670957D01*
X198536802Y-70670951D01*
X198365356Y-70441928D01*
X198163071Y-70239643D01*
X197934048Y-70068197D01*
X197934042Y-70068193D01*
X197682955Y-69931090D01*
X197682950Y-69931088D01*
X197494910Y-69860953D01*
X197420898Y-69812314D01*
X197375320Y-69736380D01*
X197367201Y-69648190D01*
X197398151Y-69565210D01*
X197462039Y-69503877D01*
X197546212Y-69476338D01*
X197564454Y-69475500D01*
X199547272Y-69475500D01*
X199547273Y-69475500D01*
X199859840Y-69440282D01*
X200166500Y-69370290D01*
X200463394Y-69266402D01*
X200746789Y-69129926D01*
X201013123Y-68962577D01*
X201259044Y-68766461D01*
X201897446Y-68128057D01*
X201972434Y-68080939D01*
X202060441Y-68071023D01*
X202144034Y-68100274D01*
X202178874Y-68128058D01*
X202859733Y-68808917D01*
X202906851Y-68883904D01*
X202938208Y-68973517D01*
X202938210Y-68973521D01*
X203034187Y-69126266D01*
X203161733Y-69253812D01*
X203161735Y-69253813D01*
X203161738Y-69253816D01*
X203314478Y-69349789D01*
X203484745Y-69409368D01*
X203619046Y-69424500D01*
X203620678Y-69424500D01*
X203621575Y-69424642D01*
X203624618Y-69424813D01*
X203624600Y-69425121D01*
X203682171Y-69434239D01*
X203784466Y-69467477D01*
X203986649Y-69499500D01*
X203986650Y-69499500D01*
X204191351Y-69499500D01*
X204191352Y-69499500D01*
X204393535Y-69467477D01*
X204495828Y-69434239D01*
X204553399Y-69425121D01*
X204553382Y-69424813D01*
X204556424Y-69424642D01*
X204557322Y-69424500D01*
X204558952Y-69424500D01*
X204558954Y-69424500D01*
X204693255Y-69409368D01*
X204863522Y-69349789D01*
X205016262Y-69253816D01*
X205143816Y-69126262D01*
X205239789Y-68973522D01*
X205299368Y-68803255D01*
X205314500Y-68668954D01*
X205314500Y-68667322D01*
X205314642Y-68666424D01*
X205314813Y-68663382D01*
X205315121Y-68663399D01*
X205324240Y-68605828D01*
X205357476Y-68503537D01*
X205357477Y-68503535D01*
X205389500Y-68301352D01*
X205389500Y-68096649D01*
X205357477Y-67894466D01*
X205324239Y-67792171D01*
X205315121Y-67734600D01*
X205314813Y-67734618D01*
X205314642Y-67731575D01*
X205314500Y-67730678D01*
X205314500Y-67729048D01*
X205312454Y-67710891D01*
X205299368Y-67594745D01*
X205239789Y-67424478D01*
X205143816Y-67271738D01*
X205143813Y-67271735D01*
X205143812Y-67271733D01*
X205016266Y-67144187D01*
X205016263Y-67144185D01*
X205016262Y-67144184D01*
X204929662Y-67089770D01*
X204863521Y-67048210D01*
X204863517Y-67048208D01*
X204773904Y-67016851D01*
X204698917Y-66969733D01*
X204018058Y-66288874D01*
X203970939Y-66213886D01*
X203961023Y-66125879D01*
X203990274Y-66042286D01*
X204018058Y-66007446D01*
X204730920Y-65294584D01*
X205475803Y-64549700D01*
X205550784Y-64502585D01*
X205684522Y-64455789D01*
X205837262Y-64359816D01*
X205964816Y-64232262D01*
X206060789Y-64079522D01*
X206120368Y-63909255D01*
X206122505Y-63890280D01*
X206151750Y-63806692D01*
X206289926Y-63586789D01*
X206426402Y-63303394D01*
X206530289Y-63006500D01*
X206600282Y-62699840D01*
X206635500Y-62387273D01*
X206635500Y-62072727D01*
X206600282Y-61760160D01*
X206530289Y-61453500D01*
X206426402Y-61156606D01*
X206289926Y-60873211D01*
X206151755Y-60653314D01*
X206122506Y-60569727D01*
X206120368Y-60550745D01*
X206060789Y-60380478D01*
X205964816Y-60227738D01*
X205964813Y-60227735D01*
X205964812Y-60227733D01*
X205837266Y-60100187D01*
X205837263Y-60100185D01*
X205837262Y-60100184D01*
X205684522Y-60004211D01*
X205684521Y-60004210D01*
X205684520Y-60004210D01*
X205514255Y-59944632D01*
X205495268Y-59942492D01*
X205411682Y-59913242D01*
X205324556Y-59858497D01*
X205261933Y-59795873D01*
X205232682Y-59712280D01*
X205242598Y-59624273D01*
X205289717Y-59549285D01*
X205324543Y-59521510D01*
X205458123Y-59437577D01*
X205704044Y-59241461D01*
X205926461Y-59019044D01*
X206122577Y-58773123D01*
X206289926Y-58506789D01*
X206426402Y-58223394D01*
X206530289Y-57926500D01*
X206600282Y-57619840D01*
X206635500Y-57307273D01*
X206635500Y-56992727D01*
X206600282Y-56680160D01*
X206530289Y-56373500D01*
X206426402Y-56076606D01*
X206289926Y-55793211D01*
X206122577Y-55526877D01*
X205926461Y-55280956D01*
X205704044Y-55058539D01*
X205464424Y-54867448D01*
X205409207Y-54798208D01*
X205389500Y-54711865D01*
X205389500Y-50824649D01*
X205364309Y-50665603D01*
X205357477Y-50622466D01*
X205324240Y-50520172D01*
X205315121Y-50462600D01*
X205314813Y-50462618D01*
X205314642Y-50459575D01*
X205314500Y-50458678D01*
X205314500Y-50457048D01*
X205314500Y-50457046D01*
X205299368Y-50322745D01*
X205239789Y-50152478D01*
X205143816Y-49999738D01*
X205143813Y-49999735D01*
X205143812Y-49999733D01*
X205016266Y-49872187D01*
X205016263Y-49872185D01*
X205016262Y-49872184D01*
X204863522Y-49776211D01*
X204863521Y-49776210D01*
X204863520Y-49776210D01*
X204693258Y-49716633D01*
X204693257Y-49716632D01*
X204693255Y-49716632D01*
X204558954Y-49701500D01*
X204558952Y-49701500D01*
X204557321Y-49701500D01*
X204556422Y-49701357D01*
X204553382Y-49701187D01*
X204553399Y-49700878D01*
X204495827Y-49691760D01*
X204393536Y-49658523D01*
X204393529Y-49658522D01*
X204278735Y-49640340D01*
X204191352Y-49626500D01*
X203986648Y-49626500D01*
X203925635Y-49636163D01*
X203784470Y-49658522D01*
X203784463Y-49658523D01*
X203682173Y-49691760D01*
X203624600Y-49700878D01*
X203624618Y-49701187D01*
X203621577Y-49701357D01*
X203620679Y-49701500D01*
X203619046Y-49701500D01*
X203484745Y-49716632D01*
X203484742Y-49716632D01*
X203484741Y-49716633D01*
X203314479Y-49776210D01*
X203314478Y-49776210D01*
X203161733Y-49872187D01*
X203034187Y-49999733D01*
X202938210Y-50152478D01*
X202938210Y-50152479D01*
X202927874Y-50182019D01*
X202878632Y-50322745D01*
X202870028Y-50399109D01*
X202863500Y-50457048D01*
X202863500Y-50458678D01*
X202863357Y-50459575D01*
X202863187Y-50462618D01*
X202862878Y-50462600D01*
X202853760Y-50520172D01*
X202820523Y-50622463D01*
X202820522Y-50622470D01*
X202788500Y-50824649D01*
X202788500Y-54150500D01*
X202768793Y-54236843D01*
X202713574Y-54306084D01*
X202633782Y-54344511D01*
X202589500Y-54349500D01*
X199867727Y-54349500D01*
X199803615Y-54356723D01*
X199555165Y-54384717D01*
X199555161Y-54384717D01*
X199555160Y-54384718D01*
X199470362Y-54404072D01*
X199248494Y-54454712D01*
X198951621Y-54558592D01*
X198951604Y-54558599D01*
X198668205Y-54695077D01*
X198401872Y-54862426D01*
X198401869Y-54862429D01*
X198155956Y-55058538D01*
X198155955Y-55058539D01*
X194478281Y-58736214D01*
X194403293Y-58783333D01*
X194337567Y-58794500D01*
X182607146Y-58794500D01*
X182520803Y-58774793D01*
X182451562Y-58719574D01*
X182413136Y-58639785D01*
X182400290Y-58583500D01*
X182296402Y-58286606D01*
X182159926Y-58003211D01*
X182128633Y-57953408D01*
X181992577Y-57736877D01*
X181796461Y-57490956D01*
X181574044Y-57268539D01*
X177601123Y-53295618D01*
X177597090Y-53291466D01*
X177515083Y-53204543D01*
X177515075Y-53204536D01*
X177490439Y-53183864D01*
X177477640Y-53172135D01*
X177459043Y-53153538D01*
X177365313Y-53078790D01*
X177361497Y-53075668D01*
X177265177Y-52994847D01*
X177243519Y-52980602D01*
X177228814Y-52969936D01*
X177213124Y-52957424D01*
X177213120Y-52957420D01*
X177135684Y-52908764D01*
X177106319Y-52890313D01*
X177102872Y-52888097D01*
X176992623Y-52815586D01*
X176992618Y-52815583D01*
X176975063Y-52806767D01*
X176958503Y-52797434D01*
X176946789Y-52790074D01*
X176946785Y-52790072D01*
X176827495Y-52732624D01*
X176824528Y-52731165D01*
X176701098Y-52669176D01*
X176688510Y-52664595D01*
X176670227Y-52656888D01*
X176663403Y-52653601D01*
X176663392Y-52653597D01*
X176532503Y-52607796D01*
X176530169Y-52606963D01*
X176394560Y-52557606D01*
X176394557Y-52557605D01*
X176394554Y-52557604D01*
X176391898Y-52556974D01*
X176387577Y-52555950D01*
X176367792Y-52550161D01*
X176366517Y-52549715D01*
X176366497Y-52549709D01*
X176225229Y-52517465D01*
X176223620Y-52517091D01*
X176077128Y-52482372D01*
X176076202Y-52482264D01*
X176065381Y-52480403D01*
X176065339Y-52480652D01*
X176059851Y-52479719D01*
X175909580Y-52462787D01*
X175908761Y-52462692D01*
X175753127Y-52444501D01*
X175753113Y-52444500D01*
X175753111Y-52444500D01*
X175426889Y-52444500D01*
X175426886Y-52444500D01*
X175426872Y-52444501D01*
X175271237Y-52462692D01*
X175270418Y-52462786D01*
X175120177Y-52479715D01*
X175114665Y-52480652D01*
X175114623Y-52480407D01*
X175103816Y-52482261D01*
X175102882Y-52482370D01*
X175102870Y-52482372D01*
X174956405Y-52517085D01*
X174954795Y-52517460D01*
X174813492Y-52549711D01*
X174812214Y-52550159D01*
X174792419Y-52555951D01*
X174785444Y-52557604D01*
X174785431Y-52557608D01*
X174649808Y-52606970D01*
X174647475Y-52607803D01*
X174516620Y-52653592D01*
X174516595Y-52653602D01*
X174509755Y-52656896D01*
X174491502Y-52664590D01*
X174478895Y-52669179D01*
X174478893Y-52669180D01*
X174478806Y-52669224D01*
X174478772Y-52669232D01*
X174473580Y-52671472D01*
X174473204Y-52670600D01*
X174392802Y-52690362D01*
X174306144Y-52672090D01*
X174235996Y-52618028D01*
X174196251Y-52538884D01*
X174190500Y-52491389D01*
X174190500Y-44274500D01*
X174210207Y-44188157D01*
X174265426Y-44118916D01*
X174345218Y-44080489D01*
X174389500Y-44075500D01*
X179097567Y-44075500D01*
X179183910Y-44095207D01*
X179238281Y-44133786D01*
X183550956Y-48446461D01*
X183796877Y-48642577D01*
X184063211Y-48809926D01*
X184346606Y-48946402D01*
X184346612Y-48946404D01*
X184541595Y-49014632D01*
X184643500Y-49050290D01*
X184950160Y-49120283D01*
X185262728Y-49155500D01*
X185262729Y-49155500D01*
X185577272Y-49155500D01*
X185577273Y-49155500D01*
X185889840Y-49120283D01*
X186196500Y-49050290D01*
X186493394Y-48946402D01*
X186776789Y-48809926D01*
X187043123Y-48642577D01*
X187289044Y-48446461D01*
X187511461Y-48224044D01*
X187707577Y-47978123D01*
X187874926Y-47711789D01*
X188011402Y-47428394D01*
X188115290Y-47131500D01*
X188185283Y-46824840D01*
X188220500Y-46512273D01*
X188220500Y-46197728D01*
X188187518Y-45904999D01*
X194901116Y-45904999D01*
X194901117Y-45905000D01*
X196248663Y-45905000D01*
X196185359Y-45999742D01*
X196128822Y-46136233D01*
X196100000Y-46281131D01*
X196100000Y-46428869D01*
X196128822Y-46573767D01*
X196185359Y-46710258D01*
X196248663Y-46805000D01*
X194901116Y-46805000D01*
X194926112Y-46919903D01*
X194926112Y-46919906D01*
X195026088Y-47187950D01*
X195026090Y-47187955D01*
X195163193Y-47439042D01*
X195163197Y-47439048D01*
X195334643Y-47668071D01*
X195536928Y-47870356D01*
X195765951Y-48041802D01*
X195765957Y-48041806D01*
X196017044Y-48178909D01*
X196017049Y-48178911D01*
X196285094Y-48278887D01*
X196400000Y-48303882D01*
X196400000Y-46956336D01*
X196494742Y-47019641D01*
X196631233Y-47076178D01*
X196776131Y-47105000D01*
X196923869Y-47105000D01*
X197068767Y-47076178D01*
X197205258Y-47019641D01*
X197300000Y-46956336D01*
X197300000Y-48303882D01*
X197414905Y-48278887D01*
X197682950Y-48178911D01*
X197682955Y-48178909D01*
X197934042Y-48041806D01*
X197934048Y-48041802D01*
X198163071Y-47870356D01*
X198365356Y-47668071D01*
X198536802Y-47439048D01*
X198536806Y-47439042D01*
X198673909Y-47187955D01*
X198673911Y-47187950D01*
X198773887Y-46919906D01*
X198773887Y-46919903D01*
X198798884Y-46805000D01*
X197451337Y-46805000D01*
X197514641Y-46710258D01*
X197571178Y-46573767D01*
X197600000Y-46428869D01*
X197600000Y-46281131D01*
X197571178Y-46136233D01*
X197514641Y-45999742D01*
X197451337Y-45905000D01*
X198798883Y-45905000D01*
X198798883Y-45904999D01*
X198773887Y-45790096D01*
X198773887Y-45790093D01*
X198673911Y-45522049D01*
X198673909Y-45522044D01*
X198536806Y-45270957D01*
X198536802Y-45270951D01*
X198365356Y-45041928D01*
X198163071Y-44839643D01*
X197934048Y-44668197D01*
X197934042Y-44668193D01*
X197682955Y-44531090D01*
X197682950Y-44531088D01*
X197414904Y-44431112D01*
X197300000Y-44406116D01*
X197300000Y-45753663D01*
X197205258Y-45690359D01*
X197068767Y-45633822D01*
X196923869Y-45605000D01*
X196776131Y-45605000D01*
X196631233Y-45633822D01*
X196494742Y-45690359D01*
X196400000Y-45753663D01*
X196400000Y-44406116D01*
X196399999Y-44406116D01*
X196285096Y-44431112D01*
X196285093Y-44431112D01*
X196017049Y-44531088D01*
X196017044Y-44531090D01*
X195765957Y-44668193D01*
X195765951Y-44668197D01*
X195536928Y-44839643D01*
X195334643Y-45041928D01*
X195163197Y-45270951D01*
X195163193Y-45270957D01*
X195026090Y-45522044D01*
X195026088Y-45522049D01*
X194926112Y-45790093D01*
X194926112Y-45790096D01*
X194901116Y-45904999D01*
X188187518Y-45904999D01*
X188185283Y-45885160D01*
X188115290Y-45578500D01*
X188011402Y-45281606D01*
X187874926Y-44998211D01*
X187707577Y-44731877D01*
X187511461Y-44485956D01*
X183850504Y-40824999D01*
X189186116Y-40824999D01*
X189186117Y-40825000D01*
X190533663Y-40825000D01*
X190470359Y-40919742D01*
X190413822Y-41056233D01*
X190385000Y-41201131D01*
X190385000Y-41348869D01*
X190413822Y-41493767D01*
X190470359Y-41630258D01*
X190533663Y-41725000D01*
X189186116Y-41725000D01*
X189211112Y-41839903D01*
X189211112Y-41839906D01*
X189311088Y-42107950D01*
X189311090Y-42107955D01*
X189448193Y-42359042D01*
X189448197Y-42359048D01*
X189619643Y-42588071D01*
X189821928Y-42790356D01*
X190050951Y-42961802D01*
X190050957Y-42961806D01*
X190302044Y-43098909D01*
X190302049Y-43098911D01*
X190570094Y-43198887D01*
X190685000Y-43223882D01*
X190685000Y-41876336D01*
X190779742Y-41939641D01*
X190916233Y-41996178D01*
X191061131Y-42025000D01*
X191208869Y-42025000D01*
X191353767Y-41996178D01*
X191490258Y-41939641D01*
X191585000Y-41876336D01*
X191585000Y-43223882D01*
X191699905Y-43198887D01*
X191967950Y-43098911D01*
X191967955Y-43098909D01*
X192219042Y-42961806D01*
X192219048Y-42961802D01*
X192448071Y-42790356D01*
X192650356Y-42588071D01*
X192821802Y-42359048D01*
X192821806Y-42359042D01*
X192958909Y-42107955D01*
X192958911Y-42107950D01*
X193058887Y-41839906D01*
X193058887Y-41839903D01*
X193083884Y-41725000D01*
X191736337Y-41725000D01*
X191799641Y-41630258D01*
X191856178Y-41493767D01*
X191885000Y-41348869D01*
X191885000Y-41201131D01*
X191856178Y-41056233D01*
X191799641Y-40919742D01*
X191736337Y-40825000D01*
X193083883Y-40825000D01*
X193083883Y-40824999D01*
X193058887Y-40710096D01*
X193058887Y-40710093D01*
X192958911Y-40442049D01*
X192958909Y-40442044D01*
X192821806Y-40190957D01*
X192821802Y-40190951D01*
X192650356Y-39961928D01*
X192448071Y-39759643D01*
X192219048Y-39588197D01*
X192219042Y-39588193D01*
X191967955Y-39451090D01*
X191967950Y-39451088D01*
X191699904Y-39351112D01*
X191585000Y-39326116D01*
X191585000Y-40673663D01*
X191490258Y-40610359D01*
X191353767Y-40553822D01*
X191208869Y-40525000D01*
X191061131Y-40525000D01*
X190916233Y-40553822D01*
X190779742Y-40610359D01*
X190685000Y-40673663D01*
X190685000Y-39326116D01*
X190684999Y-39326116D01*
X190570096Y-39351112D01*
X190570093Y-39351112D01*
X190302049Y-39451088D01*
X190302044Y-39451090D01*
X190050957Y-39588193D01*
X190050951Y-39588197D01*
X189821928Y-39759643D01*
X189619643Y-39961928D01*
X189448197Y-40190951D01*
X189448193Y-40190957D01*
X189311090Y-40442044D01*
X189311088Y-40442049D01*
X189211112Y-40710093D01*
X189211112Y-40710096D01*
X189186116Y-40824999D01*
X183850504Y-40824999D01*
X182209044Y-39183539D01*
X181963123Y-38987423D01*
X181696789Y-38820074D01*
X181413394Y-38683598D01*
X181413387Y-38683595D01*
X181413384Y-38683594D01*
X181116504Y-38579711D01*
X181116501Y-38579710D01*
X180809836Y-38509717D01*
X180550472Y-38480494D01*
X180497273Y-38474500D01*
X180497272Y-38474500D01*
X177804349Y-38474500D01*
X177718006Y-38454793D01*
X177648765Y-38399574D01*
X177610338Y-38319782D01*
X177610338Y-38231218D01*
X177648765Y-38151426D01*
X177718003Y-38096208D01*
X177886789Y-38014926D01*
X178106686Y-37876754D01*
X178190269Y-37847506D01*
X178209255Y-37845368D01*
X178379522Y-37785789D01*
X178532262Y-37689816D01*
X178659816Y-37562262D01*
X178755789Y-37409522D01*
X178815368Y-37239255D01*
X178817505Y-37220280D01*
X178846750Y-37136692D01*
X178873026Y-37094875D01*
X178961781Y-36953625D01*
X179024405Y-36891001D01*
X179107998Y-36861751D01*
X179130278Y-36860500D01*
X182347351Y-36860500D01*
X182347352Y-36860500D01*
X182549534Y-36828477D01*
X182651827Y-36795239D01*
X182709399Y-36786121D01*
X182709382Y-36785813D01*
X182712422Y-36785642D01*
X182713321Y-36785500D01*
X182714952Y-36785500D01*
X182714954Y-36785500D01*
X182849255Y-36770368D01*
X183019522Y-36710789D01*
X183172262Y-36614816D01*
X183299816Y-36487262D01*
X183395789Y-36334522D01*
X183455368Y-36164255D01*
X183470500Y-36029954D01*
X183470500Y-36028321D01*
X183470642Y-36027422D01*
X183470813Y-36024382D01*
X183471121Y-36024399D01*
X183480240Y-35966826D01*
X183513477Y-35864534D01*
X183545500Y-35662352D01*
X183545500Y-35457648D01*
X183513477Y-35255466D01*
X183480240Y-35153172D01*
X183471121Y-35095600D01*
X183470813Y-35095618D01*
X183470642Y-35092575D01*
X183470500Y-35091678D01*
X183470500Y-35090048D01*
X183468864Y-35075528D01*
X183455368Y-34955745D01*
X183395789Y-34785478D01*
X183299816Y-34632738D01*
X183299813Y-34632735D01*
X183299812Y-34632733D01*
X183172266Y-34505187D01*
X183172263Y-34505185D01*
X183172262Y-34505184D01*
X183019522Y-34409211D01*
X183019521Y-34409210D01*
X183019520Y-34409210D01*
X182849258Y-34349633D01*
X182849257Y-34349632D01*
X182849255Y-34349632D01*
X182714954Y-34334500D01*
X182714952Y-34334500D01*
X182713321Y-34334500D01*
X182712422Y-34334357D01*
X182709382Y-34334187D01*
X182709399Y-34333878D01*
X182651827Y-34324760D01*
X182549536Y-34291523D01*
X182549529Y-34291522D01*
X182434735Y-34273340D01*
X182347352Y-34259500D01*
X182347351Y-34259500D01*
X179130279Y-34259500D01*
X179043936Y-34239793D01*
X178974695Y-34184574D01*
X178961781Y-34166375D01*
X178937110Y-34127112D01*
X199664500Y-34127112D01*
X199664500Y-34452887D01*
X199700975Y-34776613D01*
X199773468Y-35094228D01*
X199773469Y-35094231D01*
X199881059Y-35401707D01*
X199881064Y-35401719D01*
X199881065Y-35401722D01*
X199993335Y-35634853D01*
X200022418Y-35695243D01*
X200195733Y-35971073D01*
X200195738Y-35971081D01*
X200398856Y-36225782D01*
X200629217Y-36456143D01*
X200883918Y-36659261D01*
X200883926Y-36659266D01*
X201159756Y-36832581D01*
X201159758Y-36832582D01*
X201159763Y-36832585D01*
X201453278Y-36973935D01*
X201760773Y-37081532D01*
X202078383Y-37154024D01*
X202402111Y-37190500D01*
X202402112Y-37190500D01*
X202727888Y-37190500D01*
X202727889Y-37190500D01*
X203051617Y-37154024D01*
X203369227Y-37081532D01*
X203676722Y-36973935D01*
X203970237Y-36832585D01*
X204246081Y-36659261D01*
X204500783Y-36456143D01*
X204731143Y-36225783D01*
X204934261Y-35971081D01*
X205107585Y-35695237D01*
X205248935Y-35401722D01*
X205356532Y-35094227D01*
X205429024Y-34776617D01*
X205465500Y-34452889D01*
X205465500Y-34127111D01*
X205429024Y-33803383D01*
X205356532Y-33485773D01*
X205248935Y-33178278D01*
X205107585Y-32884763D01*
X205107581Y-32884756D01*
X204934266Y-32608926D01*
X204934261Y-32608918D01*
X204731143Y-32354217D01*
X204500782Y-32123856D01*
X204246081Y-31920738D01*
X204246073Y-31920733D01*
X203970243Y-31747418D01*
X203676724Y-31606066D01*
X203676707Y-31606059D01*
X203369231Y-31498469D01*
X203369228Y-31498468D01*
X203051613Y-31425975D01*
X202782989Y-31395708D01*
X202727889Y-31389500D01*
X202402111Y-31389500D01*
X202355025Y-31394805D01*
X202078386Y-31425975D01*
X201760771Y-31498468D01*
X201760768Y-31498469D01*
X201453292Y-31606059D01*
X201453275Y-31606066D01*
X201159756Y-31747418D01*
X200883926Y-31920733D01*
X200883918Y-31920738D01*
X200629217Y-32123856D01*
X200398856Y-32354217D01*
X200195738Y-32608918D01*
X200195733Y-32608926D01*
X200022418Y-32884756D01*
X199881066Y-33178275D01*
X199881059Y-33178292D01*
X199773469Y-33485768D01*
X199773468Y-33485771D01*
X199700975Y-33803386D01*
X199664500Y-34127112D01*
X178937110Y-34127112D01*
X178873026Y-34025124D01*
X178846755Y-33983314D01*
X178817506Y-33899727D01*
X178815368Y-33880745D01*
X178755789Y-33710478D01*
X178659816Y-33557738D01*
X178659813Y-33557735D01*
X178659812Y-33557733D01*
X178532266Y-33430187D01*
X178532263Y-33430185D01*
X178532262Y-33430184D01*
X178379522Y-33334211D01*
X178379521Y-33334210D01*
X178379520Y-33334210D01*
X178209255Y-33274632D01*
X178190268Y-33272492D01*
X178106682Y-33243242D01*
X177886794Y-33105077D01*
X177886793Y-33105076D01*
X177886789Y-33105074D01*
X177603394Y-32968598D01*
X177603384Y-32968594D01*
X177603378Y-32968592D01*
X177306504Y-32864712D01*
X177306505Y-32864712D01*
X177221702Y-32845356D01*
X176999840Y-32794718D01*
X176999836Y-32794717D01*
X176999834Y-32794717D01*
X176767928Y-32768587D01*
X176687273Y-32759500D01*
X171607273Y-32759500D01*
X171292727Y-32759500D01*
X171228615Y-32766723D01*
X170980165Y-32794717D01*
X170980161Y-32794717D01*
X170980160Y-32794718D01*
X170895362Y-32814072D01*
X170673494Y-32864712D01*
X170376621Y-32968592D01*
X170376604Y-32968599D01*
X170093205Y-33105077D01*
X169826872Y-33272426D01*
X169826869Y-33272429D01*
X169580956Y-33468538D01*
X169358538Y-33690956D01*
X169162429Y-33936869D01*
X169162426Y-33936872D01*
X168995077Y-34203205D01*
X168995074Y-34203210D01*
X168995074Y-34203211D01*
X168924561Y-34349632D01*
X168858599Y-34486604D01*
X168858592Y-34486621D01*
X168754712Y-34783494D01*
X168684717Y-35090165D01*
X168649500Y-35402727D01*
X168649500Y-41158567D01*
X168629793Y-41244910D01*
X168574574Y-41314151D01*
X168494782Y-41352578D01*
X168406218Y-41352578D01*
X168326426Y-41314151D01*
X168309786Y-41299281D01*
X168219043Y-41208538D01*
X168029121Y-41057080D01*
X167973123Y-41012423D01*
X167706789Y-40845074D01*
X167423394Y-40708598D01*
X167423384Y-40708594D01*
X167423378Y-40708592D01*
X167126504Y-40604712D01*
X167126505Y-40604712D01*
X167041702Y-40585356D01*
X166819840Y-40534718D01*
X166819836Y-40534717D01*
X166819834Y-40534717D01*
X166587928Y-40508587D01*
X166507273Y-40499500D01*
X166192727Y-40499500D01*
X166128615Y-40506723D01*
X165880165Y-40534717D01*
X165880161Y-40534717D01*
X165880160Y-40534718D01*
X165796460Y-40553822D01*
X165573494Y-40604712D01*
X165276621Y-40708592D01*
X165276604Y-40708599D01*
X164993205Y-40845077D01*
X164726872Y-41012426D01*
X164726869Y-41012429D01*
X164480956Y-41208538D01*
X164258538Y-41430956D01*
X164062429Y-41676869D01*
X164062426Y-41676872D01*
X163895077Y-41943205D01*
X163895074Y-41943210D01*
X163895074Y-41943211D01*
X163815740Y-42107950D01*
X163758599Y-42226604D01*
X163758592Y-42226621D01*
X163654712Y-42523494D01*
X163654711Y-42523500D01*
X163592718Y-42795112D01*
X163584717Y-42830165D01*
X163549500Y-43142727D01*
X163549500Y-55382272D01*
X163584717Y-55694836D01*
X163654710Y-56001501D01*
X163654711Y-56001504D01*
X163758594Y-56298384D01*
X163758594Y-56298385D01*
X163758597Y-56298391D01*
X163758598Y-56298394D01*
X163895074Y-56581789D01*
X163895076Y-56581793D01*
X163895077Y-56581794D01*
X164062426Y-56848127D01*
X164062428Y-56848130D01*
X164206298Y-57028536D01*
X164210339Y-57033780D01*
X164221056Y-57048176D01*
X164221058Y-57048178D01*
X164221231Y-57048362D01*
X164232056Y-57060837D01*
X164258538Y-57094043D01*
X164258545Y-57094051D01*
X164358875Y-57194381D01*
X164362908Y-57198532D01*
X164444921Y-57285460D01*
X164469559Y-57306134D01*
X164482357Y-57317862D01*
X164500956Y-57336461D01*
X164534415Y-57363144D01*
X164589632Y-57432382D01*
X164609340Y-57518725D01*
X164589634Y-57605068D01*
X164534416Y-57674310D01*
X164478959Y-57718536D01*
X164478955Y-57718539D01*
X164256538Y-57940956D01*
X164060429Y-58186869D01*
X164060426Y-58186872D01*
X163893077Y-58453205D01*
X163893074Y-58453210D01*
X163893074Y-58453211D01*
X163830332Y-58583496D01*
X163756599Y-58736604D01*
X163756592Y-58736621D01*
X163652712Y-59033494D01*
X163652711Y-59033500D01*
X163590718Y-59305112D01*
X163582717Y-59340165D01*
X163547500Y-59652727D01*
X163547500Y-71890272D01*
X163582717Y-72202836D01*
X163652710Y-72509501D01*
X163652711Y-72509504D01*
X163756594Y-72806384D01*
X163756594Y-72806385D01*
X163756597Y-72806391D01*
X163756598Y-72806394D01*
X163893074Y-73089789D01*
X163893076Y-73089793D01*
X163893077Y-73089794D01*
X164060422Y-73356123D01*
X164128750Y-73441802D01*
X164211995Y-73546189D01*
X164216004Y-73551391D01*
X164221051Y-73558170D01*
X164224773Y-73562605D01*
X164224732Y-73562639D01*
X164229435Y-73568056D01*
X164256539Y-73602044D01*
X164256540Y-73602045D01*
X164358900Y-73704405D01*
X164362901Y-73708523D01*
X164444923Y-73795462D01*
X164469326Y-73815939D01*
X164469553Y-73816129D01*
X164482351Y-73827857D01*
X164500956Y-73846462D01*
X164535414Y-73873941D01*
X164590631Y-73943181D01*
X164610339Y-74029524D01*
X164590632Y-74115867D01*
X164535415Y-74185108D01*
X164480959Y-74228535D01*
X164258538Y-74450956D01*
X164062429Y-74696869D01*
X164062426Y-74696872D01*
X163895077Y-74963205D01*
X163895074Y-74963210D01*
X163895074Y-74963211D01*
X163814608Y-75130301D01*
X163758599Y-75246604D01*
X163758592Y-75246621D01*
X163654712Y-75543494D01*
X163654711Y-75543500D01*
X163592718Y-75815112D01*
X163584717Y-75850165D01*
X163549500Y-76162727D01*
X163549500Y-88402272D01*
X163584717Y-88714836D01*
X163654710Y-89021501D01*
X163654711Y-89021504D01*
X163758594Y-89318384D01*
X163758594Y-89318385D01*
X163758597Y-89318391D01*
X163758598Y-89318394D01*
X163895074Y-89601789D01*
X163895076Y-89601793D01*
X163895077Y-89601794D01*
X164062426Y-89868127D01*
X164062428Y-89868130D01*
X164206298Y-90048536D01*
X164210339Y-90053780D01*
X164221056Y-90068176D01*
X164221058Y-90068178D01*
X164221231Y-90068362D01*
X164232056Y-90080837D01*
X164258538Y-90114043D01*
X164258545Y-90114051D01*
X164358875Y-90214381D01*
X164362908Y-90218532D01*
X164444921Y-90305460D01*
X164469559Y-90326134D01*
X164482357Y-90337862D01*
X164500956Y-90356461D01*
X164534415Y-90383144D01*
X164589632Y-90452382D01*
X164609340Y-90538725D01*
X164589634Y-90625068D01*
X164534416Y-90694310D01*
X164478959Y-90738536D01*
X164478955Y-90738539D01*
X164256538Y-90960956D01*
X164060429Y-91206869D01*
X164060426Y-91206872D01*
X163893077Y-91473205D01*
X163893074Y-91473210D01*
X163893074Y-91473211D01*
X163833329Y-91597272D01*
X163756599Y-91756604D01*
X163756592Y-91756621D01*
X163652712Y-92053494D01*
X163652711Y-92053500D01*
X163590718Y-92325112D01*
X163582717Y-92360165D01*
X163547500Y-92672727D01*
X163547500Y-101386968D01*
X163582717Y-101699532D01*
X163652710Y-102006197D01*
X163652711Y-102006200D01*
X163756594Y-102303080D01*
X163756594Y-102303081D01*
X163756597Y-102303087D01*
X163756598Y-102303090D01*
X163893074Y-102586485D01*
X163893076Y-102586489D01*
X163893077Y-102586490D01*
X164060426Y-102852823D01*
X164060429Y-102852826D01*
X164256538Y-103098739D01*
X167632585Y-106474786D01*
X167679704Y-106549774D01*
X167689620Y-106637781D01*
X167660369Y-106721374D01*
X167597745Y-106783998D01*
X167514152Y-106813249D01*
X167491871Y-106814500D01*
X156409000Y-106814500D01*
X156322657Y-106794793D01*
X156253416Y-106739574D01*
X156214989Y-106659782D01*
X156210000Y-106615500D01*
X156210000Y-99712014D01*
X159508000Y-99712014D01*
X159508000Y-99880000D01*
X160838761Y-99880000D01*
X160803112Y-99915649D01*
X160731978Y-100022110D01*
X160682979Y-100140402D01*
X160658000Y-100265981D01*
X160658000Y-100394019D01*
X160682979Y-100519598D01*
X160731978Y-100637890D01*
X160803112Y-100744351D01*
X160838761Y-100780000D01*
X159508000Y-100780000D01*
X159508000Y-100947985D01*
X159538797Y-101181909D01*
X159538799Y-101181918D01*
X159599868Y-101409828D01*
X159599872Y-101409840D01*
X159690162Y-101627822D01*
X159690167Y-101627833D01*
X159808140Y-101832167D01*
X159951787Y-102019372D01*
X160118627Y-102186212D01*
X160305832Y-102329859D01*
X160510166Y-102447832D01*
X160510177Y-102447837D01*
X160728159Y-102538127D01*
X160728171Y-102538131D01*
X160857999Y-102572919D01*
X160858000Y-102572919D01*
X160858000Y-100799239D01*
X160893649Y-100834888D01*
X161000110Y-100906022D01*
X161118402Y-100955021D01*
X161243981Y-100980000D01*
X161372019Y-100980000D01*
X161497598Y-100955021D01*
X161615890Y-100906022D01*
X161722351Y-100834888D01*
X161758000Y-100799239D01*
X161758000Y-102572919D01*
X161887828Y-102538131D01*
X161887840Y-102538127D01*
X162105822Y-102447837D01*
X162105833Y-102447832D01*
X162310167Y-102329859D01*
X162497372Y-102186212D01*
X162664212Y-102019372D01*
X162807859Y-101832167D01*
X162925832Y-101627833D01*
X162925837Y-101627822D01*
X163016127Y-101409840D01*
X163016131Y-101409828D01*
X163077200Y-101181918D01*
X163077202Y-101181909D01*
X163107999Y-100947985D01*
X163108000Y-100947980D01*
X163108000Y-100780000D01*
X161777239Y-100780000D01*
X161812888Y-100744351D01*
X161884022Y-100637890D01*
X161933021Y-100519598D01*
X161958000Y-100394019D01*
X161958000Y-100265981D01*
X161933021Y-100140402D01*
X161884022Y-100022110D01*
X161812888Y-99915649D01*
X161777239Y-99880000D01*
X163108000Y-99880000D01*
X163108000Y-99712019D01*
X163107999Y-99712014D01*
X163077202Y-99478090D01*
X163077200Y-99478081D01*
X163016131Y-99250171D01*
X163016127Y-99250159D01*
X162925837Y-99032177D01*
X162925832Y-99032166D01*
X162807859Y-98827832D01*
X162664212Y-98640627D01*
X162497372Y-98473787D01*
X162310167Y-98330140D01*
X162105833Y-98212167D01*
X162105822Y-98212162D01*
X161887833Y-98121869D01*
X161887834Y-98121869D01*
X161758000Y-98087080D01*
X161758000Y-99860761D01*
X161722351Y-99825112D01*
X161615890Y-99753978D01*
X161497598Y-99704979D01*
X161372019Y-99680000D01*
X161243981Y-99680000D01*
X161118402Y-99704979D01*
X161000110Y-99753978D01*
X160893649Y-99825112D01*
X160858000Y-99860761D01*
X160858000Y-98087080D01*
X160857999Y-98087080D01*
X160728165Y-98121869D01*
X160510177Y-98212162D01*
X160510166Y-98212167D01*
X160305832Y-98330140D01*
X160118627Y-98473787D01*
X159951787Y-98640627D01*
X159808140Y-98827832D01*
X159690167Y-99032166D01*
X159690162Y-99032177D01*
X159599872Y-99250159D01*
X159599868Y-99250171D01*
X159538799Y-99478081D01*
X159538797Y-99478090D01*
X159508000Y-99712014D01*
X156210000Y-99712014D01*
X156210000Y-92212014D01*
X159508000Y-92212014D01*
X159508000Y-92380000D01*
X160838761Y-92380000D01*
X160803112Y-92415649D01*
X160731978Y-92522110D01*
X160682979Y-92640402D01*
X160658000Y-92765981D01*
X160658000Y-92894019D01*
X160682979Y-93019598D01*
X160731978Y-93137890D01*
X160803112Y-93244351D01*
X160838761Y-93280000D01*
X159508000Y-93280000D01*
X159508000Y-93447985D01*
X159538797Y-93681909D01*
X159538799Y-93681918D01*
X159599868Y-93909828D01*
X159599872Y-93909840D01*
X159690162Y-94127822D01*
X159690167Y-94127833D01*
X159808140Y-94332167D01*
X159951787Y-94519372D01*
X160118627Y-94686212D01*
X160305832Y-94829859D01*
X160510166Y-94947832D01*
X160510177Y-94947837D01*
X160728159Y-95038127D01*
X160728171Y-95038131D01*
X160857999Y-95072919D01*
X160858000Y-95072919D01*
X160858000Y-93299239D01*
X160893649Y-93334888D01*
X161000110Y-93406022D01*
X161118402Y-93455021D01*
X161243981Y-93480000D01*
X161372019Y-93480000D01*
X161497598Y-93455021D01*
X161615890Y-93406022D01*
X161722351Y-93334888D01*
X161758000Y-93299239D01*
X161758000Y-95072919D01*
X161887828Y-95038131D01*
X161887840Y-95038127D01*
X162105822Y-94947837D01*
X162105833Y-94947832D01*
X162310167Y-94829859D01*
X162497372Y-94686212D01*
X162664212Y-94519372D01*
X162807859Y-94332167D01*
X162925832Y-94127833D01*
X162925837Y-94127822D01*
X163016127Y-93909840D01*
X163016131Y-93909828D01*
X163077200Y-93681918D01*
X163077202Y-93681909D01*
X163107999Y-93447985D01*
X163108000Y-93447980D01*
X163108000Y-93280000D01*
X161777239Y-93280000D01*
X161812888Y-93244351D01*
X161884022Y-93137890D01*
X161933021Y-93019598D01*
X161958000Y-92894019D01*
X161958000Y-92765981D01*
X161933021Y-92640402D01*
X161884022Y-92522110D01*
X161812888Y-92415649D01*
X161777239Y-92380000D01*
X163108000Y-92380000D01*
X163108000Y-92212019D01*
X163107999Y-92212014D01*
X163077202Y-91978090D01*
X163077200Y-91978081D01*
X163016131Y-91750171D01*
X163016127Y-91750159D01*
X162925837Y-91532177D01*
X162925832Y-91532166D01*
X162807859Y-91327832D01*
X162664212Y-91140627D01*
X162497372Y-90973787D01*
X162310167Y-90830140D01*
X162105833Y-90712167D01*
X162105822Y-90712162D01*
X161887833Y-90621869D01*
X161887834Y-90621869D01*
X161758000Y-90587080D01*
X161758000Y-92360761D01*
X161722351Y-92325112D01*
X161615890Y-92253978D01*
X161497598Y-92204979D01*
X161372019Y-92180000D01*
X161243981Y-92180000D01*
X161118402Y-92204979D01*
X161000110Y-92253978D01*
X160893649Y-92325112D01*
X160858000Y-92360761D01*
X160858000Y-90587080D01*
X160857999Y-90587080D01*
X160728165Y-90621869D01*
X160510177Y-90712162D01*
X160510166Y-90712167D01*
X160305832Y-90830140D01*
X160118627Y-90973787D01*
X159951787Y-91140627D01*
X159808140Y-91327832D01*
X159690167Y-91532166D01*
X159690162Y-91532177D01*
X159599872Y-91750159D01*
X159599868Y-91750171D01*
X159538799Y-91978081D01*
X159538797Y-91978090D01*
X159508000Y-92212014D01*
X156210000Y-92212014D01*
X156210000Y-83202014D01*
X159510000Y-83202014D01*
X159510000Y-83370000D01*
X160840761Y-83370000D01*
X160805112Y-83405649D01*
X160733978Y-83512110D01*
X160684979Y-83630402D01*
X160660000Y-83755981D01*
X160660000Y-83884019D01*
X160684979Y-84009598D01*
X160733978Y-84127890D01*
X160805112Y-84234351D01*
X160840761Y-84270000D01*
X159510000Y-84270000D01*
X159510000Y-84437985D01*
X159540797Y-84671909D01*
X159540799Y-84671918D01*
X159601868Y-84899828D01*
X159601872Y-84899840D01*
X159692162Y-85117822D01*
X159692167Y-85117833D01*
X159810140Y-85322167D01*
X159953787Y-85509372D01*
X160120627Y-85676212D01*
X160307832Y-85819859D01*
X160512166Y-85937832D01*
X160512177Y-85937837D01*
X160730159Y-86028127D01*
X160730171Y-86028131D01*
X160859999Y-86062919D01*
X160860000Y-86062919D01*
X160860000Y-84289239D01*
X160895649Y-84324888D01*
X161002110Y-84396022D01*
X161120402Y-84445021D01*
X161245981Y-84470000D01*
X161374019Y-84470000D01*
X161499598Y-84445021D01*
X161617890Y-84396022D01*
X161724351Y-84324888D01*
X161760000Y-84289239D01*
X161760000Y-86062919D01*
X161889828Y-86028131D01*
X161889840Y-86028127D01*
X162107822Y-85937837D01*
X162107833Y-85937832D01*
X162312167Y-85819859D01*
X162499372Y-85676212D01*
X162666212Y-85509372D01*
X162809859Y-85322167D01*
X162927832Y-85117833D01*
X162927837Y-85117822D01*
X163018127Y-84899840D01*
X163018131Y-84899828D01*
X163079200Y-84671918D01*
X163079202Y-84671909D01*
X163109999Y-84437985D01*
X163110000Y-84437980D01*
X163110000Y-84270000D01*
X161779239Y-84270000D01*
X161814888Y-84234351D01*
X161886022Y-84127890D01*
X161935021Y-84009598D01*
X161960000Y-83884019D01*
X161960000Y-83755981D01*
X161935021Y-83630402D01*
X161886022Y-83512110D01*
X161814888Y-83405649D01*
X161779239Y-83370000D01*
X163110000Y-83370000D01*
X163110000Y-83202019D01*
X163109999Y-83202014D01*
X163079202Y-82968090D01*
X163079200Y-82968081D01*
X163018131Y-82740171D01*
X163018127Y-82740159D01*
X162927837Y-82522177D01*
X162927832Y-82522166D01*
X162809859Y-82317832D01*
X162666212Y-82130627D01*
X162499372Y-81963787D01*
X162312167Y-81820140D01*
X162107833Y-81702167D01*
X162107822Y-81702162D01*
X161889833Y-81611869D01*
X161889834Y-81611869D01*
X161760000Y-81577080D01*
X161760000Y-83350761D01*
X161724351Y-83315112D01*
X161617890Y-83243978D01*
X161499598Y-83194979D01*
X161374019Y-83170000D01*
X161245981Y-83170000D01*
X161120402Y-83194979D01*
X161002110Y-83243978D01*
X160895649Y-83315112D01*
X160860000Y-83350761D01*
X160860000Y-81577080D01*
X160859999Y-81577080D01*
X160730165Y-81611869D01*
X160512177Y-81702162D01*
X160512166Y-81702167D01*
X160307832Y-81820140D01*
X160120627Y-81963787D01*
X159953787Y-82130627D01*
X159810140Y-82317832D01*
X159692167Y-82522166D01*
X159692162Y-82522177D01*
X159601872Y-82740159D01*
X159601868Y-82740171D01*
X159540799Y-82968081D01*
X159540797Y-82968090D01*
X159510000Y-83202014D01*
X156210000Y-83202014D01*
X156210000Y-75702014D01*
X159510000Y-75702014D01*
X159510000Y-75870000D01*
X160840761Y-75870000D01*
X160805112Y-75905649D01*
X160733978Y-76012110D01*
X160684979Y-76130402D01*
X160660000Y-76255981D01*
X160660000Y-76384019D01*
X160684979Y-76509598D01*
X160733978Y-76627890D01*
X160805112Y-76734351D01*
X160840761Y-76770000D01*
X159510000Y-76770000D01*
X159510000Y-76937985D01*
X159540797Y-77171909D01*
X159540799Y-77171918D01*
X159601868Y-77399828D01*
X159601872Y-77399840D01*
X159692162Y-77617822D01*
X159692167Y-77617833D01*
X159810140Y-77822167D01*
X159953787Y-78009372D01*
X160120627Y-78176212D01*
X160307832Y-78319859D01*
X160512166Y-78437832D01*
X160512177Y-78437837D01*
X160730159Y-78528127D01*
X160730171Y-78528131D01*
X160859999Y-78562919D01*
X160860000Y-78562919D01*
X160860000Y-76789239D01*
X160895649Y-76824888D01*
X161002110Y-76896022D01*
X161120402Y-76945021D01*
X161245981Y-76970000D01*
X161374019Y-76970000D01*
X161499598Y-76945021D01*
X161617890Y-76896022D01*
X161724351Y-76824888D01*
X161760000Y-76789239D01*
X161760000Y-78562919D01*
X161889828Y-78528131D01*
X161889840Y-78528127D01*
X162107822Y-78437837D01*
X162107833Y-78437832D01*
X162312167Y-78319859D01*
X162499372Y-78176212D01*
X162666212Y-78009372D01*
X162809859Y-77822167D01*
X162927832Y-77617833D01*
X162927837Y-77617822D01*
X163018127Y-77399840D01*
X163018131Y-77399828D01*
X163079200Y-77171918D01*
X163079202Y-77171909D01*
X163109999Y-76937985D01*
X163110000Y-76937980D01*
X163110000Y-76770000D01*
X161779239Y-76770000D01*
X161814888Y-76734351D01*
X161886022Y-76627890D01*
X161935021Y-76509598D01*
X161960000Y-76384019D01*
X161960000Y-76255981D01*
X161935021Y-76130402D01*
X161886022Y-76012110D01*
X161814888Y-75905649D01*
X161779239Y-75870000D01*
X163110000Y-75870000D01*
X163110000Y-75702019D01*
X163109999Y-75702014D01*
X163079202Y-75468090D01*
X163079200Y-75468081D01*
X163018131Y-75240171D01*
X163018127Y-75240159D01*
X162927837Y-75022177D01*
X162927832Y-75022166D01*
X162809859Y-74817832D01*
X162666212Y-74630627D01*
X162499372Y-74463787D01*
X162312167Y-74320140D01*
X162107833Y-74202167D01*
X162107822Y-74202162D01*
X161889833Y-74111869D01*
X161889834Y-74111869D01*
X161760000Y-74077080D01*
X161760000Y-75850761D01*
X161724351Y-75815112D01*
X161617890Y-75743978D01*
X161499598Y-75694979D01*
X161374019Y-75670000D01*
X161245981Y-75670000D01*
X161120402Y-75694979D01*
X161002110Y-75743978D01*
X160895649Y-75815112D01*
X160860000Y-75850761D01*
X160860000Y-74077080D01*
X160859999Y-74077080D01*
X160730165Y-74111869D01*
X160512177Y-74202162D01*
X160512166Y-74202167D01*
X160307832Y-74320140D01*
X160120627Y-74463787D01*
X159953787Y-74630627D01*
X159810140Y-74817832D01*
X159692167Y-75022166D01*
X159692162Y-75022177D01*
X159601872Y-75240159D01*
X159601868Y-75240171D01*
X159540799Y-75468081D01*
X159540797Y-75468090D01*
X159510000Y-75702014D01*
X156210000Y-75702014D01*
X156210000Y-66692014D01*
X159508000Y-66692014D01*
X159508000Y-66860000D01*
X160838761Y-66860000D01*
X160803112Y-66895649D01*
X160731978Y-67002110D01*
X160682979Y-67120402D01*
X160658000Y-67245981D01*
X160658000Y-67374019D01*
X160682979Y-67499598D01*
X160731978Y-67617890D01*
X160803112Y-67724351D01*
X160838761Y-67760000D01*
X159508000Y-67760000D01*
X159508000Y-67927985D01*
X159538797Y-68161909D01*
X159538799Y-68161918D01*
X159599868Y-68389828D01*
X159599872Y-68389840D01*
X159690162Y-68607822D01*
X159690167Y-68607833D01*
X159808140Y-68812167D01*
X159951787Y-68999372D01*
X160118627Y-69166212D01*
X160305832Y-69309859D01*
X160510166Y-69427832D01*
X160510177Y-69427837D01*
X160728159Y-69518127D01*
X160728171Y-69518131D01*
X160857999Y-69552919D01*
X160858000Y-69552919D01*
X160858000Y-67779239D01*
X160893649Y-67814888D01*
X161000110Y-67886022D01*
X161118402Y-67935021D01*
X161243981Y-67960000D01*
X161372019Y-67960000D01*
X161497598Y-67935021D01*
X161615890Y-67886022D01*
X161722351Y-67814888D01*
X161758000Y-67779239D01*
X161758000Y-69552919D01*
X161887828Y-69518131D01*
X161887840Y-69518127D01*
X162105822Y-69427837D01*
X162105833Y-69427832D01*
X162310167Y-69309859D01*
X162497372Y-69166212D01*
X162664212Y-68999372D01*
X162807859Y-68812167D01*
X162925832Y-68607833D01*
X162925837Y-68607822D01*
X163016127Y-68389840D01*
X163016131Y-68389828D01*
X163077200Y-68161918D01*
X163077202Y-68161909D01*
X163107999Y-67927985D01*
X163108000Y-67927980D01*
X163108000Y-67760000D01*
X161777239Y-67760000D01*
X161812888Y-67724351D01*
X161884022Y-67617890D01*
X161933021Y-67499598D01*
X161958000Y-67374019D01*
X161958000Y-67245981D01*
X161933021Y-67120402D01*
X161884022Y-67002110D01*
X161812888Y-66895649D01*
X161777239Y-66860000D01*
X163108000Y-66860000D01*
X163108000Y-66692019D01*
X163107999Y-66692014D01*
X163077202Y-66458090D01*
X163077200Y-66458081D01*
X163016131Y-66230171D01*
X163016127Y-66230159D01*
X162925837Y-66012177D01*
X162925832Y-66012166D01*
X162807859Y-65807832D01*
X162664212Y-65620627D01*
X162497372Y-65453787D01*
X162310167Y-65310140D01*
X162105833Y-65192167D01*
X162105822Y-65192162D01*
X161887833Y-65101869D01*
X161887834Y-65101869D01*
X161758000Y-65067080D01*
X161758000Y-66840761D01*
X161722351Y-66805112D01*
X161615890Y-66733978D01*
X161497598Y-66684979D01*
X161372019Y-66660000D01*
X161243981Y-66660000D01*
X161118402Y-66684979D01*
X161000110Y-66733978D01*
X160893649Y-66805112D01*
X160858000Y-66840761D01*
X160858000Y-65067080D01*
X160857999Y-65067080D01*
X160728165Y-65101869D01*
X160510177Y-65192162D01*
X160510166Y-65192167D01*
X160305832Y-65310140D01*
X160118627Y-65453787D01*
X159951787Y-65620627D01*
X159808140Y-65807832D01*
X159690167Y-66012166D01*
X159690162Y-66012177D01*
X159599872Y-66230159D01*
X159599868Y-66230171D01*
X159538799Y-66458081D01*
X159538797Y-66458090D01*
X159508000Y-66692014D01*
X156210000Y-66692014D01*
X156210000Y-59192014D01*
X159508000Y-59192014D01*
X159508000Y-59360000D01*
X160838761Y-59360000D01*
X160803112Y-59395649D01*
X160731978Y-59502110D01*
X160682979Y-59620402D01*
X160658000Y-59745981D01*
X160658000Y-59874019D01*
X160682979Y-59999598D01*
X160731978Y-60117890D01*
X160803112Y-60224351D01*
X160838761Y-60260000D01*
X159508000Y-60260000D01*
X159508000Y-60427985D01*
X159538797Y-60661909D01*
X159538799Y-60661918D01*
X159599868Y-60889828D01*
X159599872Y-60889840D01*
X159690162Y-61107822D01*
X159690167Y-61107833D01*
X159808140Y-61312167D01*
X159951787Y-61499372D01*
X160118627Y-61666212D01*
X160305832Y-61809859D01*
X160510166Y-61927832D01*
X160510177Y-61927837D01*
X160728159Y-62018127D01*
X160728171Y-62018131D01*
X160857999Y-62052919D01*
X160858000Y-62052919D01*
X160858000Y-60279239D01*
X160893649Y-60314888D01*
X161000110Y-60386022D01*
X161118402Y-60435021D01*
X161243981Y-60460000D01*
X161372019Y-60460000D01*
X161497598Y-60435021D01*
X161615890Y-60386022D01*
X161722351Y-60314888D01*
X161758000Y-60279239D01*
X161758000Y-62052919D01*
X161887828Y-62018131D01*
X161887840Y-62018127D01*
X162105822Y-61927837D01*
X162105833Y-61927832D01*
X162310167Y-61809859D01*
X162497372Y-61666212D01*
X162664212Y-61499372D01*
X162807859Y-61312167D01*
X162925832Y-61107833D01*
X162925837Y-61107822D01*
X163016127Y-60889840D01*
X163016131Y-60889828D01*
X163077200Y-60661918D01*
X163077202Y-60661909D01*
X163107999Y-60427985D01*
X163108000Y-60427980D01*
X163108000Y-60260000D01*
X161777239Y-60260000D01*
X161812888Y-60224351D01*
X161884022Y-60117890D01*
X161933021Y-59999598D01*
X161958000Y-59874019D01*
X161958000Y-59745981D01*
X161933021Y-59620402D01*
X161884022Y-59502110D01*
X161812888Y-59395649D01*
X161777239Y-59360000D01*
X163108000Y-59360000D01*
X163108000Y-59192019D01*
X163107999Y-59192014D01*
X163077202Y-58958090D01*
X163077200Y-58958081D01*
X163016131Y-58730171D01*
X163016127Y-58730159D01*
X162925837Y-58512177D01*
X162925832Y-58512166D01*
X162807859Y-58307832D01*
X162664212Y-58120627D01*
X162497372Y-57953787D01*
X162310167Y-57810140D01*
X162105833Y-57692167D01*
X162105822Y-57692162D01*
X161887833Y-57601869D01*
X161887834Y-57601869D01*
X161758000Y-57567080D01*
X161758000Y-59340761D01*
X161722351Y-59305112D01*
X161615890Y-59233978D01*
X161497598Y-59184979D01*
X161372019Y-59160000D01*
X161243981Y-59160000D01*
X161118402Y-59184979D01*
X161000110Y-59233978D01*
X160893649Y-59305112D01*
X160858000Y-59340761D01*
X160858000Y-57567080D01*
X160857999Y-57567080D01*
X160728165Y-57601869D01*
X160510177Y-57692162D01*
X160510166Y-57692167D01*
X160305832Y-57810140D01*
X160118627Y-57953787D01*
X159951787Y-58120627D01*
X159808140Y-58307832D01*
X159690167Y-58512166D01*
X159690162Y-58512177D01*
X159599872Y-58730159D01*
X159599868Y-58730171D01*
X159538799Y-58958081D01*
X159538797Y-58958090D01*
X159508000Y-59192014D01*
X156210000Y-59192014D01*
X156210000Y-50182014D01*
X159510000Y-50182014D01*
X159510000Y-50350000D01*
X160840761Y-50350000D01*
X160805112Y-50385649D01*
X160733978Y-50492110D01*
X160684979Y-50610402D01*
X160660000Y-50735981D01*
X160660000Y-50864019D01*
X160684979Y-50989598D01*
X160733978Y-51107890D01*
X160805112Y-51214351D01*
X160840761Y-51250000D01*
X159510000Y-51250000D01*
X159510000Y-51417985D01*
X159540797Y-51651909D01*
X159540799Y-51651918D01*
X159601868Y-51879828D01*
X159601872Y-51879840D01*
X159692162Y-52097822D01*
X159692167Y-52097833D01*
X159810140Y-52302167D01*
X159953787Y-52489372D01*
X160120627Y-52656212D01*
X160307832Y-52799859D01*
X160512166Y-52917832D01*
X160512177Y-52917837D01*
X160730159Y-53008127D01*
X160730171Y-53008131D01*
X160859999Y-53042919D01*
X160860000Y-53042919D01*
X160860000Y-51269239D01*
X160895649Y-51304888D01*
X161002110Y-51376022D01*
X161120402Y-51425021D01*
X161245981Y-51450000D01*
X161374019Y-51450000D01*
X161499598Y-51425021D01*
X161617890Y-51376022D01*
X161724351Y-51304888D01*
X161760000Y-51269239D01*
X161760000Y-53042919D01*
X161889828Y-53008131D01*
X161889840Y-53008127D01*
X162107822Y-52917837D01*
X162107833Y-52917832D01*
X162312167Y-52799859D01*
X162499372Y-52656212D01*
X162666212Y-52489372D01*
X162809859Y-52302167D01*
X162927832Y-52097833D01*
X162927837Y-52097822D01*
X163018127Y-51879840D01*
X163018131Y-51879828D01*
X163079200Y-51651918D01*
X163079202Y-51651909D01*
X163109999Y-51417985D01*
X163110000Y-51417980D01*
X163110000Y-51250000D01*
X161779239Y-51250000D01*
X161814888Y-51214351D01*
X161886022Y-51107890D01*
X161935021Y-50989598D01*
X161960000Y-50864019D01*
X161960000Y-50735981D01*
X161935021Y-50610402D01*
X161886022Y-50492110D01*
X161814888Y-50385649D01*
X161779239Y-50350000D01*
X163110000Y-50350000D01*
X163110000Y-50182019D01*
X163109999Y-50182014D01*
X163079202Y-49948090D01*
X163079200Y-49948081D01*
X163018131Y-49720171D01*
X163018127Y-49720159D01*
X162927837Y-49502177D01*
X162927832Y-49502166D01*
X162809859Y-49297832D01*
X162666212Y-49110627D01*
X162499372Y-48943787D01*
X162312167Y-48800140D01*
X162107833Y-48682167D01*
X162107822Y-48682162D01*
X161889833Y-48591869D01*
X161889834Y-48591869D01*
X161760000Y-48557080D01*
X161760000Y-50330761D01*
X161724351Y-50295112D01*
X161617890Y-50223978D01*
X161499598Y-50174979D01*
X161374019Y-50150000D01*
X161245981Y-50150000D01*
X161120402Y-50174979D01*
X161002110Y-50223978D01*
X160895649Y-50295112D01*
X160860000Y-50330761D01*
X160860000Y-48557080D01*
X160859999Y-48557080D01*
X160730165Y-48591869D01*
X160512177Y-48682162D01*
X160512166Y-48682167D01*
X160307832Y-48800140D01*
X160120627Y-48943787D01*
X159953787Y-49110627D01*
X159810140Y-49297832D01*
X159692167Y-49502166D01*
X159692162Y-49502177D01*
X159601872Y-49720159D01*
X159601868Y-49720171D01*
X159540799Y-49948081D01*
X159540797Y-49948090D01*
X159510000Y-50182014D01*
X156210000Y-50182014D01*
X156210000Y-43180000D01*
X155269360Y-42682014D01*
X159510000Y-42682014D01*
X159510000Y-42850000D01*
X160840761Y-42850000D01*
X160805112Y-42885649D01*
X160733978Y-42992110D01*
X160684979Y-43110402D01*
X160660000Y-43235981D01*
X160660000Y-43364019D01*
X160684979Y-43489598D01*
X160733978Y-43607890D01*
X160805112Y-43714351D01*
X160840761Y-43750000D01*
X159510000Y-43750000D01*
X159510000Y-43917985D01*
X159540797Y-44151909D01*
X159540799Y-44151918D01*
X159601868Y-44379828D01*
X159601872Y-44379840D01*
X159692162Y-44597822D01*
X159692167Y-44597833D01*
X159810140Y-44802167D01*
X159953787Y-44989372D01*
X160120627Y-45156212D01*
X160307832Y-45299859D01*
X160512166Y-45417832D01*
X160512177Y-45417837D01*
X160730159Y-45508127D01*
X160730171Y-45508131D01*
X160859999Y-45542919D01*
X160860000Y-45542919D01*
X160860000Y-43769239D01*
X160895649Y-43804888D01*
X161002110Y-43876022D01*
X161120402Y-43925021D01*
X161245981Y-43950000D01*
X161374019Y-43950000D01*
X161499598Y-43925021D01*
X161617890Y-43876022D01*
X161724351Y-43804888D01*
X161760000Y-43769239D01*
X161760000Y-45542919D01*
X161889828Y-45508131D01*
X161889840Y-45508127D01*
X162107822Y-45417837D01*
X162107833Y-45417832D01*
X162312167Y-45299859D01*
X162499372Y-45156212D01*
X162666212Y-44989372D01*
X162809859Y-44802167D01*
X162927832Y-44597833D01*
X162927837Y-44597822D01*
X163018127Y-44379840D01*
X163018131Y-44379828D01*
X163079200Y-44151918D01*
X163079202Y-44151909D01*
X163109999Y-43917985D01*
X163110000Y-43917980D01*
X163110000Y-43750000D01*
X161779239Y-43750000D01*
X161814888Y-43714351D01*
X161886022Y-43607890D01*
X161935021Y-43489598D01*
X161960000Y-43364019D01*
X161960000Y-43235981D01*
X161935021Y-43110402D01*
X161886022Y-42992110D01*
X161814888Y-42885649D01*
X161779239Y-42850000D01*
X163110000Y-42850000D01*
X163110000Y-42682019D01*
X163109999Y-42682014D01*
X163079202Y-42448090D01*
X163079200Y-42448081D01*
X163018131Y-42220171D01*
X163018127Y-42220159D01*
X162927837Y-42002177D01*
X162927832Y-42002166D01*
X162809859Y-41797832D01*
X162666212Y-41610627D01*
X162499372Y-41443787D01*
X162312167Y-41300140D01*
X162107833Y-41182167D01*
X162107822Y-41182162D01*
X161889833Y-41091869D01*
X161889834Y-41091869D01*
X161760000Y-41057080D01*
X161760000Y-42830761D01*
X161724351Y-42795112D01*
X161617890Y-42723978D01*
X161499598Y-42674979D01*
X161374019Y-42650000D01*
X161245981Y-42650000D01*
X161120402Y-42674979D01*
X161002110Y-42723978D01*
X160895649Y-42795112D01*
X160860000Y-42830761D01*
X160860000Y-41057080D01*
X160859999Y-41057080D01*
X160730165Y-41091869D01*
X160512177Y-41182162D01*
X160512166Y-41182167D01*
X160307832Y-41300140D01*
X160120627Y-41443787D01*
X159953787Y-41610627D01*
X159810140Y-41797832D01*
X159692167Y-42002166D01*
X159692162Y-42002177D01*
X159601872Y-42220159D01*
X159601868Y-42220171D01*
X159540799Y-42448081D01*
X159540797Y-42448090D01*
X159510000Y-42682014D01*
X155269360Y-42682014D01*
X145520890Y-37521059D01*
X145453802Y-37463243D01*
X145418443Y-37382044D01*
X145415000Y-37345185D01*
X145415000Y-36354923D01*
X149072000Y-36354923D01*
X149087124Y-36489146D01*
X149146662Y-36659300D01*
X149146664Y-36659304D01*
X149242577Y-36811948D01*
X149242580Y-36811952D01*
X149370047Y-36939419D01*
X149370051Y-36939422D01*
X149522695Y-37035335D01*
X149522699Y-37035337D01*
X149692853Y-37094875D01*
X149827076Y-37110000D01*
X150172000Y-37110000D01*
X151072000Y-37110000D01*
X151416924Y-37110000D01*
X151551146Y-37094875D01*
X151721300Y-37035337D01*
X151721304Y-37035335D01*
X151873948Y-36939422D01*
X151873952Y-36939419D01*
X152001419Y-36811952D01*
X152001422Y-36811948D01*
X152097335Y-36659304D01*
X152097337Y-36659300D01*
X152156875Y-36489146D01*
X152172000Y-36354923D01*
X152172000Y-36010000D01*
X151072000Y-36010000D01*
X151072000Y-37110000D01*
X150172000Y-37110000D01*
X150172000Y-36010000D01*
X149072000Y-36010000D01*
X149072000Y-36354923D01*
X145415000Y-36354923D01*
X145415000Y-35510272D01*
X150372000Y-35510272D01*
X150372000Y-35609728D01*
X150410060Y-35701614D01*
X150480386Y-35771940D01*
X150572272Y-35810000D01*
X150671728Y-35810000D01*
X150763614Y-35771940D01*
X150833940Y-35701614D01*
X150872000Y-35609728D01*
X150872000Y-35560000D01*
X153905065Y-35560000D01*
X153924783Y-35860852D01*
X153924784Y-35860856D01*
X153983602Y-36156555D01*
X153983605Y-36156564D01*
X154080517Y-36442058D01*
X154080520Y-36442065D01*
X154213865Y-36712462D01*
X154296887Y-36836715D01*
X155458088Y-35675515D01*
X155479207Y-35781684D01*
X155536497Y-35919995D01*
X155619670Y-36044472D01*
X155725528Y-36150330D01*
X155850005Y-36233503D01*
X155988316Y-36290793D01*
X156094484Y-36311911D01*
X154933283Y-37473111D01*
X154933283Y-37473112D01*
X155057537Y-37556135D01*
X155327934Y-37689479D01*
X155327941Y-37689482D01*
X155613435Y-37786394D01*
X155613444Y-37786397D01*
X155909143Y-37845215D01*
X155909147Y-37845216D01*
X156210000Y-37864934D01*
X156510852Y-37845216D01*
X156510856Y-37845215D01*
X156806555Y-37786397D01*
X156806564Y-37786394D01*
X157092058Y-37689482D01*
X157362476Y-37556126D01*
X157486715Y-37473112D01*
X157486715Y-37473111D01*
X156325516Y-36311911D01*
X156431684Y-36290793D01*
X156569995Y-36233503D01*
X156694472Y-36150330D01*
X156800330Y-36044472D01*
X156883503Y-35919995D01*
X156940793Y-35781684D01*
X156961911Y-35675515D01*
X158123111Y-36836715D01*
X158123112Y-36836715D01*
X158206126Y-36712476D01*
X158339482Y-36442058D01*
X158436394Y-36156564D01*
X158436397Y-36156555D01*
X158495215Y-35860856D01*
X158495216Y-35860852D01*
X158514934Y-35560000D01*
X158495216Y-35259147D01*
X158495215Y-35259143D01*
X158436397Y-34963444D01*
X158436394Y-34963435D01*
X158339482Y-34677941D01*
X158206126Y-34407524D01*
X158123111Y-34283284D01*
X158123110Y-34283283D01*
X156961911Y-35444483D01*
X156940793Y-35338316D01*
X156883503Y-35200005D01*
X156800330Y-35075528D01*
X156694472Y-34969670D01*
X156569995Y-34886497D01*
X156431684Y-34829207D01*
X156325516Y-34808088D01*
X157118527Y-34015076D01*
X158990000Y-34015076D01*
X158990000Y-35110000D01*
X160676637Y-35110000D01*
X160616497Y-35200005D01*
X160559207Y-35338316D01*
X160530000Y-35485147D01*
X160530000Y-35634853D01*
X160559207Y-35781684D01*
X160616497Y-35919995D01*
X160676637Y-36010000D01*
X158990000Y-36010000D01*
X158990000Y-37104923D01*
X159005124Y-37239146D01*
X159064662Y-37409300D01*
X159064664Y-37409304D01*
X159160577Y-37561948D01*
X159160580Y-37561952D01*
X159288047Y-37689419D01*
X159288051Y-37689422D01*
X159440695Y-37785335D01*
X159440699Y-37785337D01*
X159610853Y-37844875D01*
X159745076Y-37860000D01*
X160840000Y-37860000D01*
X160840000Y-36173363D01*
X160930005Y-36233503D01*
X161068316Y-36290793D01*
X161215147Y-36320000D01*
X161364853Y-36320000D01*
X161511684Y-36290793D01*
X161649995Y-36233503D01*
X161740000Y-36173363D01*
X161740000Y-37860000D01*
X162834924Y-37860000D01*
X162969146Y-37844875D01*
X163139300Y-37785337D01*
X163139304Y-37785335D01*
X163291948Y-37689422D01*
X163291952Y-37689419D01*
X163419419Y-37561952D01*
X163419422Y-37561948D01*
X163515335Y-37409304D01*
X163515337Y-37409300D01*
X163574875Y-37239146D01*
X163590000Y-37104923D01*
X163590000Y-36010000D01*
X161903363Y-36010000D01*
X161963503Y-35919995D01*
X162020793Y-35781684D01*
X162050000Y-35634853D01*
X162050000Y-35485147D01*
X162020793Y-35338316D01*
X161963503Y-35200005D01*
X161903363Y-35110000D01*
X163590000Y-35110000D01*
X163590000Y-34015076D01*
X163574875Y-33880853D01*
X163515337Y-33710699D01*
X163515335Y-33710695D01*
X163419422Y-33558051D01*
X163419419Y-33558047D01*
X163291952Y-33430580D01*
X163291948Y-33430577D01*
X163139304Y-33334664D01*
X163139300Y-33334662D01*
X162969146Y-33275124D01*
X162834924Y-33260000D01*
X161740000Y-33260000D01*
X161740000Y-34946636D01*
X161649995Y-34886497D01*
X161511684Y-34829207D01*
X161364853Y-34800000D01*
X161215147Y-34800000D01*
X161068316Y-34829207D01*
X160930005Y-34886497D01*
X160840000Y-34946636D01*
X160840000Y-33260000D01*
X159745076Y-33260000D01*
X159610853Y-33275124D01*
X159440699Y-33334662D01*
X159440695Y-33334664D01*
X159288051Y-33430577D01*
X159288047Y-33430580D01*
X159160580Y-33558047D01*
X159160577Y-33558051D01*
X159064664Y-33710695D01*
X159064662Y-33710699D01*
X159005124Y-33880853D01*
X158990000Y-34015076D01*
X157118527Y-34015076D01*
X157486715Y-33646887D01*
X157486715Y-33646886D01*
X157362462Y-33563865D01*
X157092065Y-33430520D01*
X157092058Y-33430517D01*
X156806564Y-33333605D01*
X156806555Y-33333602D01*
X156510856Y-33274784D01*
X156510852Y-33274783D01*
X156210000Y-33255065D01*
X155909147Y-33274783D01*
X155909143Y-33274784D01*
X155613444Y-33333602D01*
X155613435Y-33333605D01*
X155327941Y-33430517D01*
X155057529Y-33563870D01*
X154933284Y-33646887D01*
X154933284Y-33646888D01*
X156094484Y-34808088D01*
X155988316Y-34829207D01*
X155850005Y-34886497D01*
X155725528Y-34969670D01*
X155619670Y-35075528D01*
X155536497Y-35200005D01*
X155479207Y-35338316D01*
X155458088Y-35444484D01*
X154296888Y-34283284D01*
X154296887Y-34283284D01*
X154213870Y-34407529D01*
X154080517Y-34677941D01*
X153983605Y-34963435D01*
X153983602Y-34963444D01*
X153924784Y-35259143D01*
X153924783Y-35259147D01*
X153905065Y-35560000D01*
X150872000Y-35560000D01*
X150872000Y-35510272D01*
X150833940Y-35418386D01*
X150763614Y-35348060D01*
X150671728Y-35310000D01*
X150572272Y-35310000D01*
X150480386Y-35348060D01*
X150410060Y-35418386D01*
X150372000Y-35510272D01*
X145415000Y-35510272D01*
X145415000Y-34765076D01*
X149072000Y-34765076D01*
X149072000Y-35110000D01*
X150172000Y-35110000D01*
X151072000Y-35110000D01*
X152172000Y-35110000D01*
X152172000Y-34765076D01*
X152156875Y-34630853D01*
X152097337Y-34460699D01*
X152097335Y-34460695D01*
X152001422Y-34308051D01*
X152001419Y-34308047D01*
X151873952Y-34180580D01*
X151873948Y-34180577D01*
X151721304Y-34084664D01*
X151721300Y-34084662D01*
X151551146Y-34025124D01*
X151416924Y-34010000D01*
X151072000Y-34010000D01*
X151072000Y-35110000D01*
X150172000Y-35110000D01*
X150172000Y-34010000D01*
X149827076Y-34010000D01*
X149692853Y-34025124D01*
X149522699Y-34084662D01*
X149522695Y-34084664D01*
X149370051Y-34180577D01*
X149370047Y-34180580D01*
X149242580Y-34308047D01*
X149242577Y-34308051D01*
X149146664Y-34460695D01*
X149146662Y-34460699D01*
X149087124Y-34630853D01*
X149072000Y-34765076D01*
X145415000Y-34765076D01*
X145415000Y-29274500D01*
X145434707Y-29188157D01*
X145489926Y-29118916D01*
X145569718Y-29080489D01*
X145614000Y-29075500D01*
X207580500Y-29075500D01*
X207666843Y-29095207D01*
G37*
%TD.AperFunction*%
%TD*%
M02*
