<?xml version="1.0" standalone="no"?>
<!DOCTYPE svg PUBLIC "-//W3C//DTD SVG 1.1//EN"
"http://www.w3.org/Graphics/SVG/1.1/DTD/svg11.dtd">
<svg width="381.789" height="297.789" viewBox="0 0 7953.94 6203.94" version="1.1"
xmlns="http://www.w3.org/2000/svg"
xmlns:xlink="http://www.w3.org/1999/xlink">
<circle cx="7631.97" cy="3851.97" r="31.4961" style=""/>
<circle cx="7621.97" cy="3121.97" r="31.4961" style=""/>
<circle cx="7621.97" cy="1761.97" r="31.4961" style=""/>
<circle cx="5901.97" cy="551.969" r="31.4961" style=""/>
<circle cx="3411.97" cy="551.969" r="31.4961" style=""/>
<circle cx="2591.97" cy="551.969" r="31.4961" style=""/>
<circle cx="2180.31" cy="1201.97" r="31.4961" style=""/>
<circle cx="2180.31" cy="1401.97" r="31.4961" style=""/>
<circle cx="2180.31" cy="1601.97" r="31.4961" style=""/>
<circle cx="1821.97" cy="1821.97" r="31.4961" style=""/>
<circle cx="1773.62" cy="1401.97" r="31.4961" style=""/>
<circle cx="1773.62" cy="1101.97" r="31.4961" style=""/>
<circle cx="1321.97" cy="531.969" r="31.4961" style=""/>
<circle cx="973.622" cy="1101.97" r="31.4961" style=""/>
<circle cx="973.622" cy="1401.97" r="31.4961" style=""/>
<circle cx="1001.97" cy="2421.97" r="31.4961" style=""/>
<circle cx="1001.97" cy="2701.97" r="31.4961" style=""/>
<circle cx="1001.97" cy="3701.97" r="31.4961" style=""/>
<circle cx="1001.97" cy="4001.97" r="31.4961" style=""/>
<circle cx="1001.97" cy="5001.97" r="31.4961" style=""/>
<circle cx="1001.97" cy="5301.97" r="31.4961" style=""/>
<circle cx="1771.97" cy="5741.97" r="31.4961" style=""/>
<circle cx="2180.31" cy="5501.97" r="31.4961" style=""/>
<circle cx="2180.31" cy="5301.97" r="31.4961" style=""/>
<circle cx="2180.31" cy="5101.97" r="31.4961" style=""/>
<circle cx="1801.97" cy="5301.97" r="31.4961" style=""/>
<circle cx="1801.97" cy="5001.97" r="31.4961" style=""/>
<circle cx="1821.97" cy="4451.97" r="31.4961" style=""/>
<circle cx="2180.31" cy="4201.97" r="31.4961" style=""/>
<circle cx="2180.31" cy="4001.97" r="31.4961" style=""/>
<circle cx="2180.31" cy="3801.97" r="31.4961" style=""/>
<circle cx="1801.97" cy="4001.97" r="31.4961" style=""/>
<circle cx="1801.97" cy="3701.97" r="31.4961" style=""/>
<circle cx="1831.97" cy="3131.97" r="31.4961" style=""/>
<circle cx="1801.97" cy="2701.97" r="31.4961" style=""/>
<circle cx="1801.97" cy="2421.97" r="31.4961" style=""/>
<circle cx="2180.31" cy="2501.97" r="31.4961" style=""/>
<circle cx="2180.31" cy="2701.97" r="31.4961" style=""/>
<circle cx="2180.31" cy="2901.97" r="31.4961" style=""/>
<circle cx="7631.97" cy="5171.97" r="31.4961" style=""/>
<circle cx="5377.95" cy="2101.97" r="39.3701" style=""/>
<circle cx="4651.97" cy="2101.97" r="39.3701" style=""/>
<circle cx="4651.97" cy="3401.97" r="39.3701" style=""/>
<circle cx="5377.95" cy="3401.97" r="39.3701" style=""/>
<circle cx="5377.95" cy="4701.97" r="39.3701" style=""/>
<circle cx="4651.97" cy="4701.97" r="39.3701" style=""/>
<circle cx="801.969" cy="2901.97" r="39.3701" style=""/>
<circle cx="801.969" cy="3101.97" r="39.3701" style=""/>
<circle cx="801.969" cy="3301.97" r="39.3701" style=""/>
<circle cx="801.969" cy="3501.97" r="39.3701" style=""/>
<circle cx="309.843" cy="3615.35" r="39.3701" style=""/>
<circle cx="309.843" cy="3339.76" r="39.3701" style=""/>
<circle cx="309.843" cy="3064.17" r="39.3701" style=""/>
<circle cx="309.843" cy="2788.58" r="39.3701" style=""/>
<circle cx="7051.97" cy="1401.97" r="59.0551" style=""/>
<circle cx="6601.97" cy="1001.97" r="59.0551" style=""/>
<circle cx="7601.97" cy="2251.97" r="59.0551" style=""/>
<circle cx="7601.97" cy="2651.97" r="59.0551" style=""/>
<circle cx="7051.97" cy="3001.97" r="59.0551" style=""/>
<circle cx="7051.97" cy="3401.97" r="59.0551" style=""/>
<circle cx="7601.97" cy="4301.97" r="59.0551" style=""/>
<circle cx="7601.97" cy="4701.97" r="59.0551" style=""/>
<circle cx="7051.97" cy="5001.97" r="59.0551" style=""/>
<circle cx="6601.97" cy="5401.97" r="59.0551" style=""/>
<circle cx="6151.97" cy="5001.97" r="59.0551" style=""/>
<circle cx="6601.97" cy="3801.97" r="59.0551" style=""/>
<circle cx="6151.97" cy="3401.97" r="59.0551" style=""/>
<circle cx="5701.97" cy="3801.97" r="59.0551" style=""/>
<circle cx="5047.24" cy="3761.42" r="59.0551" style=""/>
<circle cx="5047.24" cy="4351.97" r="59.0551" style=""/>
<circle cx="4650.39" cy="4351.97" r="59.0551" style=""/>
<circle cx="4253.54" cy="4351.97" r="59.0551" style=""/>
<circle cx="4253.54" cy="3761.42" r="59.0551" style=""/>
<circle cx="4650.39" cy="3761.42" r="59.0551" style=""/>
<circle cx="5047.09" cy="3051.97" r="59.0551" style=""/>
<circle cx="4650.24" cy="3051.97" r="59.0551" style=""/>
<circle cx="4253.39" cy="3051.97" r="59.0551" style=""/>
<circle cx="4253.39" cy="2461.42" r="59.0551" style=""/>
<circle cx="4650.24" cy="2461.42" r="59.0551" style=""/>
<circle cx="5047.09" cy="2461.42" r="59.0551" style=""/>
<circle cx="5701.97" cy="2601.97" r="59.0551" style=""/>
<circle cx="6151.97" cy="3001.97" r="59.0551" style=""/>
<circle cx="6601.97" cy="2601.97" r="59.0551" style=""/>
<circle cx="6151.97" cy="1401.97" r="59.0551" style=""/>
<circle cx="5701.97" cy="1001.97" r="59.0551" style=""/>
<circle cx="5451.97" cy="551.969" r="59.0551" style=""/>
<circle cx="5051.97" cy="551.969" r="59.0551" style=""/>
<circle cx="5047.24" cy="1161.42" r="59.0551" style=""/>
<circle cx="5047.24" cy="1751.97" r="59.0551" style=""/>
<circle cx="4650.39" cy="1751.97" r="59.0551" style=""/>
<circle cx="4253.54" cy="1751.97" r="59.0551" style=""/>
<circle cx="4253.54" cy="1161.42" r="59.0551" style=""/>
<circle cx="4650.39" cy="1161.42" r="59.0551" style=""/>
<circle cx="4251.97" cy="551.969" r="59.0551" style=""/>
<circle cx="3851.97" cy="551.969" r="59.0551" style=""/>
<circle cx="3051.97" cy="1161.42" r="59.0551" style=""/>
<circle cx="2551.97" cy="951.969" r="59.0551" style=""/>
<circle cx="2171.97" cy="551.969" r="59.0551" style=""/>
<circle cx="1771.97" cy="551.969" r="59.0551" style=""/>
<circle cx="3051.97" cy="1751.97" r="59.0551" style=""/>
<circle cx="2551.97" cy="1951.97" r="59.0551" style=""/>
<circle cx="2551.97" cy="2251.97" r="59.0551" style=""/>
<circle cx="3051.81" cy="2461.42" r="59.0551" style=""/>
<circle cx="3051.81" cy="3051.97" r="59.0551" style=""/>
<circle cx="2551.97" cy="3251.97" r="59.0551" style=""/>
<circle cx="2551.97" cy="3551.97" r="59.0551" style=""/>
<circle cx="3051.97" cy="3761.42" r="59.0551" style=""/>
<circle cx="3051.97" cy="4351.97" r="59.0551" style=""/>
<circle cx="2551.97" cy="4551.97" r="59.0551" style=""/>
<circle cx="2551.97" cy="4851.97" r="59.0551" style=""/>
<circle cx="3051.81" cy="5061.42" r="59.0551" style=""/>
<circle cx="2551.97" cy="5851.97" r="59.0551" style=""/>
<circle cx="3051.81" cy="5651.97" r="59.0551" style=""/>
<circle cx="4253.39" cy="5061.42" r="59.0551" style=""/>
<circle cx="4650.24" cy="5061.42" r="59.0551" style=""/>
<circle cx="5047.09" cy="5061.42" r="59.0551" style=""/>
<circle cx="5701.97" cy="5401.97" r="59.0551" style=""/>
<circle cx="5047.09" cy="5651.97" r="59.0551" style=""/>
<circle cx="4650.24" cy="5651.97" r="59.0551" style=""/>
<circle cx="4253.39" cy="5651.97" r="59.0551" style=""/>
</svg>
